<svg width="182" height="193" viewBox="0 0 182 193" fill="none" xmlns="http://www.w3.org/2000/svg">
<path fill-rule="evenodd" clip-rule="evenodd" d="M86.263 3.58728C96.9275 2.32558 160.578 45.1986 160.338 87.7917C160.259 104.27 137.232 128.625 101.845 149.796C96.0088 153.286 91.9742 155.64 86.8447 159.829C86.5088 160.084 89.6319 159.691 93.8321 158.905C103.777 157.042 108.923 157.549 111.066 160.632C112.083 162.136 111.375 162.621 107.81 162.873C97.5833 163.573 87.6479 166.68 74.4265 173.407C69.2298 176.043 61.4977 175.381 69.8062 163.244C76.8345 152.977 80.2699 146.228 84.0944 134.899C86.588 127.559 91.4003 126.114 92.3832 132.387C92.7262 134.561 90.2267 142.381 86.7042 150.202L84.8927 154.185C99.2592 145.549 100.19 145.055 111.253 137.389C137.533 119.138 152.083 101.581 152.34 87.7549C152.954 52.7957 110.37 22.7288 85.0621 5.02699C84.3654 4.55007 85.0412 3.72016 86.263 3.58728Z" fill="#DFF183"/>
<path fill-rule="evenodd" clip-rule="evenodd" d="M86.3805 4.58035C86.8766 4.52165 87.6172 4.5859 88.6193 4.8289C89.6072 5.06847 90.7875 5.46624 92.1374 6.02112C94.8366 7.13061 98.1499 8.84169 101.853 11.0783C109.257 15.5499 118.152 22.0809 126.712 29.9789C135.273 37.8783 143.473 47.1209 149.511 57.0095C155.553 66.9027 159.397 77.3853 159.338 87.7861C159.3 95.6222 153.761 105.588 143.605 116.347C133.494 127.059 118.969 138.386 101.331 148.938C101.044 149.11 100.762 149.279 100.483 149.445C95.1008 152.661 91.156 155.018 86.2214 159.047C86.1596 159.096 86.0452 159.197 85.9541 159.357C85.832 159.571 85.7376 159.937 85.9268 160.316C86.0787 160.62 86.3289 160.75 86.4182 160.791C86.5292 160.843 86.6284 160.865 86.6831 160.876C86.8758 160.914 87.0974 160.908 87.2468 160.902C87.6035 160.887 88.1293 160.832 88.7666 160.749C90.0543 160.581 91.9044 160.283 94.0162 159.888C98.962 158.961 102.622 158.644 105.275 158.909C107.91 159.172 109.399 159.99 110.242 161.198C110.322 161.317 110.376 161.41 110.414 161.481C110.285 161.529 110.083 161.588 109.78 161.645C109.285 161.739 108.618 161.813 107.741 161.875C97.3367 162.587 87.2679 165.751 73.9742 172.515C72.7687 173.127 71.4337 173.536 70.2545 173.642C69.0428 173.75 68.1826 173.526 67.711 173.113C67.3063 172.758 66.9522 172.047 67.2709 170.528C67.5938 168.988 68.5846 166.798 70.6313 163.809C77.7074 153.472 81.1857 146.641 85.0412 135.22C85.6382 133.463 86.3608 132.099 87.0979 131.135C87.8464 130.155 88.553 129.659 89.0944 129.495C89.5662 129.353 89.9521 129.441 90.3149 129.806C90.7331 130.227 91.1654 131.075 91.3952 132.542L91.3954 132.543C91.4501 132.89 91.3973 133.627 91.1568 134.785C90.9251 135.9 90.5455 137.29 90.0406 138.873C89.0317 142.035 87.5409 145.909 85.7934 149.789C85.7931 149.789 85.7928 149.79 85.7924 149.791L82.6507 156.7L85.4079 155.042C86.2697 154.524 87.0832 154.035 87.8535 153.573C99.9319 146.315 101.398 145.435 111.823 138.211L111.824 138.211C125.009 129.054 135.294 120.042 142.326 111.55C149.342 103.077 153.205 95.015 153.339 87.7734C153.654 69.8839 142.925 53.3765 129.138 39.2217C115.536 25.2569 98.7899 13.4117 86.2057 4.60666C86.2574 4.59637 86.3126 4.58778 86.3711 4.58141L86.3805 4.58035ZM74.4265 173.407C87.6479 166.68 97.5833 163.573 107.81 162.873C111.375 162.621 112.083 162.136 111.066 160.632C108.923 157.549 103.777 157.042 93.8321 158.905C91.6601 159.311 89.776 159.613 88.5094 159.774C88.2537 159.806 88.0231 159.833 87.8204 159.854C87.3588 159.901 87.0419 159.918 86.9016 159.899C86.9001 159.899 86.8986 159.899 86.8971 159.899C86.8178 159.887 86.7983 159.865 86.8447 159.829C87.0951 159.625 87.343 159.425 87.5886 159.229C87.7634 159.089 87.9371 158.951 88.1097 158.816C92.4207 155.428 96.0892 153.236 101.009 150.296C101.284 150.132 101.562 149.965 101.845 149.796C137.232 128.625 160.259 104.27 160.338 87.7917C160.578 45.1986 96.9275 2.32558 86.263 3.58728C85.0412 3.72016 84.3654 4.55007 85.0621 5.02699C110.37 22.7288 152.954 52.7957 152.34 87.7549C152.083 101.581 137.533 119.138 111.253 137.389C100.855 144.594 99.4077 145.464 87.3435 152.712C87.0374 152.896 86.7245 153.084 86.4044 153.277C85.9174 153.569 85.4139 153.872 84.8927 154.185L86.7042 150.202C90.2267 142.381 92.7262 134.561 92.3832 132.387C91.4003 126.114 86.588 127.559 84.0944 134.899C80.2699 146.228 76.8345 152.977 69.8062 163.244C61.4977 175.381 69.2298 176.043 74.4265 173.407Z" fill="black"/>
</svg>
