<svg width="232" height="176" viewBox="0 0 232 176" fill="none" xmlns="http://www.w3.org/2000/svg">
<path d="M200.489 130.347L200.49 130.344C200.974 128.904 200.85 127.979 200.22 127.324C199.57 126.648 198.272 126.14 196.004 125.757L196 125.756C194.588 125.511 193.426 125.579 192.476 125.915C191.527 126.25 190.722 126.877 190.083 127.845C188.789 129.803 188.24 133.061 188.526 137.685C188.63 139.228 188.688 140.611 188.707 141.599C188.717 142.092 188.716 142.492 188.707 142.765C188.702 142.899 188.695 143.014 188.684 143.096C188.679 143.13 188.67 143.188 188.649 143.242C188.649 143.242 188.649 143.243 188.649 143.244C188.643 143.259 188.609 143.351 188.507 143.432C188.442 143.484 188.3 143.567 188.089 143.566C187.885 143.564 187.751 143.483 187.693 143.439C187.646 143.403 187.602 143.357 187.581 143.335L187.58 143.333C187.549 143.301 187.511 143.259 187.468 143.211C187.381 143.114 187.263 142.979 187.121 142.814C186.835 142.482 186.44 142.018 185.964 141.456C185.535 140.95 185.04 140.363 184.498 139.722L184.321 139.512C183.71 138.788 183.045 138.001 182.354 137.185L182.353 137.184C165.44 117.079 147.783 104.623 102.263 80.8384L102.263 80.8383C53.1735 55.1567 36.1974 41.1656 30.0178 20.8578L30.0178 20.8577C28.599 16.188 25.25 12.7482 22.4196 11.4966C20.9974 10.8677 19.8767 10.8532 19.1502 11.278C18.3814 11.7274 17.781 12.8091 17.8862 14.8658C18.3748 24.4211 24.7613 34.6279 37.3715 45.674C49.9793 56.7179 68.7683 68.5652 93.9661 81.3951L93.9664 81.3953C136.641 103.154 155.595 116.783 173.916 138.811L173.917 138.812C175.808 141.104 177.255 142.884 178.28 144.216C179.292 145.532 179.926 146.454 180.146 147.008C180.202 147.149 180.243 147.296 180.243 147.434C180.243 147.568 180.201 147.768 179.983 147.917C179.762 148.068 179.495 148.076 179.321 148.061C179.143 148.045 178.963 147.996 178.797 147.94C178.149 147.721 177.144 147.181 175.86 146.441C171.147 143.74 165.507 141.009 160.523 138.912C158.031 137.864 155.709 136.976 153.755 136.331C151.783 135.68 150.238 135.293 149.276 135.213C148.62 135.163 148.108 135.165 147.728 135.205C147.339 135.247 147.142 135.323 147.054 135.382C146.993 135.423 146.96 135.468 146.97 135.567C146.983 135.688 147.066 135.878 147.287 136.142C147.727 136.669 148.596 137.357 149.915 138.171C151.225 138.979 152.947 139.893 155.057 140.876L155.058 140.877C171.483 148.571 178.135 152.732 189.675 162.656C196.579 168.583 201.429 170.254 204.101 170.3C205.424 170.322 206.134 169.953 206.41 169.585C206.68 169.224 206.623 168.752 206.108 168.362C205.834 168.154 205.594 167.84 205.379 167.477C205.158 167.106 204.94 166.647 204.726 166.117C204.298 165.056 203.871 163.68 203.46 162.091C202.636 158.911 201.865 154.844 201.257 150.669C200.65 146.493 200.204 142.201 200.036 138.567C199.868 134.955 199.97 131.937 200.489 130.347Z" fill="#DFF183" stroke="black"/>
</svg>
