<svg width="62" height="90" viewBox="0 0 62 90" fill="none" xmlns="http://www.w3.org/2000/svg">
<path d="M56.3633 53.3333C46.7652 53.3333 38.9845 36.9171 38.9845 16.6667C38.9845 36.9171 31.2038 53.3333 21.6057 53.3333C31.2038 53.3333 38.9845 69.7495 38.9845 89.9999C38.9845 69.7495 46.7652 53.3333 56.3633 53.3333Z" fill="#D9FE59"/>
<path fill-rule="evenodd" clip-rule="evenodd" d="M53.4029 53.8632C54.365 53.5148 55.3541 53.3333 56.3633 53.3333C55.3541 53.3333 54.365 53.1518 53.4029 52.8035C46.5851 50.3349 41.1244 39.4864 39.4878 25.4633C39.159 22.6452 38.9845 19.699 38.9845 16.6667C38.9845 19.699 38.81 22.6452 38.4812 25.4633C36.8446 39.4864 31.3839 50.3349 24.5661 52.8035C23.604 53.1518 22.6149 53.3333 21.6057 53.3333C22.6149 53.3333 23.604 53.5148 24.5661 53.8632C31.3839 56.3318 36.8446 67.1802 38.4812 81.2034C38.81 84.0215 38.9845 86.9677 38.9845 89.9999C38.9845 86.9677 39.159 84.0215 39.4878 81.2034C41.1244 67.1802 46.5851 56.3318 53.4029 53.8632ZM38.9845 77.6283C38.0985 72.3319 36.6576 67.5679 34.798 63.6444C32.493 58.7813 29.4489 55.0335 25.8924 53.3333C29.4489 51.6332 32.493 47.8854 34.798 43.0222C36.6576 39.0988 38.0985 34.3348 38.9845 29.0384C39.8705 34.3348 41.3114 39.0988 43.171 43.0222C45.476 47.8854 48.5201 51.6332 52.0766 53.3333C48.5201 55.0335 45.476 58.7813 43.171 63.6444C41.3114 67.5679 39.8705 72.3319 38.9845 77.6283Z" fill="black"/>
<path d="M49.7881 8.33331C53.1604 8.33331 55.8941 4.60236 55.8941 0C55.8941 4.60236 58.6279 8.33331 62.0002 8.33331C58.6279 8.33331 55.8941 12.0643 55.8941 16.6666C55.8941 12.0643 53.1604 8.33331 49.7881 8.33331Z" fill="#D9FE59"/>
<path fill-rule="evenodd" clip-rule="evenodd" d="M51.9795 8.88608C51.2993 8.52902 50.5604 8.33331 49.7881 8.33331C50.5604 8.33331 51.2993 8.13761 51.9795 7.78055C53.4926 6.98628 54.7154 5.39359 55.3708 3.38061C55.7072 2.34741 55.8941 1.2035 55.8941 0C55.8941 1.2035 56.0811 2.34741 56.4175 3.38061C57.0729 5.39359 58.2957 6.98628 59.8088 7.78055C60.489 8.13761 61.2279 8.33331 62.0002 8.33331C61.2279 8.33331 60.489 8.52902 59.8088 8.88608C58.2957 9.68035 57.0729 11.273 56.4175 13.286C56.0811 14.3192 55.8941 15.4631 55.8941 16.6666C55.8941 15.4631 55.7072 14.3192 55.3708 13.286C54.7154 11.273 53.4926 9.68035 51.9795 8.88608ZM55.8941 11.8729C56.1711 11.2624 56.5005 10.6954 56.8759 10.183C57.4145 9.44799 58.0577 8.81484 58.7831 8.33332C58.0577 7.85179 57.4145 7.21864 56.8759 6.48359C56.5005 5.97121 56.1711 5.40423 55.8941 4.79374C55.6172 5.40423 55.2878 5.97121 54.9124 6.48359C54.3738 7.21864 53.7306 7.85179 53.0052 8.33332C53.7306 8.81484 54.3738 9.44799 54.9124 10.183C55.2878 10.6954 55.6172 11.2624 55.8941 11.8729Z" fill="black"/>
<path d="M0 28.3332C5.96635 28.3332 10.803 21.6175 10.803 13.3333C10.803 21.6175 15.6397 28.3332 21.6061 28.3332C15.6397 28.3332 10.803 35.0489 10.803 43.3332C10.803 35.0489 5.96635 28.3332 0 28.3332Z" fill="#D9FE59"/>
<path fill-rule="evenodd" clip-rule="evenodd" d="M2.85989 28.8645C1.94899 28.5181 0.990048 28.3332 0 28.3332C0.990048 28.3332 1.94899 28.1483 2.85989 27.802C6.38039 26.4635 9.18325 22.714 10.2906 17.9114C10.6234 16.4682 10.803 14.9299 10.803 13.3333C10.803 14.9299 10.9827 16.4682 11.3155 17.9114C12.4228 22.714 15.2257 26.4635 18.7462 27.802C19.6571 28.1483 20.616 28.3332 21.6061 28.3332C20.616 28.3332 19.6571 28.5181 18.7462 28.8645C15.2257 30.203 12.4228 33.9524 11.3155 38.755C10.9827 40.1982 10.803 41.7366 10.803 43.3332C10.803 41.7366 10.6234 40.1982 10.2906 38.755C9.18325 33.9524 6.38039 30.203 2.85989 28.8645ZM10.803 36.8611C11.3745 35.1025 12.1737 33.5057 13.1557 32.1422C14.3399 30.4979 15.8084 29.1728 17.4749 28.3332C15.8084 27.4936 14.3399 26.1685 13.1557 24.5242C12.1737 23.1607 11.3745 21.564 10.803 19.8054C10.2316 21.564 9.43237 23.1607 8.45035 24.5242C7.26614 26.1685 5.7977 27.4936 4.13117 28.3332C5.7977 29.1728 7.26614 30.4979 8.45035 32.1422C9.43237 33.5057 10.2316 35.1025 10.803 36.8611Z" fill="black"/>
</svg>
