<svg width="30" height="34" viewBox="0 0 30 34" fill="none" xmlns="http://www.w3.org/2000/svg">
<path d="M11.9821 2.53846C8.94362 -1.2433 4.3612 -0.74199 1.75022 3.65782C-0.857511 8.05218 -0.511567 14.6726 2.52315 18.4497L14.8858 33.8365L14.9828 34L15 33.9786L15.0172 34L15.1142 33.8365L27.4768 18.4497C30.5116 14.6726 30.8575 8.05218 28.2498 3.65782C25.6388 -0.74199 21.0564 -1.2433 18.0179 2.53846L15 6.29459L11.9821 2.53846Z" fill="#FFBFDB"/>
<path fill-rule="evenodd" clip-rule="evenodd" d="M15.1142 33.8365L27.4768 18.4497C30.5116 14.6726 30.8575 8.05218 28.2498 3.65782C25.6388 -0.74199 21.0564 -1.2433 18.0179 2.53846L15 6.29459L11.9821 2.53846C8.94362 -1.2433 4.3612 -0.74199 1.75022 3.65782C-0.857511 8.05218 -0.511567 14.6726 2.52315 18.4497L14.8858 33.8365L14.9828 34L15 33.9786L15.0172 34L15.1142 33.8365ZM14.9999 32.382L3.30271 17.8234C1.94527 16.1339 1.15095 13.7504 1.01941 11.2331C0.888021 8.71871 1.42351 6.16788 2.6102 4.16816C3.79597 2.16999 5.34696 1.18468 6.8146 1.02412C8.26656 0.865277 9.85617 1.48906 11.2026 3.1648L15 7.89117L18.7974 3.1648C20.1438 1.48906 21.7334 0.865277 23.1854 1.02412C24.653 1.18468 26.204 2.16999 27.3898 4.16816C28.5765 6.16788 29.112 8.71871 28.9806 11.2331C28.8491 13.7504 28.0547 16.1339 26.6973 17.8234L14.9999 32.382Z" fill="black"/>
</svg>
