<svg width="226" height="85" viewBox="0 0 226 85" fill="none" xmlns="http://www.w3.org/2000/svg">
<path fill-rule="evenodd" clip-rule="evenodd" d="M214.825 64.0033C222.111 64.3856 223.018 54.4944 223.036 51.0401C223.089 40.8021 226.417 17.9433 223.121 9.33279C219.582 0.089535 187.707 1.80026 174.111 1.50303C133.246 0.609701 94.0742 1.30764 50.5568 1.29488C39.7737 1.29165 28.5368 0.510263 17.9029 1.50464C7.20156 2.5052 3.78716 6.56037 2.67127 12.4707C1.84314 16.8562 1.30991 39.9687 1.06188 47.1091C0.942255 50.546 0.646439 59.2823 4.18138 61.9729C9.34973 65.9067 22.8216 65.2481 28.5966 65.2402C31.8337 65.2356 42.9694 65.0579 58.3414 65.1894C58.8467 65.1937 73.2116 84.1614 73.8911 83.999C74.6095 83.8271 92.0988 65.1003 93.2696 65.0898C137.45 64.6914 190.859 64.618 210.753 63.9794" fill="white"/>
<path d="M214.825 64.0033C222.111 64.3856 223.018 54.4944 223.036 51.0401C223.089 40.8021 226.417 17.9433 223.121 9.33279C219.582 0.089535 187.707 1.80026 174.111 1.50303C133.246 0.609701 94.0742 1.30764 50.5568 1.29488C39.7737 1.29165 28.5368 0.510263 17.9029 1.50464C7.20156 2.5052 3.78716 6.56037 2.67127 12.4707C1.84314 16.8562 1.30991 39.9687 1.06188 47.1091C0.942255 50.546 0.646439 59.2823 4.18138 61.9729C9.34973 65.9067 22.8216 65.2481 28.5966 65.2402C31.8337 65.2356 42.9694 65.0579 58.3414 65.1894C58.8467 65.1937 73.2116 84.1614 73.8911 83.999C74.6095 83.8271 92.0988 65.1003 93.2696 65.0898C137.45 64.6914 190.859 64.618 210.753 63.9794" stroke="#373F47" stroke-miterlimit="1.5" stroke-linecap="round" stroke-linejoin="round"/>
<path d="M36.2763 32.926L36.6503 32.068C37.9263 32.0973 38.975 32.2953 39.7963 32.662C40.6323 33.014 41.2556 33.5127 41.6663 34.158C42.077 34.7887 42.2823 35.522 42.2823 36.358C42.2823 37.2527 42.077 38.052 41.6663 38.756C41.2556 39.4453 40.6396 39.9953 39.8183 40.406C39.0116 40.802 37.9996 41 36.7823 41H24.5943L25.8703 32.53L24.5943 24.5H36.3423C37.8676 24.5 39.0556 24.8593 39.9063 25.578C40.757 26.282 41.1823 27.2647 41.1823 28.526C41.1823 29.2153 41.021 29.8753 40.6983 30.506C40.3756 31.1367 39.855 31.672 39.1363 32.112C38.4323 32.5373 37.479 32.8087 36.2763 32.926ZM29.1043 39.944L27.3443 37.81H35.5503C36.2103 37.81 36.7236 37.6487 37.0903 37.326C37.457 37.0033 37.6403 36.556 37.6403 35.984C37.6403 35.412 37.4423 34.9573 37.0463 34.62C36.6503 34.268 36.0636 34.092 35.2863 34.092H28.5103V30.968H34.6703C35.1983 30.968 35.6383 30.814 35.9903 30.506C36.357 30.1833 36.5403 29.7507 36.5403 29.208C36.5403 28.768 36.3863 28.4087 36.0783 28.13C35.7703 27.8367 35.3303 27.69 34.7583 27.69H27.3663L29.1043 25.556L30.2263 32.53L29.1043 39.944ZM58.6242 31.1V34.4H46.5462V31.1H58.6242ZM49.6482 32.75L48.5702 39.372L46.7222 37.304H59.3502V41H44.0162L45.2702 32.75L44.0162 24.5H59.2402V28.196H46.7222L48.5702 26.128L49.6482 32.75ZM61.241 35.588H65.883C65.9563 36.0427 66.169 36.4387 66.521 36.776C66.873 37.1133 67.3423 37.3773 67.929 37.568C68.5303 37.744 69.2343 37.832 70.041 37.832C71.1556 37.832 72.0356 37.6927 72.681 37.414C73.3263 37.1207 73.649 36.6953 73.649 36.138C73.649 35.7127 73.4656 35.3827 73.099 35.148C72.7323 34.9133 72.0283 34.7447 70.987 34.642L67.907 34.356C65.6336 34.1507 63.9836 33.6373 62.957 32.816C61.9303 31.98 61.417 30.858 61.417 29.45C61.417 28.306 61.747 27.338 62.407 26.546C63.0816 25.754 64.0203 25.16 65.223 24.764C66.4403 24.3533 67.8556 24.148 69.469 24.148C71.053 24.148 72.461 24.3753 73.693 24.83C74.925 25.27 75.9003 25.9007 76.619 26.722C77.3523 27.5433 77.7483 28.4967 77.807 29.582H73.187C73.1283 29.186 72.9376 28.8487 72.615 28.57C72.307 28.2767 71.8816 28.0567 71.339 27.91C70.7963 27.7487 70.1436 27.668 69.381 27.668C68.3543 27.668 67.5403 27.8073 66.939 28.086C66.3376 28.35 66.037 28.746 66.037 29.274C66.037 29.6553 66.213 29.9633 66.565 30.198C66.9316 30.4327 67.5843 30.594 68.523 30.682L71.801 31.012C73.3703 31.1587 74.6243 31.4153 75.563 31.782C76.5016 32.134 77.1836 32.6253 77.609 33.256C78.0343 33.8867 78.247 34.6713 78.247 35.61C78.247 36.7687 77.9023 37.7807 77.213 38.646C76.5236 39.4967 75.5556 40.164 74.309 40.648C73.0623 41.1173 71.6103 41.352 69.953 41.352C68.2516 41.352 66.7483 41.1173 65.443 40.648C64.1523 40.164 63.1403 39.4893 62.407 38.624C61.6736 37.744 61.285 36.732 61.241 35.588ZM85.1199 26.502H89.6959V41H85.1199V26.502ZM78.8279 24.5H95.9879V28.548H78.8279V24.5ZM96.8191 35.588H101.461C101.534 36.0427 101.747 36.4387 102.099 36.776C102.451 37.1133 102.92 37.3773 103.507 37.568C104.108 37.744 104.812 37.832 105.619 37.832C106.734 37.832 107.614 37.6927 108.259 37.414C108.904 37.1207 109.227 36.6953 109.227 36.138C109.227 35.7127 109.044 35.3827 108.677 35.148C108.31 34.9133 107.606 34.7447 106.565 34.642L103.485 34.356C101.212 34.1507 99.5618 33.6373 98.5351 32.816C97.5084 31.98 96.9951 30.858 96.9951 29.45C96.9951 28.306 97.3251 27.338 97.9851 26.546C98.6598 25.754 99.5984 25.16 100.801 24.764C102.018 24.3533 103.434 24.148 105.047 24.148C106.631 24.148 108.039 24.3753 109.271 24.83C110.503 25.27 111.478 25.9007 112.197 26.722C112.93 27.5433 113.326 28.4967 113.385 29.582H108.765C108.706 29.186 108.516 28.8487 108.193 28.57C107.885 28.2767 107.46 28.0567 106.917 27.91C106.374 27.7487 105.722 27.668 104.959 27.668C103.932 27.668 103.118 27.8073 102.517 28.086C101.916 28.35 101.615 28.746 101.615 29.274C101.615 29.6553 101.791 29.9633 102.143 30.198C102.51 30.4327 103.162 30.594 104.101 30.682L107.379 31.012C108.948 31.1587 110.202 31.4153 111.141 31.782C112.08 32.134 112.762 32.6253 113.187 33.256C113.612 33.8867 113.825 34.6713 113.825 35.61C113.825 36.7687 113.48 37.7807 112.791 38.646C112.102 39.4967 111.134 40.164 109.887 40.648C108.64 41.1173 107.188 41.352 105.531 41.352C103.83 41.352 102.326 41.1173 101.021 40.648C99.7304 40.164 98.7184 39.4893 97.9851 38.624C97.2518 37.744 96.8631 36.732 96.8191 35.588ZM130.146 31.1V34.4H118.068V31.1H130.146ZM121.17 32.75L120.092 39.372L118.244 37.304H130.872V41H115.538L116.792 32.75L115.538 24.5H130.762V28.196H118.244L120.092 26.128L121.17 32.75ZM138.064 24.5V38.976L136.018 36.952H148.36V41H133.51V24.5H138.064ZM154.865 24.5V38.976L152.819 36.952H165.161V41H150.311V24.5H154.865ZM181.214 31.1V34.4H169.136V31.1H181.214ZM172.238 32.75L171.16 39.372L169.312 37.304H181.94V41H166.606L167.86 32.75L166.606 24.5H181.83V28.196H169.312L171.16 26.128L172.238 32.75ZM187.725 31.716H193.731C194.464 31.716 195.036 31.5473 195.447 31.21C195.857 30.8727 196.063 30.4033 196.063 29.802C196.063 29.186 195.857 28.7167 195.447 28.394C195.036 28.0567 194.464 27.888 193.731 27.888H187.087L189.133 25.71V41H184.579V24.5H194.369C195.63 24.5 196.73 24.7273 197.669 25.182C198.607 25.622 199.341 26.238 199.869 27.03C200.397 27.8073 200.661 28.7313 200.661 29.802C200.661 30.8433 200.397 31.76 199.869 32.552C199.341 33.344 198.607 33.96 197.669 34.4C196.73 34.84 195.63 35.06 194.369 35.06H187.725V31.716ZM190.189 33.278H195.315L201.233 41H195.953L190.189 33.278Z" fill="#373F47"/>
</svg>
