<svg width="123" height="85" viewBox="0 0 123 85" fill="none" xmlns="http://www.w3.org/2000/svg">
<path fill-rule="evenodd" clip-rule="evenodd" d="M116.723 64.0033C120.666 64.3856 121.157 54.4944 121.167 51.0401C121.195 40.8021 122.997 17.9433 121.213 9.33279C119.298 0.089535 102.047 1.80026 94.6886 1.50303C72.5723 0.609701 51.3722 1.30764 27.8204 1.29488C21.9845 1.29165 15.9031 0.510263 10.1479 1.50464C4.35631 2.5052 2.50842 6.56037 1.9045 12.4707C1.45631 16.8562 1.16772 39.9687 1.03349 47.1091C0.968748 50.546 0.808651 59.2823 2.72178 61.9729C5.51891 65.9067 12.8099 65.2481 15.9354 65.2402C17.6873 65.2356 23.714 65.0579 32.0334 65.1894C32.3069 65.1937 40.0813 84.1614 40.449 83.999C40.8378 83.8271 50.3031 65.1003 50.9367 65.0898C74.8476 64.6914 103.753 64.618 114.519 63.9794" fill="white"/>
<path d="M116.723 64.0033C120.666 64.3856 121.157 54.4944 121.167 51.0401C121.195 40.8021 122.997 17.9433 121.213 9.33279C119.298 0.089535 102.047 1.80026 94.6886 1.50303C72.5723 0.609701 51.3722 1.30764 27.8204 1.29488C21.9845 1.29165 15.9031 0.510263 10.1479 1.50464C4.35631 2.5052 2.50842 6.56037 1.9045 12.4707C1.45631 16.8562 1.16772 39.9687 1.03349 47.1091C0.968748 50.546 0.808651 59.2823 2.72178 61.9729C5.51891 65.9067 12.8099 65.2481 15.9354 65.2402C17.6873 65.2356 23.714 65.0579 32.0334 65.1894C32.3069 65.1937 40.0813 84.1614 40.449 83.999C40.8378 83.8271 50.3031 65.1003 50.9367 65.0898C74.8476 64.6914 103.753 64.618 114.519 63.9794" stroke="#373F47" stroke-miterlimit="1.5" stroke-linecap="round" stroke-linejoin="round"/>
</svg>
