<svg width="70" height="126" viewBox="0 0 70 126" fill="none" xmlns="http://www.w3.org/2000/svg">
<path d="M41.5075 25.1129C43.93 22.9346 46.0161 21.1691 47.588 19.9527C48.3751 19.3436 49.0249 18.8787 49.519 18.5695C49.7667 18.4145 49.9654 18.3049 50.1165 18.2361C50.2389 18.1803 50.3001 18.1655 50.3169 18.1614C50.3199 18.1607 50.3215 18.1603 50.3217 18.1601C50.5493 18.1708 50.6278 18.2177 50.6463 18.231C50.65 18.2536 50.6509 18.3166 50.6049 18.4515C50.5276 18.6784 50.3493 19.0034 50.0327 19.4388C49.7207 19.868 49.2937 20.3785 48.7454 20.9735C46.5462 23.36 42.513 26.9818 36.5464 31.9403C30.9645 36.5754 28.0284 38.9823 26.4328 40.0075C26.0376 40.2614 25.7473 40.4155 25.534 40.4982C25.3155 40.583 25.2292 40.5725 25.2126 40.5686C25.2092 40.5678 25.209 40.5677 25.2083 40.567C25.2081 40.5668 25.2079 40.5667 25.2077 40.5665C25.2041 40.5634 25.1903 40.5505 25.17 40.5143C25.1246 40.433 25.0795 40.2968 25.0288 40.0704C24.9774 39.8401 24.9602 39.7361 24.964 39.6548C24.9663 39.6048 24.9769 39.5464 25.0528 39.4347C25.1402 39.3061 25.2993 39.1298 25.5914 38.8603C25.8795 38.5945 26.2719 38.2604 26.8066 37.8152C27.0737 37.5928 27.374 37.3445 27.7113 37.0657C30.0731 35.1131 34.2472 31.6621 41.5075 25.1129ZM50.6433 18.2208C50.6435 18.2206 50.6444 18.2222 50.6453 18.2261C50.6435 18.2228 50.6431 18.2209 50.6433 18.2208Z" fill="#DFF183" stroke="black"/>
<path d="M16.4011 27.0783C17.0085 26.2916 17.3372 25.895 17.5579 25.7084C17.6182 25.6574 17.6535 25.6373 17.6689 25.6299C17.6697 25.6302 17.6705 25.6305 17.6714 25.6307C17.6765 25.6454 17.6829 25.6684 17.6891 25.7024C17.7126 25.8307 17.7149 26.033 17.6815 26.3102C17.6155 26.8585 17.4256 27.5798 17.1587 28.3183C16.8925 29.0546 16.5603 29.7788 16.2247 30.3337C16.0566 30.6118 15.8955 30.8342 15.7504 30.9919C15.6014 31.154 15.5068 31.2065 15.4721 31.2184C15.3473 31.2532 15.2789 31.2433 15.2466 31.233C15.2177 31.2238 15.1861 31.2045 15.1517 31.1522C15.0694 31.0267 15.0016 30.7496 15.0412 30.2945C15.1183 29.4075 15.5781 28.1587 16.4011 27.0783ZM17.6776 25.6262C17.6779 25.6261 17.6781 25.6261 17.6781 25.6261C17.6781 25.6261 17.6779 25.6261 17.6776 25.6262C17.6776 25.6262 17.6776 25.6262 17.6776 25.6262ZM17.6635 25.6116C17.6621 25.6096 17.6615 25.6085 17.6615 25.6084C17.6616 25.6083 17.6623 25.6093 17.6635 25.6116ZM17.661 25.6278C17.6595 25.6277 17.6587 25.6276 17.6587 25.6275C17.6587 25.6275 17.6594 25.6275 17.661 25.6278Z" fill="#DFF183" stroke="black"/>
<path d="M7.29448 23.7846L7.29445 23.7847C7.09498 25.1179 6.91623 26.1773 6.74441 26.9966C6.57068 27.8249 6.41085 28.3728 6.25961 28.7033C6.20258 28.828 6.15842 28.898 6.12953 28.936C6.12179 28.9309 6.11306 28.9248 6.10334 28.9175C6.03144 28.8638 5.93667 28.7699 5.81742 28.6208C5.51524 28.2172 5.35082 27.8276 5.33669 26.9984C5.32175 26.1215 5.47654 24.801 5.82117 22.5544L5.8212 22.5542C6.65709 17.0917 7.32953 11.5558 7.49571 8.55792C7.55355 7.69434 7.6224 7.00654 7.7073 6.47464C7.79398 5.93157 7.89128 5.59357 7.98574 5.40343C8.00883 5.35695 8.02721 5.32731 8.04043 5.30898C8.08672 5.3264 8.19015 5.3785 8.36236 5.53301L8.36231 5.53307L8.3688 5.53868C8.5708 5.71322 8.77002 6.06708 8.89092 6.79704C9.01088 7.52127 9.0428 8.54737 8.97138 9.97903C8.82869 12.8396 8.28042 17.209 7.29448 23.7846ZM6.09033 28.9772C6.0903 28.9768 6.09258 28.9748 6.09731 28.9723C6.09274 28.9763 6.09037 28.9775 6.09033 28.9772ZM8.06497 5.28237C8.06503 5.28307 8.06209 5.2862 8.05599 5.28966C8.06186 5.2834 8.06491 5.28167 8.06497 5.28237Z" fill="#DFF183" stroke="black"/>
<path d="M45.4963 43.7288L45.4992 43.7274C47.5747 42.7155 50.0672 41.4245 51.0093 40.861C52.9054 39.7351 55.4225 38.3908 57.5585 37.3307C58.6266 36.8007 59.5938 36.3445 60.3366 36.0233C60.7088 35.8624 61.0182 35.7383 61.2528 35.6559C61.3703 35.6147 61.4625 35.5863 61.5306 35.569C61.58 35.5565 61.6035 35.5533 61.6082 35.5525C61.6891 35.5559 61.756 35.5624 61.8106 35.5707C61.7228 35.6881 61.5738 35.8503 61.3406 36.0598C61.0308 36.3383 60.6067 36.6704 60.0618 37.0576C57.8763 38.6106 53.8997 40.9439 48.0791 44.0855L48.0789 44.0856L47.8895 44.1879C46.3119 45.0403 45.1266 45.6806 44.2285 46.1449C43.2866 46.6318 42.6924 46.9081 42.3075 47.0344C42.1127 47.0983 42.0133 47.1096 41.9695 47.1099C41.9631 47.0961 41.9548 47.0755 41.945 47.046C41.9158 46.958 41.891 46.8468 41.8536 46.6798L41.8498 46.6628C41.7701 46.3064 41.7489 46.1216 41.77 45.9874C41.7845 45.8944 41.8253 45.7855 42.0163 45.6141C42.2246 45.427 42.572 45.2022 43.1502 44.8923C43.7217 44.586 44.4829 44.215 45.4963 43.7288ZM41.9403 47.1072C41.9405 47.1071 41.9425 47.1074 41.9458 47.1086C41.9419 47.108 41.9402 47.1074 41.9403 47.1072Z" fill="#DFF183" stroke="black"/>
<path d="M25.9402 18.1078L25.9402 18.1079C25.1028 19.2753 24.47 20.1312 23.9795 20.7189C23.7344 21.0126 23.5344 21.2278 23.3701 21.3775C23.22 21.5143 23.1231 21.5746 23.0698 21.5986C23.0516 21.5761 23.0228 21.5344 22.9868 21.4609C22.8489 21.18 22.7216 20.6912 22.555 19.9461C22.3982 19.2447 22.6101 18.6752 23.1303 17.9186C23.3443 17.6073 23.5964 17.2843 23.8841 16.9157C23.9543 16.8258 24.0266 16.7332 24.101 16.6373C24.4721 16.1592 24.8813 15.6182 25.2903 14.9875C27.8893 11.4534 29.8532 8.40536 31.346 6.08845C31.7361 5.48291 32.0941 4.92731 32.4228 4.42603C33.2256 3.20191 33.8335 2.33393 34.3078 1.83041C34.5479 1.57551 34.7106 1.46174 34.8075 1.4221C34.845 1.40674 34.8566 1.40593 34.8633 1.40973L34.8628 1.41027L34.8629 1.41031C34.8641 1.41133 34.8789 1.42327 34.8951 1.47033C34.9126 1.52116 34.9283 1.60411 34.9294 1.73019C34.9316 1.98601 34.8733 2.35086 34.737 2.8305C34.4657 3.78501 33.9191 5.07953 33.1269 6.63545C31.546 9.74023 29.0303 13.8022 25.9402 18.1078Z" fill="#DFF183" stroke="black"/>
<path d="M51.3138 101.331L51.3134 101.331C50.3405 100.758 46.4095 98.7627 42.5888 96.8857L42.5873 96.885C38.2149 94.7572 35.7342 93.4365 34.479 92.4323C33.8499 91.9289 33.6047 91.5624 33.5335 91.2864C33.4715 91.0461 33.5198 90.7848 33.7608 90.3907C33.7604 90.3913 33.7602 90.3917 33.7603 90.3917C33.7615 90.3928 33.8522 90.2911 34.2818 90.2808C34.6986 90.2707 35.2829 90.3528 36.0215 90.5338C37.4913 90.8938 39.4636 91.6175 41.7097 92.6114C46.1975 94.5972 51.7104 97.6309 56.3601 100.882L56.3622 100.884C56.9758 101.308 57.1878 101.822 57.1711 102.191C57.1561 102.521 56.9548 102.855 56.4229 103.007C56.0497 103.114 55.3607 103.057 54.4171 102.761C53.4999 102.474 52.4217 101.985 51.3138 101.331Z" fill="#DFF183" stroke="black"/>
<path d="M66.544 61.3981L66.546 61.398C67.3585 61.3752 67.8235 61.5681 68.0642 61.7893C68.2917 61.9984 68.3708 62.2787 68.3172 62.5994C68.204 63.2764 67.4693 64.1368 66.2572 64.3263C62.6862 64.8285 55.6314 65.5004 49.3989 65.9963C46.2835 66.2442 43.3793 66.4476 41.2251 66.5636C40.1471 66.6216 39.2618 66.6575 38.6332 66.6663C38.3177 66.6708 38.0749 66.6682 37.9077 66.6593C37.8582 66.6566 37.8189 66.6536 37.7887 66.6505C37.6666 66.5109 37.5691 66.2553 37.5621 65.9003C37.5542 65.5026 37.665 65.0791 37.8711 64.7647C38.0492 64.4981 38.1528 64.3508 38.258 64.2453C38.3451 64.1578 38.4396 64.0937 38.6083 64.0373C38.7943 63.9752 39.0628 63.9251 39.4968 63.8783C39.927 63.832 40.487 63.7917 41.2456 63.7384L41.2462 63.7383C48.8518 63.1941 54.4173 62.6266 58.4665 62.1859C59.2721 62.0982 60.0162 62.0158 60.7032 61.9397C63.4834 61.6316 65.3293 61.4271 66.544 61.3981Z" fill="#DFF183" stroke="black"/>
<path d="M41.1333 116.552L41.1335 116.552C42.2502 118.38 42.8473 119.601 43.0206 120.391C43.1065 120.782 43.0686 120.985 43.0206 121.084C42.991 121.145 42.9327 121.218 42.7863 121.284C42.7262 121.243 42.6447 121.18 42.5402 121.091C42.2782 120.867 41.9218 120.52 41.4842 120.064C40.6118 119.153 39.4485 117.84 38.1319 116.284C35.4997 113.173 32.2721 109.115 29.564 105.425L29.564 105.425L26.0342 100.616C25.6636 100.1 25.56 99.3104 25.6862 98.6713C25.7491 98.3529 25.8582 98.1295 25.9633 98.0102C26.0492 97.9129 26.1122 97.8977 26.1944 97.9159L26.1944 97.916L26.2008 97.9173C26.2008 97.9173 26.2062 97.9185 26.2176 97.9227C26.2298 97.9272 26.2465 97.9342 26.268 97.9447C26.3116 97.9661 26.3675 97.9982 26.4363 98.0438C26.5745 98.1354 26.7461 98.2686 26.9501 98.4451C27.3573 98.7975 27.866 99.2981 28.4527 99.9204C29.6247 101.163 31.083 102.865 32.623 104.773C35.7046 108.589 39.0885 113.198 41.1333 116.552Z" fill="#DFF183" stroke="black"/>
<path d="M54.5329 78.587L54.5346 78.5875L65.1682 80.8946L65.0522 81.3929C65.0525 81.3929 65.0528 81.393 65.0532 81.3931C65.3545 81.4523 65.4999 81.5993 65.5687 81.7416C65.6437 81.8967 65.6503 82.0939 65.5874 82.2765C65.5247 82.4582 65.4069 82.5891 65.2706 82.6491C65.1451 82.7043 64.9285 82.7323 64.6044 82.5598C64.4662 82.48 64.2208 82.3861 63.9454 82.2896C63.6441 82.1841 63.2554 82.0584 62.8075 81.9206C61.9114 81.6448 60.7667 81.317 59.5872 80.9999C54.1651 79.5256 50.0826 78.3003 47.5327 77.3965C46.8901 77.1687 46.3523 76.9639 45.9187 76.7832C46.6376 76.8812 47.5471 77.0327 48.5295 77.2165C50.6048 77.6045 52.9775 78.131 54.5329 78.587ZM44.5288 76.6722C44.5288 76.6722 44.5289 76.6722 44.5289 76.6722C44.5289 76.6722 44.529 76.6722 44.529 76.6722C44.529 76.6722 44.5289 76.6722 44.5288 76.6722Z" fill="#DFF183" stroke="black"/>
</svg>
