<svg width="40" height="39" viewBox="0 0 40 39" fill="none" xmlns="http://www.w3.org/2000/svg">
<path d="M20.8981 6.18105C18.8858 2.00628 14.1168 0.86556 10.2495 3.634C6.38694 6.399 4.88583 12.0174 6.89558 16.187L15.0828 33.1728L15.1351 33.3416L15.1584 33.3297L15.1698 33.3533L15.3135 33.2504L32.1026 24.667C36.2239 22.56 38.4239 17.1767 37.018 12.6393C35.6104 8.09634 31.1215 6.12256 26.9951 8.23219L22.8967 10.3275L20.8981 6.18105Z" fill="#FFBFDB"/>
<path fill-rule="evenodd" clip-rule="evenodd" d="M15.3135 33.2504L15.1703 33.3529L15.1584 33.3297L15.1351 33.3416L15.0828 33.1728L6.89558 16.187C4.88583 12.0174 6.38694 6.399 10.2495 3.634C14.1168 0.86556 18.8858 2.00628 20.8981 6.18105L22.8967 10.3275L26.9951 8.23219C31.1215 6.12256 35.6104 8.09634 37.018 12.6393C38.4239 17.1767 36.2239 22.56 32.1026 24.667L15.3135 33.2504ZM15.6148 31.9732L31.6474 23.7766C35.319 21.8995 37.3304 17.0265 36.0628 12.9353C35.4377 10.9178 34.1512 9.52813 32.6236 8.85644C31.0988 8.18599 29.2599 8.19742 27.4503 9.12257L22.4404 11.6839L19.9973 6.61524C19.1148 4.78445 17.6567 3.66386 16.0368 3.27638C14.4139 2.88819 12.549 3.21769 10.8315 4.44713C7.34882 6.94024 6.00595 12.0381 7.7964 15.7528L15.6148 31.9732Z" fill="black"/>
</svg>
