<svg width="62" height="90" viewBox="0 0 62 90" fill="none" xmlns="http://www.w3.org/2000/svg">
<path d="M38.9845 81.2032C39.7565 74.5415 41.3866 68.5765 43.6228 63.8586C46.1585 58.5088 49.532 54.6547 53.3981 53.3333C49.532 52.0119 46.1585 48.1579 43.6228 42.8081C41.3866 38.0901 39.7565 32.1251 38.9845 25.4635C38.2125 32.1251 36.5823 38.0901 34.3462 42.8081C31.8105 48.1579 28.4369 52.0119 24.5709 53.3333C28.4369 54.6547 31.8105 58.5088 34.3462 63.8586C36.5823 68.5765 38.2125 74.5415 38.9845 81.2032Z" fill="#D9FE59" stroke="black"/>
<path d="M55.8939 13.2822C55.5693 12.2321 55.0972 11.2816 54.5088 10.4786C53.8199 9.53835 52.9624 8.79065 51.9908 8.33332C52.9624 7.87598 53.8199 7.12827 54.5088 6.18807C55.0972 5.38501 55.5693 4.43451 55.8939 3.38443C56.2185 4.43451 56.6906 5.38501 57.279 6.18807C57.9679 7.12827 58.8254 7.87598 59.797 8.33332C58.8254 8.79065 57.9679 9.53835 57.279 10.4786C56.6906 11.2816 56.2185 12.2321 55.8939 13.2822Z" fill="#D9FE59" stroke="black"/>
<path d="M10.803 38.7537C10.2628 36.3477 9.30702 34.1874 8.04462 32.4345C6.65327 30.5026 4.87596 29.0511 2.86518 28.3333C4.87596 27.6156 6.65327 26.164 8.04462 24.2322C9.30702 22.4793 10.2628 20.319 10.803 17.913C11.3432 20.319 12.299 22.4793 13.5614 24.2322C14.9528 26.164 16.7301 27.6156 18.7409 28.3333C16.7301 29.0511 14.9528 30.5026 13.5614 32.4345C12.299 34.1874 11.3432 36.3477 10.803 38.7537Z" fill="#D9FE59" stroke="black"/>
</svg>
