<svg width="136" height="165" viewBox="0 0 136 165" fill="none" xmlns="http://www.w3.org/2000/svg">
<path d="M81.568 124.779C80.382 128.277 79.3005 131.176 78.4234 133.244C77.9842 134.279 77.6006 135.095 77.2845 135.67C77.126 135.958 76.9904 136.175 76.8788 136.326C76.7819 136.457 76.727 136.504 76.714 136.515C76.7104 136.518 76.71 136.518 76.7127 136.517L76.9093 136.99M81.568 124.779L82.1476 114.872C75.8649 131.259 74.1857 138.279 76.9093 136.99M81.568 124.779C85.1102 114.276 87.3174 108.563 88.5665 105.331C88.7448 104.869 88.9037 104.458 89.0441 104.091C89.3251 103.355 89.5278 102.807 89.6656 102.383C89.805 101.954 89.8667 101.684 89.883 101.498C89.8975 101.333 89.8752 101.25 89.8405 101.176C89.7929 101.075 89.7097 100.965 89.5359 100.755C89.3624 100.546 89.2362 100.418 89.1349 100.349C89.0498 100.291 89.0199 100.298 89.01 100.301L89.009 100.301C88.9795 100.308 88.8845 100.348 88.7157 100.549C88.5501 100.747 88.3485 101.058 88.0994 101.524C87.0944 103.407 85.5291 107.409 82.5887 115.069L81.568 124.779ZM76.9093 136.99L76.7219 136.512C76.4258 136.653 76.3143 136.616 76.2963 136.608C76.2963 136.608 76.2963 136.608 76.2963 136.608C76.2944 136.607 76.2155 136.57 76.1652 136.281C76.1152 135.994 76.1143 135.556 76.1875 134.942C76.26 134.334 76.4008 133.584 76.6141 132.686C77.4692 129.084 79.4473 123.263 82.5886 115.069L76.9093 136.99Z" fill="#D9FE59" stroke="black"/>
<path d="M105.057 109.835C104.891 110.959 104.784 111.545 104.667 111.858C104.627 111.965 104.598 112.004 104.589 112.015C104.582 112.017 104.567 112.02 104.541 112.022C104.526 112.012 104.492 111.984 104.44 111.916C104.338 111.783 104.221 111.564 104.101 111.256C103.864 110.645 103.656 109.793 103.516 108.889C103.375 107.986 103.306 107.061 103.333 106.308C103.346 105.931 103.384 105.613 103.441 105.37C103.5 105.12 103.567 105.01 103.6 104.974C103.706 104.871 103.784 104.841 103.832 104.834C103.878 104.827 103.936 104.833 104.014 104.879C104.191 104.983 104.42 105.262 104.632 105.761C105.048 106.739 105.277 108.285 105.057 109.835ZM104.595 112.013C104.595 112.013 104.594 112.013 104.592 112.014C104.594 112.013 104.595 112.013 104.595 112.013Z" fill="#D9FE59" stroke="black"/>
<path d="M115.632 108.527L115.632 108.527C115.103 107.045 114.701 105.856 114.423 104.917C114.143 103.97 113.999 103.313 113.966 102.883C113.952 102.695 113.962 102.582 113.975 102.521C113.993 102.522 114.019 102.524 114.053 102.531C114.161 102.551 114.312 102.602 114.513 102.697C115.048 102.969 115.436 103.304 115.911 104.173C116.407 105.082 116.976 106.535 117.859 109.034L117.859 109.034C120.009 115.113 122.358 121.18 123.822 124.361C124.236 125.285 124.543 126.035 124.751 126.633C124.962 127.242 125.055 127.653 125.066 127.912C125.07 128.003 125.065 128.054 125.059 128.082C125.04 128.086 125.009 128.09 124.959 128.088C124.868 128.086 124.741 128.066 124.571 128.018L124.571 128.018L124.563 128.015C124.243 127.932 123.838 127.647 123.316 126.945C122.799 126.249 122.206 125.196 121.497 123.676C120.08 120.639 118.24 115.834 115.632 108.527ZM125.048 128.108C125.048 128.107 125.049 128.102 125.055 128.095C125.052 128.105 125.049 128.109 125.048 128.108Z" fill="#D9FE59" stroke="black"/>
<path d="M56.4208 124.802L56.2324 124.325C56.0679 124.404 55.9584 124.437 55.8916 124.45C55.8946 124.281 55.9501 123.991 56.0996 123.551C56.2521 123.101 56.4872 122.538 56.8101 121.857C58.105 119.125 60.7277 114.667 64.7136 108.427L64.7138 108.427L64.8435 108.224C65.9233 106.532 66.7348 105.26 67.3611 104.318C68.0177 103.331 68.4501 102.738 68.7599 102.407C68.9549 102.199 69.0526 102.148 69.0868 102.137C69.1015 102.145 69.1353 102.168 69.1937 102.226C69.2738 102.306 69.3616 102.411 69.4861 102.562L69.502 102.581C69.7729 102.908 69.907 103.102 69.9668 103.273C70.0126 103.404 70.027 103.557 69.9312 103.839C69.8272 104.145 69.6072 104.559 69.21 105.177C68.817 105.788 68.2736 106.564 67.5468 107.587L67.5448 107.59C66.0646 109.703 64.329 112.318 63.7147 113.383C62.4713 115.523 60.7393 118.207 59.2258 120.402C58.469 121.499 57.7705 122.468 57.218 123.183C56.9412 123.54 56.7055 123.829 56.5201 124.035C56.4272 124.138 56.3519 124.216 56.2938 124.27C56.2441 124.315 56.2218 124.33 56.222 124.33C56.222 124.331 56.2246 124.329 56.2294 124.327L56.4208 124.802ZM56.4208 124.802C57.1585 124.445 61.6145 117.967 64.1186 113.658C64.7197 112.616 66.4438 110.017 67.9242 107.903C70.8274 103.816 70.924 103.516 69.8583 102.23C69.5883 101.904 69.3939 101.662 69.1664 101.62C68.5434 101.503 67.6726 102.882 64.3218 108.133C56.3506 120.611 53.7633 126.067 56.4208 124.802ZM69.1013 102.134C69.1012 102.135 69.0979 102.136 69.092 102.135C69.0985 102.133 69.1015 102.134 69.1013 102.134Z" fill="#D9FE59" stroke="black"/>
<path d="M103.409 126.953C103.475 125.947 103.611 125.066 103.731 124.281C104.015 122.434 104.217 121.116 103.246 119.945C101.021 117.261 100.738 117.335 99.9997 123.879C98.6292 136.003 98.9749 145.985 100.791 146.409M103.409 126.953L102.936 126.887C102.935 126.893 102.934 126.898 102.934 126.904M103.409 126.953L102.932 126.92C102.933 126.915 102.933 126.909 102.934 126.904M103.409 126.953C102.789 131.93 102.525 136.073 102.324 139.24C102.017 144.066 101.854 146.624 100.791 146.409M102.934 126.904C102.991 126.043 103.097 125.275 103.2 124.59C103.22 124.453 103.241 124.321 103.261 124.192C103.342 123.663 103.413 123.197 103.454 122.762C103.552 121.708 103.453 120.975 102.89 120.296C102.324 119.614 101.926 119.163 101.627 118.935C101.51 118.846 101.442 118.817 101.411 118.808M102.934 126.904C102.312 131.893 102.047 136.052 101.846 139.215C101.794 140.042 101.745 140.801 101.696 141.489C101.576 143.167 101.453 144.383 101.261 145.154C101.164 145.544 101.064 145.752 100.987 145.849C100.953 145.89 100.935 145.897 100.933 145.898L100.933 145.898C100.933 145.898 100.933 145.898 100.932 145.898C100.931 145.899 100.921 145.903 100.89 145.898M101.411 118.808C101.421 118.797 101.425 118.795 101.425 118.795C101.424 118.796 101.422 118.797 101.418 118.799C101.413 118.801 101.407 118.803 101.402 118.804C101.397 118.804 101.394 118.804 101.394 118.804L101.395 118.804C101.397 118.805 101.403 118.805 101.411 118.808ZM101.411 118.808C101.411 118.809 101.41 118.81 101.409 118.811C101.368 118.857 101.297 118.974 101.214 119.224C101.134 119.467 101.054 119.795 100.974 120.226C100.813 121.088 100.659 122.301 100.474 123.938L100.474 123.938C99.7912 129.981 99.5374 135.479 99.6783 139.507C99.7489 141.525 99.9179 143.152 100.173 144.287C100.301 144.857 100.445 145.275 100.593 145.551C100.74 145.825 100.85 145.886 100.89 145.898M100.89 145.898C100.888 145.898 100.885 145.897 100.882 145.897L100.791 146.409M100.89 145.898C100.892 145.899 100.894 145.899 100.895 145.9L100.791 146.409" fill="#D9FE59" stroke="black"/>
<path d="M30.4815 50.8726L30.4819 50.8727C31.742 50.9651 36.6681 51.0088 41.4258 50.9867L41.4275 50.9866C46.8573 50.9405 50.0091 51.0311 51.7914 51.4267C52.6829 51.6245 53.1458 51.8823 53.3876 52.1563C53.6069 52.4047 53.7016 52.7333 53.6795 53.2735C53.6793 53.2787 53.6562 53.4422 53.2118 53.6903C52.8057 53.9169 52.1858 54.1333 51.3634 54.3261C49.7263 54.7099 47.4008 54.9751 44.6624 55.1015C39.1908 55.3541 32.1466 55.0494 25.8278 54.0754L25.8253 54.075C24.9789 53.9495 24.4567 53.5133 24.2526 53.0806C24.0651 52.6834 24.1021 52.2086 24.5429 51.7745C24.8566 51.4656 25.5697 51.1681 26.6566 50.9888C27.7144 50.8143 29.0387 50.7652 30.4815 50.8726Z" fill="#D9FE59" stroke="black"/>
<path d="M37.3509 100.138L37.3491 100.139C36.5647 100.581 35.9915 100.629 35.6122 100.517C35.2449 100.408 34.9904 100.131 34.8583 99.7412C34.5852 98.9357 34.859 97.6487 35.9442 96.8279C39.1648 94.473 45.7005 90.1525 51.5269 86.437C54.4394 84.5797 57.1696 82.8768 59.2139 81.6497C60.2368 81.0358 61.0837 80.5435 61.6942 80.211C62.0006 80.0442 62.2402 79.9216 62.4097 79.8445C62.4699 79.8171 62.5165 79.7976 62.5509 79.7845C62.7779 79.8689 63.0402 80.1089 63.2554 80.5006C63.4889 80.9255 63.6153 81.4401 63.5832 81.8885C63.554 82.2551 63.5324 82.4672 63.485 82.637C63.4449 82.7805 63.3839 82.9003 63.2468 83.0482C63.0964 83.2105 62.8588 83.4017 62.4593 83.6734C62.0632 83.9428 61.5367 84.2726 60.8239 84.7174L60.8234 84.7177C53.6808 89.1884 48.5462 92.635 44.8255 95.1713C44.0855 95.6756 43.4029 96.143 42.7725 96.5747C40.2205 98.322 38.5246 99.4832 37.3509 100.138Z" fill="#D9FE59" stroke="black"/>
<path d="M32.1761 30.0339L32.1757 30.0337C30.0921 28.7186 28.8307 27.7547 28.2195 27.0115C27.9149 26.6411 27.8265 26.39 27.818 26.2331C27.8125 26.1301 27.8383 26.0086 27.9593 25.8535C28.0455 25.8641 28.1705 25.8887 28.3387 25.9318C28.7202 26.0296 29.2601 26.206 29.9369 26.4536C31.287 26.9475 33.1403 27.709 35.2741 28.6418C39.5402 30.5068 44.9038 33.0461 49.5595 35.4722L49.5596 35.4722L55.6251 38.6318C56.2974 38.9906 56.8437 39.7815 57.0739 40.5281C57.1889 40.9012 57.2063 41.2043 57.1649 41.3971C57.1306 41.557 57.0696 41.6148 56.9652 41.6419L56.9651 41.6418L56.9586 41.6436C56.935 41.6501 56.8409 41.6607 56.6392 41.6349C56.4504 41.6107 56.207 41.5603 55.9099 41.4822C55.3166 41.3261 54.5444 41.0687 53.6312 40.7262C51.8068 40.0418 49.4537 39.0302 46.91 37.8485C41.8207 35.4842 36.003 32.4545 32.1761 30.0339Z" fill="#D9FE59" stroke="black"/>
<path d="M39.7472 76.1936L39.7454 76.1939C31.8156 77.6964 28.9674 78.3954 27.9372 78.6965C27.5995 78.7933 27.3537 78.7169 27.1826 78.5846C27.0003 78.4437 26.874 78.216 26.8326 77.9729C26.7911 77.7298 26.8406 77.5177 26.9476 77.3774C27.0461 77.2483 27.2532 77.1023 27.6801 77.1148C27.8516 77.1262 28.1378 77.0981 28.4621 77.056C28.8132 77.0105 29.261 76.9408 29.7736 76.8533C30.7993 76.6781 32.0965 76.429 33.4221 76.1509C39.5264 74.8895 44.1864 74.0586 47.1734 73.6827C48.2081 73.5525 49.0273 73.479 49.6304 73.4586C49.5213 73.4999 49.4049 73.5427 49.2815 73.5871C48.5082 73.8652 47.4873 74.1929 46.3678 74.5251C44.1267 75.1903 41.5185 75.8656 39.7472 76.1936ZM50.5965 73.0164C50.5966 73.0164 50.5954 73.0181 50.5925 73.0216C50.5949 73.0181 50.5963 73.0164 50.5965 73.0164Z" fill="#D9FE59" stroke="black"/>
</svg>
