<svg width="22" height="32" viewBox="0 0 22 32" fill="none" xmlns="http://www.w3.org/2000/svg">
<path d="M3.12358 30.357C8.83695 31.5998 14.4771 27.1515 16.3083 24.3034C14.4208 17.9395 26.0736 2.4827 18.3826 2.48211C16.6042 2.48211 15.0852 -2.46299 8.6172 2.48217C8.59389 4.48129 8.6172 9.7593 8.6172 10.9375C8.6172 27.2494 2.02485 29.4198 3.12358 30.357Z" fill="#DFF183"/>
<path fill-rule="evenodd" clip-rule="evenodd" d="M3.22276 30.2305C3.60089 29.8701 3.99169 29.3993 4.38044 28.8141C5.13904 27.6721 5.9147 26.0576 6.5901 23.8726C7.94084 19.5028 8.90104 12.8176 8.49948 2.97955L7.50031 3.02034C7.89876 12.7822 6.94229 19.3471 5.6347 23.5773C4.98094 25.6923 4.24201 27.2152 3.54748 28.2608C2.84581 29.3171 2.21327 29.8508 1.79037 30.046L0.644043 30.575L1.84179 30.9743C4.04039 31.7072 10.4594 31.476 15.3903 25.3123L15.5902 25.0625L15.325 24.5322L16.6463 25.8535L17.3535 25.1464L13.8535 21.6464L13.0527 22.2236L14.4082 24.9346C10.4708 29.6818 5.66987 30.4645 3.22276 30.2305Z" fill="black"/>
</svg>
