<svg width="63" height="77" viewBox="0 0 63 77" fill="none" xmlns="http://www.w3.org/2000/svg">
<path fill-rule="evenodd" clip-rule="evenodd" d="M36.0508 7.46334C27.4667 6.0671 18.1699 8.88529 14.4062 19.2403C12.0578 25.7514 11.7183 26.8319 16.6188 27.5268C18.8012 27.8363 22.2849 27.1918 24.2929 26.3176V26.3176C27.5839 24.8848 27.8416 21.5921 30.4706 19.143C31.5229 18.1627 32.8659 17.5679 34.6224 17.2743C42.8807 15.9306 45.4208 26.8909 44.5805 29.8405C43.6578 33.0792 40.7766 34.0537 32.6308 33.8601C25.9693 33.7112 23.2931 35.5656 21.2988 41.6518C20.72 43.4552 20.0986 44.8371 19.8231 45.0044C18.582 45.8198 21.5268 47.8195 25.0521 48.582C35.6361 50.8406 35.4617 50.8816 35.9639 46.9487C36.2719 44.4967 36.6103 44.2228 39.2711 44.2497C45.6931 44.3254 50.0153 42.0623 53.4593 36.8276C62.4105 23.3422 54.8254 10.5579 36.0508 7.46334ZM45.2264 12.1522C51.6906 15.164 55.5803 25.4993 52.5426 31.7068C49.7348 37.4502 45.259 40.1379 37.7628 40.52C34.1319 40.6996 32.6556 41.8832 31.6206 45.4019V45.4019C31.303 46.5166 30.194 47.1901 29.0608 46.9569C28.7768 46.8985 28.522 46.8462 28.2879 46.7986C26.3715 46.4088 25.129 44.4039 25.7911 42.5626C27.6432 37.4124 29.0445 36.6292 39.0555 36.3255C46.5704 36.1064 49.6408 31.0405 47.009 23.2583C42.7867 10.7782 22.4305 11.9784 22.6132 24.7019C22.6063 25.2971 22.5561 25.8161 22.4798 25.8557C22.3652 25.915 18.2343 25.5647 17.9349 25.4732C17.905 25.4641 18.7088 21.8433 18.8752 20.5739C20.2625 9.65022 33.5495 6.76213 45.2264 12.1522ZM21.7673 54.7652C15.703 55.4903 12.6469 62.1157 17.367 65.5379C26.7773 72.373 37.9431 69.277 33.899 60.9692C32.7228 58.4724 25.2082 54.3389 21.7673 54.7652Z" fill="#DCBDF4"/>
<path d="M45.2264 12.1522C51.6906 15.164 55.5803 25.4993 52.5426 31.7068C49.7348 37.4502 45.259 40.1379 37.7628 40.52C34.1319 40.6996 32.6556 41.8832 31.6206 45.4019V45.4019C31.303 46.5166 30.194 47.1901 29.0608 46.9569C28.7768 46.8985 28.522 46.8462 28.2879 46.7986C26.3715 46.4088 25.129 44.4039 25.7911 42.5626C27.6432 37.4124 29.0445 36.6292 39.0555 36.3255C46.5704 36.1064 49.6408 31.0405 47.009 23.2583C42.7867 10.7782 22.4305 11.9784 22.6132 24.7019C22.6063 25.2971 22.5561 25.8161 22.4798 25.8557C22.3652 25.915 18.2343 25.5647 17.9349 25.4732C17.905 25.4641 18.7088 21.8433 18.8752 20.5739C20.2625 9.65022 33.5495 6.76213 45.2264 12.1522Z" fill="#DCBDF4"/>
<path fill-rule="evenodd" clip-rule="evenodd" d="M21.2987 41.6518C23.293 35.5657 25.9692 33.7113 32.6307 33.8601C40.7765 34.0537 43.6576 33.0792 44.5803 29.8405C45.4206 26.891 42.8806 15.9307 34.6223 17.2744C32.8657 17.568 31.5228 18.1627 30.4705 19.143C29.3932 20.1466 28.7141 21.2918 28.0613 22.3926C27.121 23.9783 26.2352 25.472 24.2927 26.3177C22.2848 27.1919 18.8011 27.8363 16.6186 27.5268C11.7182 26.8319 12.0576 25.7514 14.4061 19.2403C18.1697 8.88534 27.4665 6.06714 36.0507 7.46339C54.8253 10.5579 62.4104 23.3423 53.4592 36.8277C50.0152 42.0624 45.693 44.3255 39.271 44.2498C36.6101 44.2228 36.2718 44.4967 35.9638 46.9487L35.9411 47.1267C35.7811 48.3868 35.6758 49.2156 35.2122 49.6763C34.3215 50.5614 32.1083 50.0888 25.6437 48.7084L25.052 48.5821C21.5267 47.8196 18.5819 45.8198 19.823 45.0045C20.0985 44.8372 20.7198 43.4553 21.2987 41.6518ZM39.2763 45.2549C38.6136 45.2482 38.1612 45.262 37.8331 45.3101C37.5116 45.3572 37.405 45.425 37.3673 45.4557C37.3378 45.4798 37.2666 45.5476 37.1847 45.8074C37.0977 46.0836 37.0273 46.4811 36.9507 47.0908L36.9505 47.0929C36.9406 47.17 36.9309 47.2472 36.9212 47.3243C36.817 48.1532 36.7139 48.9732 36.4497 49.5915C36.2884 49.9689 36.0497 50.3249 35.6815 50.6004C35.3181 50.8724 34.8961 51.0153 34.4483 51.0817C33.6005 51.2075 32.4675 51.0815 30.9962 50.823C29.6099 50.5794 27.8029 50.1935 25.4618 49.6936C25.2654 49.6516 25.0652 49.6089 24.8612 49.5654L24.8585 49.5648C22.9955 49.1618 21.2518 48.4276 20.1023 47.6432C19.5529 47.2683 19.0107 46.7965 18.7337 46.2411C18.5853 45.9436 18.4773 45.5476 18.5783 45.1153C18.6713 44.7174 18.9094 44.425 19.1796 44.2235C19.1922 44.2044 19.209 44.1777 19.2299 44.1421C19.31 44.005 19.4148 43.7971 19.5379 43.5191C19.7825 42.967 20.0704 42.205 20.3519 41.3281L20.3538 41.3223C21.3759 38.203 22.632 35.9708 24.6453 34.5844C26.651 33.2033 29.2387 32.7793 32.6369 32.8552L32.6383 32.8553C36.7085 32.952 39.3105 32.7476 40.9862 32.1834C41.8028 31.9084 42.3584 31.5604 42.7533 31.153C43.1458 30.7482 43.4286 30.2341 43.624 29.5484C43.7726 29.0267 43.7995 27.9671 43.5607 26.6037C43.3276 25.2734 42.8621 23.7741 42.1384 22.4118C41.4135 21.0472 40.4551 19.867 39.2587 19.1036C38.0834 18.3536 36.6247 17.9696 34.7978 18.2664C33.1796 18.5372 32.0296 19.0686 31.1511 19.8869C30.1859 20.7862 29.5899 21.7888 28.9413 22.8799C28.7912 23.1325 28.6383 23.3897 28.4773 23.6516C27.6402 25.0131 26.6216 26.4045 24.6986 27.2417C23.6026 27.7189 22.1483 28.117 20.6977 28.358C19.254 28.5978 17.7268 28.6967 16.4957 28.5222C15.2669 28.3479 14.2313 28.1349 13.4567 27.7595C12.6094 27.3489 12.0111 26.709 11.819 25.7486C11.6513 24.9102 11.8237 23.9427 12.1138 22.8985C12.4115 21.8265 12.888 20.4986 13.4707 18.883L13.4715 18.8807C15.4408 13.4627 18.8838 9.96921 22.9881 8.03317C27.0715 6.10705 31.7502 5.74836 36.1936 6.4711L36.1957 6.47144C45.748 8.04591 52.669 12.1195 56.0034 17.7425C59.3733 23.4254 58.9217 30.4149 54.2894 37.3947C52.4976 40.1178 50.4411 42.121 47.9504 43.4242C45.461 44.7267 42.6069 45.294 39.2763 45.2549ZM19.1551 44.2584C19.1475 44.2683 19.1479 44.2664 19.1564 44.2568C19.156 44.2574 19.1555 44.2579 19.1551 44.2584ZM14.6089 58.7285C15.6871 56.2128 18.2759 54.1694 21.6328 53.7673C22.6942 53.6363 23.9648 53.8597 25.2215 54.2415C26.5003 54.63 27.8582 55.2116 29.1307 55.8812C30.403 56.5506 31.6151 57.3212 32.5972 58.0995C33.5447 58.8503 34.3918 59.6961 34.7928 60.5425C35.8932 62.8058 36.0344 64.8854 35.2477 66.5864C34.4671 68.2745 32.8728 69.3713 30.9552 69.9019C27.1393 70.9579 21.687 69.9041 16.7954 66.3514M33.8989 60.9692C37.943 69.2771 26.7772 72.3731 17.3669 65.5379C12.6467 62.1158 15.7028 55.4904 21.7672 54.7653C25.2081 54.3389 32.7227 58.4725 33.8989 60.9692ZM14.6089 58.7285C14.0676 59.9915 13.9025 61.3905 14.2468 62.7479ZM14.2468 62.7479C14.5933 64.1139 15.4382 65.3672 16.7946 66.3509Z" fill="black"/>
</svg>
