<svg width="59" height="55" viewBox="0 0 59 55" fill="none" xmlns="http://www.w3.org/2000/svg">
<path d="M23.5648 4.10634C17.5891 -2.01123 8.57702 -1.20028 3.4421 5.91707C-1.68644 13.0256 -1.00608 23.7351 4.9622 29.8451L29.2754 54.7355L29.4662 55L29.5 54.9654L29.5338 55L29.7246 54.7355L54.0378 29.8451C60.0061 23.7351 60.6864 13.0256 55.5579 5.91707C50.423 -1.20028 41.4109 -2.01123 35.4352 4.10634L29.5 10.1824L23.5648 4.10634Z" fill="#DFF183"/>
<path fill-rule="evenodd" clip-rule="evenodd" d="M29.7246 54.7355L29.5344 54.9991L29.5338 55L29.5 54.9654L29.4662 55L29.2754 54.7355L4.9622 29.8451C-1.00608 23.7351 -1.68644 13.0256 3.4421 5.91707C8.57702 -1.20028 17.5891 -2.01123 23.5648 4.10634L29.5 10.1824L35.4352 4.10634C41.4109 -2.01123 50.423 -1.20028 55.5579 5.91707C60.6864 13.0256 60.0061 23.7351 54.0378 29.8451L29.7246 54.7355ZM29.5 53.5343L53.3224 29.1463C58.9378 23.3977 59.6022 13.2319 54.7469 6.50215C52.335 3.15912 49.0525 1.34426 45.7222 1.04459C42.395 0.745192 38.9393 1.95009 36.1505 4.8051L29.5 11.6135L22.8495 4.8051C20.0607 1.95009 16.605 0.745192 13.2778 1.04459C9.94754 1.34426 6.66496 3.15912 4.25307 6.50215C-0.602181 13.2319 0.0621886 23.3977 5.67755 29.1463L29.5 53.5343Z" fill="black"/>
</svg>
