<svg width="1440" height="104" viewBox="0 0 1440 104" fill="none" xmlns="http://www.w3.org/2000/svg">
<path fill-rule="evenodd" clip-rule="evenodd" d="M1439.86 0.789981L1440 0.682125L1439.01 0L1410.25 22.5056C1390.52 37.9519 1357.7 39.291 1335.75 25.5455L1330.11 22.0149C1310.28 9.59642 1280.53 11.1168 1263.24 25.4322C1246.63 39.1898 1218.12 40.806 1198.81 29.0844L1189.55 23.4628C1166.94 9.73143 1134.11 9.95106 1111.85 23.9827L1110.11 25.0778C1087.18 39.5252 1053.34 39.6397 1030.23 25.3479L1028.12 24.0449C1004.98 9.7311 971.531 8.75361 946.905 21.6712L938.563 26.0471C911.115 40.4454 874.147 40.2746 846.948 25.6238L844.794 24.4634C817.131 9.56233 779.811 8.66831 750.88 22.2136L731.751 31.1692C707.694 42.4325 676.378 40.6951 654.907 26.9059C630.531 11.2502 593.856 11.2264 569.094 26.5405C546.695 40.3935 514.126 41.7843 489.939 29.6673L476.791 23.0809C448.922 9.11974 412.014 9.72359 385.023 24.5824L381.794 26.36C356.162 40.4703 320.893 40.4703 295.261 26.36L290.358 23.661C265.083 9.74673 229.893 10.9279 206.459 26.4772C185.264 40.5403 153.979 42.7226 129.545 31.8424L118.688 27.0076C83.4624 11.3219 37.869 16.9562 11.6082 40.2402L0.0545392 50.4843L0.1725 50.5557H2.45335e-05L0 104H1.36163L1.36163 103.515L12.6577 93.4998C38.4877 70.5977 83.3333 65.0558 117.981 80.4842L128.838 85.319C153.787 96.4285 185.731 94.2002 207.373 79.8408C230.324 64.6124 264.787 63.4556 289.541 77.0827L294.443 79.7817C320.56 94.1587 356.495 94.1587 382.611 79.7817L385.841 78.0041C412.365 63.4021 448.635 62.8087 476.023 76.5286L489.17 83.115C513.872 95.4892 547.114 94.0644 569.973 79.927C594.229 64.9254 630.149 64.9554 654.01 80.2803C675.936 94.362 707.916 96.1363 732.484 84.634L751.613 75.6784C780.07 62.3551 816.778 63.2345 843.987 77.8913L846.142 79.0517C873.815 93.9582 911.428 94.132 939.355 79.4824L947.697 75.1065C971.816 62.4546 1004.57 63.412 1027.24 77.4313L1029.35 78.7343C1052.97 93.3421 1087.56 93.2251 1111 78.4583L1112.73 77.3632C1134.5 63.6487 1166.58 63.434 1188.69 76.855L1197.94 82.4767C1217.81 94.5417 1247.16 92.8783 1264.26 78.7174C1281.06 64.8096 1309.96 63.3325 1329.23 75.3975L1334.87 78.9281C1357.37 93.0201 1391.02 91.6472 1411.25 75.8115L1439.77 53.4868H1439.86V53.4137L1440 53.3059L1439.86 53.2113V0.789981ZM1438.5 1.85579L1411.25 23.1878C1391.02 39.0235 1357.37 40.3963 1334.87 26.3043L1329.23 22.7737C1309.96 10.7088 1281.06 12.1858 1264.26 26.0936C1247.16 40.2545 1217.81 41.918 1197.94 29.8529L1188.69 24.2313C1166.58 10.8103 1134.5 11.025 1112.73 24.7394L1111 25.8345C1087.56 40.6014 1052.97 40.7183 1029.35 26.1106L1027.24 24.8076C1004.57 10.7883 971.816 9.83087 947.697 22.4828L939.355 26.8586C911.428 41.5082 873.815 41.3345 846.142 26.428L843.987 25.2675C816.778 10.6107 780.07 9.73137 751.613 23.0546L732.484 32.0103C707.916 43.5126 675.936 41.7383 654.01 27.6565C630.149 12.3317 594.229 12.3017 569.973 27.3032C547.114 41.4406 513.872 42.8655 489.17 30.4912L476.023 23.9049C448.635 10.185 412.365 10.7784 385.841 25.3803L382.611 27.158C356.495 41.535 320.56 41.535 294.443 27.158L289.541 24.4589C264.787 10.8319 230.324 11.9887 207.373 27.217C185.731 41.5765 153.787 43.8048 128.838 32.6953L117.981 27.8605C83.3333 12.4321 38.4877 17.974 12.6577 40.8761L1.36166 50.8917L1.36163 101.949L11.6082 92.864C37.869 69.5799 83.4624 63.9456 118.688 79.6313L129.545 84.4661C153.979 95.3463 185.264 93.164 206.459 79.1009C229.893 63.5517 265.083 62.3705 290.358 76.2847L295.261 78.9837C320.893 93.0941 356.162 93.0941 381.794 78.9837L385.023 77.2061C412.014 62.3473 448.922 61.7435 476.791 75.7047L489.939 82.2911C514.126 94.408 546.695 93.0172 569.094 79.1642C593.856 63.8501 630.531 63.8739 654.907 79.5297C676.378 93.3188 707.694 95.0563 731.751 83.793L750.88 74.8373C779.811 61.292 817.131 62.1861 844.794 77.0871L846.948 78.2476C874.147 92.8984 911.115 93.0692 938.563 78.6708L946.905 74.295C971.531 61.3773 1004.98 62.3548 1028.12 76.6686L1030.23 77.9716C1053.34 92.2634 1087.18 92.149 1110.11 77.7015L1111.85 76.6064C1134.11 62.5748 1166.94 62.3552 1189.55 76.0865L1198.81 81.7082C1218.12 93.4297 1246.63 91.8136 1263.24 78.0559C1280.53 63.7405 1310.28 62.2202 1330.11 74.6387L1335.75 78.1693C1357.7 91.9148 1390.52 90.5757 1410.25 75.1294L1438.5 53.0194V1.85579Z" fill="#2C2C2C"/>
<path d="M1438.5 1.85579L1411.25 23.1878C1391.02 39.0235 1357.37 40.3963 1334.87 26.3043L1329.23 22.7737C1309.96 10.7088 1281.06 12.1858 1264.26 26.0936C1247.16 40.2545 1217.81 41.918 1197.94 29.8529L1188.69 24.2313C1166.58 10.8103 1134.5 11.025 1112.73 24.7394L1111 25.8345C1087.56 40.6014 1052.97 40.7183 1029.35 26.1106L1027.24 24.8076C1004.57 10.7883 971.816 9.83087 947.697 22.4828L939.355 26.8586C911.428 41.5082 873.815 41.3345 846.142 26.428L843.987 25.2675C816.778 10.6107 780.07 9.73137 751.613 23.0546L732.484 32.0103C707.916 43.5126 675.936 41.7383 654.01 27.6565C630.149 12.3317 594.229 12.3017 569.973 27.3032C547.114 41.4406 513.872 42.8655 489.17 30.4912L476.023 23.9049C448.635 10.185 412.365 10.7784 385.841 25.3803L382.611 27.158C356.495 41.535 320.56 41.535 294.443 27.158L289.541 24.4589C264.787 10.8319 230.324 11.9887 207.373 27.217C185.731 41.5765 153.787 43.8048 128.838 32.6953L117.981 27.8605C83.3333 12.4321 38.4877 17.974 12.6577 40.8761L1.36166 50.8917L1.36163 101.949L11.6082 92.864C37.869 69.5799 83.4624 63.9456 118.688 79.6313L129.545 84.4661C153.979 95.3463 185.264 93.164 206.459 79.1009C229.893 63.5517 265.083 62.3705 290.358 76.2847L295.261 78.9837C320.893 93.0941 356.162 93.0941 381.794 78.9837L385.023 77.2061C412.014 62.3473 448.922 61.7435 476.791 75.7047L489.939 82.2911C514.126 94.408 546.695 93.0172 569.094 79.1642C593.856 63.8501 630.531 63.8739 654.907 79.5297C676.378 93.3188 707.694 95.0563 731.751 83.793L750.88 74.8373C779.811 61.292 817.131 62.1861 844.794 77.0871L846.948 78.2476C874.147 92.8984 911.115 93.0692 938.563 78.6708L946.905 74.295C971.531 61.3773 1004.98 62.3548 1028.12 76.6686L1030.23 77.9716C1053.34 92.2634 1087.18 92.149 1110.11 77.7015L1111.85 76.6064C1134.11 62.5748 1166.94 62.3552 1189.55 76.0865L1198.81 81.7082C1218.12 93.4297 1246.63 91.8136 1263.24 78.0559C1280.53 63.7405 1310.28 62.2202 1330.11 74.6387L1335.75 78.1693C1357.7 91.9148 1390.52 90.5757 1410.25 75.1294L1438.5 53.0194V1.85579Z" fill="#DFF183"/>
<path d="M39.4812 50.7948L44.5504 66.4968L41.1587 67.5917L36.4748 53.0831L37.3953 52.8552L35.3594 69.4639L31.6956 70.6467L20.346 58.4056L21.1983 58.038L25.8754 72.5257L22.5047 73.6139L17.4355 57.9119L22.8999 56.1478L33.7375 68.0919L32.2091 68.5853L34.0169 52.5588L39.4812 50.7948Z" fill="#3C3C3C"/>
<path d="M48.5882 65.1932L43.519 49.4912L46.9944 48.3692L51.4823 62.2708L50.347 62.4061L55.8504 45.5102L60.4772 44.0165L65.5464 59.7185L62.071 60.8405L57.5223 46.7506L58.6576 46.6152L53.0894 63.7401L48.5882 65.1932Z" fill="#3C3C3C"/>
<path d="M77.645 40.0053L81.3583 40.191L80.6177 55.0005L76.9044 54.8148L77.645 40.0053ZM71.1587 38.0068L87.9897 38.8485L87.8248 42.1444L70.9939 41.3027L71.1587 38.0068Z" fill="#3C3C3C"/>
<path d="M90.6014 56.5325L94.5932 52.509L94.6358 52.5202L104.051 43.007L107.966 44.036L94.5164 57.5614L90.6014 56.5325ZM93.9557 54.9346L89.5825 39.2043L93.5614 40.2501L97.105 53.0782L93.9557 54.9346Z" fill="#3C3C3C"/>
<path d="M115.126 47.6466L118.722 48.5916L114.953 62.9326L111.357 61.9875L115.126 47.6466ZM109.189 44.3574L125.488 48.641L124.649 51.8326L108.351 47.549L109.189 44.3574Z" fill="#3C3C3C"/>
<path d="M129.138 73.0996L130.04 66.4949L133.092 66.9116L134.655 67.1695L146.426 68.7767L147.326 68.8552L151.729 69.4564L150.827 76.0611L147.361 75.5879L147.817 72.2528L133.06 70.2378L132.604 73.5729L129.138 73.0996ZM135.336 53.8955L150.659 55.9879L148.588 71.1591L144.904 70.6561L146.761 57.0543L148.192 58.9371L136.879 57.3924L138.59 56.4048C138.578 57.1433 138.538 57.8706 138.47 58.5866C138.402 59.3026 138.325 59.9731 138.24 60.598C137.997 62.3708 137.654 63.856 137.209 65.0535C136.766 66.2365 136.225 67.11 135.586 67.674C134.948 68.2235 134.223 68.4426 133.409 68.3315L132.059 66.8371C132.764 66.2229 133.349 65.3035 133.812 64.0789C134.292 62.8418 134.662 61.2714 134.921 59.3677C135.037 58.5249 135.128 57.6418 135.194 56.7183C135.261 55.7949 135.308 54.8539 135.336 53.8955Z" fill="#3C3C3C"/>
<path d="M155.665 58.7668L170.813 55.3354L174.458 71.4277L170.832 72.2491L167.541 57.7231L169.546 59.0059L158.411 61.5283L159.683 59.9768C160.034 60.9951 160.34 61.9786 160.6 62.9273C160.874 63.8727 161.107 64.7674 161.298 65.6113C161.758 67.6426 161.953 69.3352 161.884 70.6893C161.815 72.0434 161.469 73.1067 160.847 73.8792C160.225 74.6517 159.299 75.1773 158.069 75.4559C157.583 75.5661 157.083 75.619 156.571 75.6148C156.062 75.6248 155.585 75.5751 155.139 75.4655L154.449 72.4187C155.119 72.5226 155.718 72.5145 156.248 72.3947C157.249 72.1678 157.868 71.5465 158.104 70.5306C158.337 69.5003 158.216 67.941 157.743 65.8526C157.53 64.9085 157.251 63.8438 156.907 62.6584C156.563 61.4731 156.149 60.1758 155.665 58.7668Z" fill="#3C3C3C"/>
<path d="M189.367 58.8698L189.96 61.4874L183.051 63.0525L183.015 62.9929C181.827 63.2619 180.745 63.2965 179.767 63.0969C178.801 62.8797 177.985 62.4631 177.319 61.847C176.65 61.2166 176.203 60.4079 175.98 59.4209C175.753 58.4196 175.805 57.4903 176.138 56.6331C176.47 55.7758 177.025 55.041 177.804 54.4285C178.593 53.7985 179.582 53.349 180.769 53.0801L190.21 50.9416L193.855 67.0339L190.208 67.8601L186.791 52.7763L188.796 54.059L181.844 55.6338C181 55.8249 180.382 56.183 179.989 56.708C179.597 57.233 179.483 57.8602 179.649 58.5898C179.814 59.3193 180.188 59.8435 180.772 60.1625C181.352 60.4671 182.064 60.5239 182.908 60.3327L189.367 58.8698ZM186.528 60.7761L182.376 69.6341L178.128 70.5965L182.387 61.7141L186.528 60.7761Z" fill="#3C3C3C"/>
<path d="M212.067 54.5625L212.245 53.7552C213.496 53.5019 214.571 53.4689 215.471 53.6561C216.367 53.829 217.079 54.1865 217.608 54.7284C218.134 55.256 218.487 55.9203 218.669 56.7213C218.863 57.5796 218.829 58.3918 218.567 59.1581C218.318 59.9211 217.845 60.5849 217.145 61.1493C216.446 61.7137 215.503 62.1304 214.316 62.3993L203.029 64.9558L202.403 56.4132L199.384 48.8635L210.263 46.3994C211.75 46.0624 212.981 46.152 213.955 46.6682C214.94 47.1669 215.571 48.0242 215.846 49.24C215.995 49.898 215.982 50.5702 215.807 51.2566C215.646 51.9397 215.263 52.5752 214.66 53.1631C214.067 53.7335 213.203 54.1999 212.067 54.5625ZM206.425 63.2167L204.632 61.7732L212.957 59.8874C213.729 59.7124 214.283 59.3991 214.616 58.9476C214.961 58.4784 215.059 57.9149 214.91 57.2569C214.758 56.5846 214.395 56.1104 213.821 55.8344C213.244 55.544 212.483 55.5058 211.539 55.7196L204.759 57.2555L204.166 54.6378L210.517 53.1991C211.161 53.0533 211.65 52.7546 211.983 52.3031C212.328 51.834 212.426 51.2704 212.277 50.6124C212.164 50.1118 211.891 49.7374 211.459 49.4894C211.024 49.2271 210.47 49.1721 209.797 49.3244L202.202 51.045L203.198 48.9696L205.9 55.621L206.425 63.2167Z" fill="#3C3C3C"/>
<path d="M224.941 56.4283L224.27 53.4673L235.428 50.94L236.098 53.9009L224.941 56.4283ZM230.067 41.9132L241.244 56.2996L237.36 57.1793L227.463 44.0596L228.664 43.7874L225.387 59.8913L221.504 60.771L225.39 42.9727L230.067 41.9132Z" fill="#3C3C3C"/>
<path d="M258.659 45.4747C258.809 46.8693 258.602 48.1794 258.038 49.4051C257.484 50.6132 256.622 51.6508 255.449 52.5178C254.292 53.3816 252.883 54.0014 251.224 54.3773C249.393 54.792 247.704 54.8061 246.158 54.4195C244.626 54.0296 243.333 53.2999 242.279 52.2304C241.221 51.1466 240.503 49.7679 240.124 48.0943C239.744 46.4207 239.8 44.8742 240.291 43.4548C240.778 42.021 241.629 40.7982 242.843 39.7862C244.072 38.771 245.602 38.056 247.433 37.6413C249.092 37.2654 250.63 37.2177 252.047 37.4983C253.479 37.7756 254.704 38.3401 255.724 39.1918C256.759 40.0403 257.51 41.1333 257.978 42.4708L254.309 43.302C253.995 42.5762 253.54 41.995 252.944 41.5584C252.346 41.1075 251.641 40.8161 250.829 40.6842C250.017 40.5523 249.118 40.5981 248.131 40.8217C247.001 41.0776 246.069 41.5142 245.337 42.1312C244.616 42.7307 244.122 43.4741 243.857 44.3613C243.589 45.2341 243.574 46.1998 243.814 47.2583C244.054 48.3169 244.485 49.1893 245.106 49.8756C245.725 50.5475 246.49 51.0058 247.403 51.2502C248.326 51.4771 249.353 51.4625 250.483 51.2066C251.47 50.983 252.303 50.6439 252.982 50.1893C253.658 49.7205 254.17 49.1608 254.519 48.5103C254.865 47.8455 255.022 47.1107 254.99 46.3058L258.659 45.4747Z" fill="#3C3C3C"/>
<path d="M297.98 44.9236L294.133 60.9688L290.667 60.1378L294.222 45.312L295.126 45.5968L284.741 58.717L280.997 57.8193L277.68 41.459L278.599 41.5889L275.049 56.3933L271.605 55.5675L275.452 39.5222L281.036 40.861L284.07 56.7011L282.509 56.3266L292.396 43.5848L297.98 44.9236Z" fill="#3C3C3C"/>
<path d="M298.006 61.8978L301.854 45.8525L305.405 46.704L301.999 60.9094L300.959 60.4339L314.454 48.8738L319.182 50.0074L315.335 66.0527L311.784 65.2012L315.236 50.8032L316.276 51.2788L302.606 63.0006L298.006 61.8978Z" fill="#3C3C3C"/>
<path d="M336.081 59.4662L339.699 58.6134L343.1 73.0462L339.481 73.8989L336.081 59.4662ZM329.294 59.3474L345.697 55.4824L346.454 58.6944L330.051 62.5594L329.294 59.3474Z" fill="#3C3C3C"/>
<path d="M354.876 70.2715L356.513 64.8454L356.556 64.8353L360.407 52.0164L364.347 51.088L358.816 69.3431L354.876 70.2715ZM357.089 67.2865L345.846 55.4475L349.85 54.504L358.999 64.1694L357.089 67.2865Z" fill="#3C3C3C"/>
<path d="M372.152 50.9667L375.771 50.1139L379.172 64.5467L375.553 65.3994L372.152 50.9667ZM365.366 50.8479L381.769 46.9829L382.525 50.1949L366.123 54.0599L365.366 50.8479Z" fill="#3C3C3C"/>
<path d="M394.533 57.4058L393.004 50.9175L396.002 50.2111L397.554 49.8906L409.117 47.1659L409.985 46.9162L414.31 45.897L415.839 52.3853L412.435 53.1876L411.663 49.9113L397.166 53.3272L397.938 56.6035L394.533 57.4058ZM393.424 37.257L408.478 33.7098L411.99 48.6137L408.371 49.4664L405.222 36.1043L407.233 37.3483L396.12 39.967L397.362 38.431C397.616 39.1246 397.84 39.8178 398.033 40.5106C398.227 41.2034 398.396 41.8567 398.54 42.4706C398.951 44.2122 399.163 45.7217 399.178 46.999C399.189 48.2621 398.998 49.2716 398.603 50.0276C398.205 50.7693 397.607 51.2343 396.807 51.4227L395.011 50.5125C395.449 49.6859 395.664 48.6181 395.657 47.3088C395.661 45.9819 395.442 44.3834 395.002 42.5133C394.807 41.6853 394.575 40.8283 394.306 39.9424C394.037 39.0565 393.743 38.1613 393.424 37.257Z" fill="#3C3C3C"/>
<path d="M419.112 31.8331L434.641 31.5329L434.96 48.0298L431.243 48.1017L430.955 33.2105L432.66 34.8718L421.244 35.0925L422.804 33.8301C422.942 34.8983 423.042 35.9232 423.105 36.9049C423.183 37.8862 423.23 38.8095 423.247 39.6747C423.287 41.7569 423.136 43.4542 422.795 44.7663C422.454 46.0785 421.9 47.0501 421.135 47.681C420.37 48.3119 419.357 48.6395 418.095 48.6639C417.597 48.6735 417.097 48.6245 416.596 48.5168C416.096 48.4238 415.638 48.2786 415.224 48.0813L415.163 44.9579C415.799 45.195 416.388 45.3083 416.93 45.2978C417.957 45.2779 418.688 44.7944 419.125 43.8471C419.561 42.8852 419.758 41.3337 419.717 39.1928C419.698 38.225 419.64 37.1259 419.543 35.8955C419.446 34.6652 419.302 33.311 419.112 31.8331Z" fill="#3C3C3C"/>
<path d="M452.27 40.0428L452.074 42.7196L445.008 42.2021L444.991 42.1346C443.777 42.0457 442.732 41.7632 441.855 41.2872C440.994 40.7977 440.334 40.1611 439.877 39.3776C439.421 38.5795 439.23 37.6758 439.304 36.6665C439.379 35.6426 439.7 34.769 440.268 34.0459C440.835 33.3228 441.581 32.7818 442.504 32.423C443.443 32.0506 444.52 31.9089 445.734 31.9978L455.388 32.705L454.183 49.1609L450.453 48.8877L451.583 33.463L453.126 35.2746L446.017 34.7539C445.154 34.6906 444.459 34.8529 443.93 35.2407C443.402 35.6284 443.11 36.1953 443.056 36.9413C443.001 37.6873 443.206 38.298 443.671 38.7732C444.138 39.2338 444.802 39.4958 445.665 39.559L452.27 40.0428ZM448.998 41.0384L442.444 48.301L438.1 47.9828L444.764 40.7282L448.998 41.0384Z" fill="#3C3C3C"/>
<path d="M471.388 50.9516L471.885 50.2905C473.128 50.5779 474.12 50.9931 474.862 51.536C475.606 52.0646 476.107 52.685 476.364 53.3972C476.624 54.0951 476.67 54.8462 476.504 55.6504C476.325 56.5121 475.958 57.2374 475.402 57.8262C474.86 58.4179 474.154 58.8259 473.283 59.0501C472.413 59.2743 471.382 59.263 470.19 59.0161L458.858 56.6697L461.825 48.6344L462.204 40.5125L473.126 42.7741C474.62 43.0834 475.703 43.6747 476.376 44.548C477.066 45.4098 477.285 46.4511 477.032 47.6719C476.896 48.3326 476.605 48.939 476.161 49.4911C475.732 50.0462 475.121 50.4663 474.328 50.7515C473.552 51.0252 472.572 51.0919 471.388 50.9516ZM462.669 56.4928L461.635 54.4363L469.994 56.1671C470.769 56.3277 471.402 56.2716 471.893 55.9988C472.401 55.7146 472.724 55.2422 472.861 54.5815C473 53.9065 472.866 53.3246 472.458 52.8357C472.053 52.3324 471.377 51.9827 470.429 51.7864L463.621 50.3767L464.166 47.7485L470.542 49.0689C471.189 49.2028 471.757 49.1333 472.248 48.8605C472.756 48.5763 473.079 48.1039 473.216 47.4432C473.32 46.9405 473.226 46.4869 472.936 46.0822C472.648 45.6631 472.167 45.3837 471.492 45.244L463.865 43.6648L465.632 42.1882L465.337 49.3615L462.669 56.4928Z" fill="#3C3C3C"/>
<path d="M482.091 57.9308L482.706 54.9578L493.909 57.2775L493.293 60.2504L482.091 57.9308ZM492.767 46.8412L496.983 64.5643L493.084 63.7568L489.508 47.7166L490.714 47.9664L481.063 61.2676L477.164 60.4602L488.071 45.8688L492.767 46.8412Z" fill="#3C3C3C"/>
<path d="M517.151 61.8879C516.711 63.2196 515.98 64.3264 514.959 65.2083C513.955 66.0788 512.74 66.666 511.314 66.9698C509.902 67.2766 508.363 67.2576 506.697 66.9126C504.859 66.5319 503.316 65.8455 502.069 64.8533C500.836 63.864 499.961 62.6644 499.444 61.2543C498.93 59.8298 498.847 58.2774 499.195 56.5971C499.543 54.9167 500.234 53.5321 501.269 52.4432C502.306 51.3399 503.587 50.5792 505.111 50.1609C506.65 49.7457 508.339 49.7284 510.177 50.109C511.843 50.454 513.263 51.0476 514.436 51.8897C515.624 52.7348 516.506 53.7562 517.082 54.9538C517.672 56.1544 517.904 57.4605 517.776 58.8719L514.092 58.1091C514.106 57.3182 513.933 56.6008 513.572 55.9569C513.214 55.2986 512.693 54.7414 512.008 54.2851C511.324 53.8289 510.486 53.4982 509.495 53.2929C508.361 53.058 507.332 53.0697 506.41 53.3281C505.505 53.5751 504.748 54.0474 504.14 54.7451C503.534 55.4285 503.121 56.3016 502.901 57.3644C502.681 58.4271 502.711 59.3996 502.993 60.2817C503.278 61.1494 503.785 61.8835 504.514 62.4839C505.261 63.0728 506.202 63.4848 507.336 63.7198C508.327 63.925 509.226 63.9613 510.032 63.8287C510.841 63.6817 511.539 63.3844 512.126 62.9368C512.716 62.4748 513.163 61.8709 513.468 61.1251L517.151 61.8879Z" fill="#3C3C3C"/>
<path d="M545.82 53.2423L549.336 69.3634L545.854 70.1228L542.605 55.2269L543.543 55.0899L539.9 71.4213L536.138 72.2417L526.035 58.9533L526.919 58.6704L530.162 73.5448L526.702 74.2996L523.186 58.1785L528.796 56.955L538.419 69.8978L536.85 70.24L540.21 54.4658L545.82 53.2423Z" fill="#3C3C3C"/>
<path d="M553.262 68.5073L549.747 52.3862L553.315 51.6081L556.427 65.8806L555.284 65.9047L562.407 49.6252L567.157 48.5892L570.673 64.7103L567.105 65.4884L563.95 51.0225L565.093 50.9983L557.884 67.4995L553.262 68.5073Z" fill="#3C3C3C"/>
<path d="M579.638 42.0127L583.271 41.2205L586.43 55.708L582.798 56.5002L579.638 42.0127ZM572.855 41.7808L589.32 38.19L590.023 41.4142L573.558 45.005L572.855 41.7808Z" fill="#3C3C3C"/>
<path d="M598.327 53.1135L600.055 47.7154L600.098 47.706L604.162 34.9532L608.117 34.0907L602.282 52.2509L598.327 53.1135ZM600.589 50.1658L589.545 38.1409L593.565 37.2643L602.551 47.081L600.589 50.1658Z" fill="#3C3C3C"/>
<path d="M617.446 35.2273L621.164 35.2084L621.24 50.0362L617.522 50.0551L617.446 35.2273ZM610.86 33.5889L627.712 33.503L627.728 36.803L610.877 36.8888L610.86 33.5889Z" fill="#3C3C3C"/>
<path d="M631.97 62.2907L633.773 55.873L636.738 56.7057L638.251 57.1763L649.688 60.3882L650.569 60.5897L654.847 61.7912L653.045 68.209L649.677 67.2632L650.587 64.0226L636.248 59.9958L635.338 63.2364L631.97 62.2907ZM640.751 44.1222L655.641 48.3036L651.502 63.0454L647.922 62.0402L651.634 48.8234L652.791 50.8852L641.799 47.7982L643.63 47.0556C643.516 47.7854 643.376 48.5002 643.21 49.2C643.044 49.8999 642.876 50.5534 642.705 51.1605C642.221 52.8832 641.677 54.307 641.072 55.4319C640.47 56.5427 639.814 57.3334 639.103 57.804C638.396 58.2605 637.647 58.3777 636.856 58.1557L635.724 56.4897C636.508 55.9784 637.213 55.1482 637.841 53.9991C638.486 52.8397 639.069 51.3352 639.588 49.4854C639.818 48.6664 640.03 47.8042 640.223 46.8987C640.416 45.9933 640.592 45.0678 640.751 44.1222Z" fill="#3C3C3C"/>
<path d="M663.796 50.5933L678.749 54.7926L674.288 70.6781L670.709 69.6729L674.735 55.3336L675.887 57.4166L664.894 54.3296L666.752 53.5717C666.576 54.6342 666.376 55.6445 666.153 56.6024C665.943 57.5644 665.722 58.4619 665.488 59.295C664.925 61.3001 664.29 62.8814 663.584 64.039C662.879 65.1966 662.068 65.9668 661.153 66.3497C660.238 66.7326 659.174 66.7536 657.959 66.4126C657.479 66.2777 657.015 66.0864 656.567 65.8386C656.114 65.605 655.718 65.3338 655.378 65.0251L656.223 62.0174C656.763 62.428 657.294 62.7066 657.816 62.8533C658.805 63.1309 659.645 62.8793 660.336 62.0985C661.032 61.3036 661.669 59.8754 662.248 57.8138C662.509 56.8818 662.772 55.8129 663.034 54.6069C663.297 53.401 663.55 52.0631 663.796 50.5933Z" fill="#3C3C3C"/>
<path d="M693.29 66.7139L692.564 69.2979L685.744 67.3826L685.741 67.3132C684.569 66.984 683.6 66.4989 682.836 65.8576C682.09 65.2063 681.571 64.4511 681.279 63.5922C680.99 62.7191 680.983 61.7954 681.257 60.8211C681.534 59.8327 682.023 59.0407 682.724 58.4453C683.424 57.8498 684.263 57.4682 685.239 57.3006C686.233 57.1229 687.317 57.1986 688.489 57.5277L697.808 60.1448L693.347 76.0303L689.746 75.0191L693.928 60.1291L695.08 62.2121L688.217 60.2849C687.384 60.051 686.67 60.0713 686.075 60.346C685.48 60.6207 685.081 61.1181 684.879 61.8382C684.677 62.5584 684.756 63.1977 685.117 63.7561C685.482 64.3004 686.081 64.6896 686.914 64.9235L693.29 66.7139ZM689.886 67.0375L682.015 72.8481L677.822 71.6704L685.798 65.8895L689.886 67.0375Z" fill="#3C3C3C"/>
<path d="M715.922 60.6964L716.113 59.892C717.368 59.6582 718.443 59.6418 719.34 59.843C720.234 60.0298 720.941 60.3982 721.461 60.9483C721.978 61.484 722.321 62.1537 722.49 62.9574C722.671 63.8186 722.625 64.6302 722.35 65.3923C722.09 66.1514 721.606 66.8077 720.898 67.3612C720.19 67.9147 719.241 68.3167 718.049 68.5672L706.725 70.9482L706.231 62.3969L703.33 54.8013L714.245 52.5062C715.738 52.1924 716.967 52.3011 717.933 52.8324C718.911 53.3463 719.528 54.2132 719.784 55.4332C719.923 56.0935 719.899 56.7654 719.713 57.4489C719.542 58.1295 719.15 58.759 718.537 59.3374C717.935 59.8985 717.064 60.3515 715.922 60.6964ZM710.147 69.262L708.377 67.7908L716.73 66.0345C717.505 65.8715 718.063 65.5669 718.404 65.1205C718.756 64.6568 718.863 64.0948 718.724 63.4346C718.582 62.76 718.226 62.2803 717.657 61.9954C717.084 61.6961 716.324 61.646 715.377 61.8452L708.574 63.2756L708.022 60.6491L714.394 59.3092C715.04 59.1734 715.534 58.8823 715.874 58.436C716.226 57.9723 716.333 57.4103 716.194 56.7501C716.089 56.2477 715.822 55.8692 715.394 55.6145C714.962 55.3455 714.409 55.2819 713.735 55.4237L706.113 57.0262L707.142 54.9665L709.74 61.6591L710.147 69.262Z" fill="#3C3C3C"/>
<path d="M728.421 62.8347L727.796 59.8636L738.992 57.5098L739.616 60.4808L728.421 62.8347ZM733.772 48.4009L744.723 62.959L740.827 63.7783L731.134 50.5066L732.34 50.2531L728.813 66.3042L724.916 67.1235L729.078 49.3877L733.772 48.4009Z" fill="#3C3C3C"/>
<path d="M762.481 52.3686C762.609 53.7653 762.382 55.072 761.799 56.2888C761.227 57.4881 760.348 58.5122 759.162 59.3609C757.991 60.2067 756.573 60.8045 754.908 61.1546C753.071 61.5409 751.383 61.5287 749.843 61.1182C748.317 60.7046 747.035 59.9549 745.998 58.8692C744.957 57.7691 744.26 56.3794 743.907 54.7001C743.554 53.0208 743.634 51.4754 744.146 50.0637C744.656 48.6377 745.525 47.4282 746.755 46.4352C748 45.4392 749.54 44.748 751.378 44.3618C753.043 44.0117 754.581 43.9879 755.994 44.2904C757.421 44.5899 758.637 45.1734 759.644 46.0408C760.665 46.9052 761.399 48.0098 761.847 49.3545L758.165 50.1285C757.862 49.398 757.416 48.8098 756.828 48.364C756.236 47.9038 755.536 47.6015 754.726 47.457C753.916 47.3125 753.016 47.3444 752.026 47.5526C750.892 47.791 749.954 48.213 749.212 48.8187C748.482 49.4069 747.977 50.1425 747.698 51.0255C747.416 51.8941 747.387 52.8594 747.61 53.9215C747.833 54.9836 748.25 55.8626 748.861 56.5585C749.469 57.24 750.228 57.71 751.136 57.9686C752.056 58.2098 753.083 58.2112 754.217 57.9728C755.207 57.7646 756.045 57.4385 756.731 56.9945C757.414 56.5361 757.935 55.9845 758.294 55.3395C758.65 54.6801 758.819 53.9479 758.799 53.1426L762.481 52.3686Z" fill="#3C3C3C"/>
<path d="M807.174 41.4666L803.938 57.6461L800.443 56.9472L803.433 41.9973L804.348 42.2475L794.468 55.7521L790.693 54.997L786.758 38.7743L787.681 38.8692L784.695 53.7976L781.222 53.1029L784.458 36.9233L790.089 38.0494L793.721 53.763L792.147 53.4481L801.544 40.3405L807.174 41.4666Z" fill="#3C3C3C"/>
<path d="M808.129 58.4843L811.365 42.3047L814.946 43.0209L812.081 57.3452L811.024 56.9095L824.072 44.846L828.839 45.7995L825.603 61.9791L822.022 61.2628L824.926 46.7444L825.983 47.1801L812.767 59.4119L808.129 58.4843Z" fill="#3C3C3C"/>
<path d="M843.221 50.3812L846.867 51.1104L843.959 65.6505L840.313 64.9213L843.221 50.3812ZM837.099 47.4517L853.623 50.7566L852.976 53.9925L836.451 50.6876L837.099 47.4517Z" fill="#3C3C3C"/>
<path d="M855.632 67.9852L859.377 63.731L859.421 63.7397L868.252 53.6824L872.222 54.4763L859.602 68.7791L855.632 67.9852ZM858.886 66.1903L853.583 50.7485L857.617 51.5554L861.919 64.1495L858.886 66.1903Z" fill="#3C3C3C"/>
<path d="M879.664 57.6698L883.31 58.399L880.402 72.939L876.756 72.2099L879.664 57.6698ZM873.542 54.7402L890.067 58.0452L889.42 61.2811L872.895 57.9762L873.542 54.7402Z" fill="#3C3C3C"/>
<path d="M898.579 76.069L897.18 69.5515L900.191 68.9051L901.749 68.6157L913.364 66.1223L914.237 65.89L918.582 64.9573L919.981 71.4748L916.561 72.209L915.855 68.9179L901.292 72.0439L901.999 75.3349L898.579 76.069ZM897.872 55.9021L912.994 52.6561L916.207 67.6271L912.572 68.4074L909.691 54.9852L911.677 56.269L900.513 58.6654L901.786 57.1545C902.026 57.8531 902.236 58.5506 902.416 59.2471C902.595 59.9436 902.751 60.6002 902.883 61.2168C903.259 62.9663 903.441 64.4797 903.43 65.7571C903.417 67.0201 903.205 68.0256 902.795 68.7735C902.383 69.5071 901.775 69.9601 900.972 70.1325L899.194 69.1866C899.648 68.369 899.885 67.3056 899.904 65.9965C899.934 64.6699 899.748 63.0674 899.345 61.1888C899.166 60.3571 898.951 59.4957 898.7 58.6046C898.449 57.7135 898.173 56.8127 897.872 55.9021Z" fill="#3C3C3C"/>
<path d="M920.965 50.945L936.151 47.6852L939.614 63.8177L935.979 64.598L932.853 50.0357L934.843 51.3411L923.679 53.7375L924.97 52.2005C925.309 53.2227 925.603 54.2095 925.853 55.1611C926.116 56.1095 926.339 57.0068 926.52 57.8529C926.958 59.8891 927.134 61.5839 927.049 62.9371C926.965 64.2903 926.607 65.3496 925.976 66.1151C925.346 66.8805 924.414 67.3956 923.18 67.6603C922.693 67.765 922.193 67.8123 921.681 67.8022C921.172 67.8065 920.695 67.7513 920.25 67.6368L919.595 64.5823C920.263 64.6938 920.863 64.6925 921.394 64.5786C922.398 64.3631 923.023 63.7488 923.271 62.7356C923.515 61.7081 923.413 60.1475 922.963 58.0539C922.76 57.1074 922.493 56.0396 922.163 54.8505C921.833 53.6613 921.433 52.3595 920.965 50.945Z" fill="#3C3C3C"/>
<path d="M955 51.3569L955.563 53.9811L948.637 55.4679L948.602 55.408C947.411 55.6635 946.329 55.6859 945.353 55.4752C944.389 55.2471 943.578 54.8213 942.919 54.1977C942.257 53.5597 941.82 52.746 941.608 51.7566C941.392 50.7528 941.455 49.8242 941.797 48.9708C942.139 48.1173 942.703 47.3888 943.488 46.7852C944.285 46.1641 945.278 45.7259 946.468 45.4704L955.933 43.4387L959.396 59.5712L955.739 60.3562L952.493 45.2347L954.483 46.54L947.514 48.036C946.668 48.2176 946.046 48.5687 945.648 49.0892C945.249 49.6097 945.129 50.2357 945.286 50.967C945.443 51.6984 945.811 52.2268 946.391 52.5523C946.968 52.8635 947.679 52.9283 948.525 52.7467L955 51.3569ZM952.14 53.231L947.888 62.0415L943.629 62.9557L947.988 54.1221L952.14 53.231Z" fill="#3C3C3C"/>
<path d="M977.635 47.3308L977.822 46.5256C979.076 46.2865 980.151 46.2656 981.049 46.463C981.943 46.646 982.651 47.0115 983.174 47.5593C983.694 48.0928 984.04 48.7611 984.212 49.5641C984.397 50.4245 984.353 51.2364 984.082 51.9996C983.825 52.7598 983.344 53.4181 982.639 53.9746C981.933 54.5311 980.985 54.9371 979.795 55.1926L968.481 57.6213L967.95 49.0721L965.018 41.4888L975.923 39.1478C977.415 38.8276 978.644 38.9312 979.613 39.4584C980.592 39.9682 981.213 40.8325 981.474 42.0514C981.616 42.711 981.595 43.383 981.412 44.0674C981.243 44.7486 980.854 45.3798 980.243 45.9608C979.644 46.5244 978.775 46.9811 977.635 47.3308ZM971.896 55.9206L970.119 54.4569L978.465 52.6654C979.239 52.4992 979.796 52.1922 980.135 51.7444C980.485 51.2792 980.589 50.7168 980.448 50.0572C980.303 49.3832 979.945 48.905 979.375 48.6224C978.801 48.3256 978.041 48.2787 977.094 48.4819L970.297 49.941L969.734 47.3167L976.101 45.95C976.746 45.8115 977.238 45.5183 977.577 45.0706C977.927 44.6054 978.032 44.043 977.89 43.3833C977.782 42.8814 977.514 42.5041 977.084 42.2512C976.652 41.984 976.099 41.9227 975.425 42.0674L967.81 43.7019L968.83 41.638L971.457 48.3195L971.896 55.9206Z" fill="#3C3C3C"/>
<path d="M988.941 51.5626L989.569 48.5922L1000.76 50.9577L1000.13 53.9281L988.941 51.5626ZM999.663 40.5169L1003.81 58.257L999.91 57.4336L996.4 41.3788L997.605 41.6336L987.899 54.8953L984.003 54.0719L994.97 39.5252L999.663 40.5169Z" fill="#3C3C3C"/>
<path d="M1024.13 55.6944C1023.69 57.0243 1022.95 58.128 1021.93 59.0057C1020.92 59.8721 1019.7 60.4543 1018.27 60.7523C1016.86 61.0534 1015.32 61.028 1013.66 60.6762C1011.82 60.288 1010.28 59.5953 1009.04 58.598C1007.81 57.6037 1006.94 56.4005 1006.43 54.9883C1005.92 53.5618 1005.84 52.009 1006.2 50.3301C1006.55 48.6512 1007.25 47.2694 1008.29 46.1848C1009.33 45.0858 1010.61 44.3302 1012.14 43.9182C1013.68 43.5093 1015.37 43.4989 1017.21 43.8871C1018.87 44.2389 1020.29 44.8382 1021.46 45.6851C1022.64 46.5351 1023.52 47.5601 1024.09 48.7601C1024.68 49.9631 1024.9 51.27 1024.77 52.681L1021.09 51.9031C1021.11 51.1122 1020.93 50.3941 1020.58 49.7487C1020.22 49.089 1019.7 48.5296 1019.02 48.0706C1018.34 47.6116 1017.5 47.2774 1016.51 47.0682C1015.38 46.8286 1014.35 46.8361 1013.43 47.0907C1012.52 47.334 1011.76 47.8032 1011.15 48.4984C1010.54 49.1793 1010.12 50.0507 1009.9 51.1126C1009.68 52.1744 1009.7 53.147 1009.98 54.0302C1010.26 54.8991 1010.77 55.6353 1011.49 56.2386C1012.24 56.8307 1013.18 57.2465 1014.31 57.486C1015.3 57.6953 1016.2 57.7353 1017 57.606C1017.81 57.4623 1018.51 57.1679 1019.1 56.7227C1019.69 56.2631 1020.14 55.6611 1020.45 54.9165L1024.13 55.6944Z" fill="#3C3C3C"/>
<path d="M1063.27 52.3538L1059.86 68.4972L1056.37 67.7603L1059.52 52.8438L1060.44 53.104L1050.41 66.5002L1046.64 65.7042L1042.88 49.4396L1043.81 49.5445L1040.66 64.4395L1037.19 63.7071L1040.61 47.5637L1046.22 48.751L1049.69 64.5032L1048.11 64.1711L1057.65 51.1665L1063.27 52.3538Z" fill="#3C3C3C"/>
<path d="M1063.41 69.2477L1066.82 53.1042L1070.4 53.8594L1067.37 68.1517L1066.32 67.7044L1079.5 55.7836L1084.26 56.7889L1080.85 72.9324L1077.27 72.1772L1080.33 57.6912L1081.39 58.1384L1068.04 70.2257L1063.41 69.2477Z" fill="#3C3C3C"/>
<path d="M1101.68 48.9253L1105.25 47.8803L1109.42 62.1106L1105.85 63.1556L1101.68 48.9253ZM1094.9 49.1694L1111.07 44.4331L1112 47.6001L1095.83 52.3364L1094.9 49.1694Z" fill="#3C3C3C"/>
<path d="M1120.83 58.769L1122.17 53.2631L1122.22 53.2508L1125.38 40.2444L1129.26 39.1067L1124.71 57.6313L1120.83 58.769ZM1122.88 55.6701L1111.02 44.449L1114.97 43.2927L1124.62 52.4553L1122.88 55.6701Z" fill="#3C3C3C"/>
<path d="M1137.17 38.5312L1140.74 37.4863L1144.91 51.7166L1141.34 52.7615L1137.17 38.5312ZM1130.39 38.7754L1146.56 34.0391L1147.49 37.2061L1131.32 41.9424L1130.39 38.7754Z" fill="#3C3C3C"/>
<path d="M1154.37 54.4923L1155.92 48.01L1158.92 48.7281L1160.45 49.1403L1172 51.9102L1172.89 52.0777L1177.21 53.1138L1175.65 59.5961L1172.25 58.7805L1173.04 55.5073L1158.55 52.0347L1157.77 55.3079L1154.37 54.4923ZM1162.44 35.9997L1177.48 39.6057L1173.91 54.4957L1170.3 53.6288L1173.5 40.2792L1174.73 42.2949L1163.63 39.6327L1165.43 38.8203C1165.35 39.5539 1165.23 40.2736 1165.1 40.9793C1164.96 41.685 1164.81 42.3445 1164.67 42.9577C1164.25 44.6978 1163.76 46.1414 1163.2 47.2888C1162.64 48.4218 1162.01 49.2372 1161.32 49.7348C1160.63 50.2181 1159.89 50.364 1159.09 50.1725L1157.9 48.5512C1158.66 48.0103 1159.33 47.1536 1159.91 45.9811C1160.51 44.7978 1161.04 43.272 1161.49 41.4036C1161.69 40.5764 1161.86 39.7067 1162.02 38.7945C1162.18 37.8823 1162.32 36.9507 1162.44 35.9997Z" fill="#3C3C3C"/>
<path d="M1185.33 41.4871L1200.43 45.1085L1196.59 61.1537L1192.97 60.2868L1196.44 45.8033L1197.67 47.8405L1186.57 45.1783L1188.4 44.3495C1188.26 45.4181 1188.1 46.4352 1187.92 47.4011C1187.74 48.3703 1187.56 49.2757 1187.35 50.1172C1186.87 52.1425 1186.3 53.747 1185.64 54.9309C1184.97 56.1148 1184.19 56.9156 1183.29 57.3334C1182.4 57.7512 1181.33 57.813 1180.11 57.5189C1179.62 57.4026 1179.15 57.2293 1178.69 56.999C1178.23 56.7829 1177.82 56.5271 1177.47 56.2317L1178.2 53.1938C1178.76 53.5833 1179.3 53.8413 1179.83 53.9678C1180.82 54.2072 1181.65 53.9235 1182.31 53.1167C1182.98 52.2956 1183.56 50.844 1184.06 48.7616C1184.29 47.8203 1184.51 46.7421 1184.72 45.527C1184.94 44.3118 1185.14 42.9652 1185.33 41.4871Z" fill="#3C3C3C"/>
<path d="M1215.81 56.5549L1215.18 59.1649L1208.29 57.5132L1208.29 57.4439C1207.1 57.1601 1206.12 56.7125 1205.33 56.1011C1204.56 55.4789 1204.01 54.7443 1203.69 53.8972C1203.36 53.0359 1203.32 52.1132 1203.56 51.1291C1203.8 50.1307 1204.26 49.3205 1204.93 48.6986C1205.61 48.0766 1206.43 47.6631 1207.4 47.4581C1208.39 47.2422 1209.47 47.2762 1210.66 47.5601L1220.07 49.817L1216.22 65.8623L1212.59 64.9903L1216.19 49.9505L1217.42 51.9877L1210.49 50.3257C1209.65 50.124 1208.94 50.1718 1208.35 50.4691C1207.77 50.7664 1207.39 51.2788 1207.22 52.0062C1207.04 52.7336 1207.15 53.3693 1207.53 53.9135C1207.91 54.4434 1208.53 54.8092 1209.37 55.0109L1215.81 56.5549ZM1212.42 57.0092L1204.78 63.118L1200.54 62.1024L1208.29 56.0192L1212.42 57.0092Z" fill="#3C3C3C"/>
<path d="M1243.08 57.0091L1243.44 56.2659C1244.72 56.3124 1245.77 56.5319 1246.6 56.9245C1247.43 57.3023 1248.04 57.8166 1248.43 58.4672C1248.82 59.1031 1249.01 59.8317 1249 60.653C1248.98 61.5329 1248.76 62.3146 1248.33 62.9982C1247.91 63.6819 1247.29 64.2163 1246.48 64.6015C1245.67 64.9866 1244.65 65.171 1243.43 65.1546L1231.86 64.999L1233.25 56.5469L1232.08 48.5005L1243.24 48.6505C1244.76 48.671 1245.94 49.0461 1246.77 49.776C1247.61 50.4914 1248.02 51.4723 1248 52.7189C1247.99 53.3935 1247.82 54.0439 1247.49 54.6702C1247.17 55.2967 1246.65 55.825 1245.93 56.2553C1245.22 56.6712 1244.27 56.9224 1243.08 57.0091ZM1235.57 64.1028L1234.17 62.2797L1242.7 62.3945C1243.49 62.4051 1244.1 62.23 1244.53 61.8691C1244.98 61.4937 1245.21 60.9687 1245.22 60.2941C1245.22 59.6048 1244.98 59.0589 1244.49 58.6562C1244 58.2389 1243.27 58.0237 1242.3 58.0107L1235.35 57.9172L1235.38 55.2334L1241.89 55.321C1242.55 55.3299 1243.1 55.1539 1243.53 54.7929C1243.97 54.4176 1244.2 53.8926 1244.21 53.218C1244.22 52.7047 1244.04 52.2769 1243.68 51.9347C1243.32 51.5778 1242.79 51.3947 1242.1 51.3854L1234.31 51.2807L1235.77 49.4961L1236.84 56.5951L1235.57 64.1028Z" fill="#3C3C3C"/>
<path d="M1254.84 59.2302L1253.8 56.3792L1264.54 52.4465L1265.58 55.2975L1254.84 59.2302ZM1258.07 44.179L1270.99 57.0189L1267.25 58.3877L1255.76 46.6406L1256.92 46.217L1255.73 62.6078L1251.99 63.9766L1253.57 45.8276L1258.07 44.179Z" fill="#3C3C3C"/>
<path d="M1286.7 44.1247C1287.03 45.4886 1286.99 46.8144 1286.58 48.1022C1286.19 49.3711 1285.47 50.5104 1284.42 51.5202C1283.38 52.5248 1282.06 53.3196 1280.46 53.9045C1278.7 54.5498 1277.03 54.7796 1275.44 54.5938C1273.87 54.4029 1272.5 53.8445 1271.32 52.9185C1270.13 51.9788 1269.24 50.7032 1268.65 49.0918C1268.06 47.4804 1267.92 45.9394 1268.22 44.4689C1268.52 42.9846 1269.21 41.6631 1270.29 40.5042C1271.37 39.3402 1272.8 38.4356 1274.56 37.7902C1276.16 37.2054 1277.68 36.9615 1279.12 37.0587C1280.58 37.1508 1281.86 37.554 1282.98 38.2684C1284.12 38.9777 1285 39.9657 1285.64 41.2324L1282.11 42.5256C1281.7 41.8461 1281.18 41.3278 1280.53 40.9708C1279.88 40.6001 1279.14 40.4012 1278.32 40.3741C1277.5 40.3471 1276.61 40.5075 1275.66 40.8554C1274.57 41.2537 1273.71 41.8056 1273.06 42.5113C1272.42 43.198 1272.03 43.9983 1271.88 44.9122C1271.72 45.8122 1271.83 46.7718 1272.2 47.791C1272.58 48.8102 1273.11 49.6204 1273.82 50.2216C1274.52 50.809 1275.34 51.1656 1276.27 51.2914C1277.22 51.3984 1278.23 51.2528 1279.32 50.8545C1280.27 50.5066 1281.06 50.0638 1281.67 49.5262C1282.28 48.9748 1282.72 48.3542 1282.98 47.6644C1283.24 46.9609 1283.3 46.2121 1283.17 45.4179L1286.7 44.1247Z" fill="#3C3C3C"/>
<path d="M1324.49 40.3375L1320.32 56.3022L1316.87 55.4016L1320.73 40.6503L1321.62 40.9532L1310.98 53.8618L1307.25 52.889L1304.27 36.4654L1305.18 36.6137L1301.34 51.3437L1297.91 50.4487L1302.08 34.4841L1307.63 35.935L1310.35 51.8329L1308.79 51.4271L1318.94 38.8867L1324.49 40.3375Z" fill="#3C3C3C"/>
<path d="M1324.25 57.3289L1328.42 41.3643L1331.96 42.287L1328.26 56.421L1327.23 55.9247L1340.96 44.6384L1345.66 45.8669L1341.49 61.8315L1337.96 60.9087L1341.7 46.5832L1342.73 47.0795L1328.83 58.524L1324.25 57.3289Z" fill="#3C3C3C"/>
<path d="M1367.49 55.2171L1371.17 55.7503L1369.04 70.425L1365.36 69.8919L1367.49 55.2171ZM1361.22 52.6191L1377.9 55.0357L1377.42 58.3016L1360.75 55.885L1361.22 52.6191Z" fill="#3C3C3C"/>
<path d="M1386.1 68.3267L1388.51 63.1936L1388.55 63.1898L1394.21 51.061L1398.24 50.711L1390.14 67.9766L1386.1 68.3267ZM1388.72 65.6922L1379.31 52.3545L1383.41 51.9988L1391.06 62.8834L1388.72 65.6922Z" fill="#3C3C3C"/>
<path d="M1406.52 49.3371L1410.24 49.2799L1410.46 64.1061L1406.75 64.1634L1406.52 49.3371ZM1399.92 47.7666L1416.77 47.5072L1416.82 50.8068L1399.97 51.0662L1399.92 47.7666Z" fill="#3C3C3C"/>
</svg>
