<svg width="247" height="68" viewBox="0 0 247 68" fill="none" xmlns="http://www.w3.org/2000/svg">
<path d="M165.113 0.0083731H148.271C148.271 11.4644 140.206 16.6509 134.589 16.6509V33.8349H140.206C140.206 43.9203 141.638 67.6615 162.97 67.6615C171.153 67.6615 180.531 62.5342 180.531 62.5342V42.8457C180.531 42.8457 163.088 53.168 163.088 33.598H180.294V12.6574H164.461C164.461 12.6574 164.816 -0.346983 165.181 0.0083731H165.113ZM112.182 0.0083731H95.3402C95.3402 11.4644 87.2751 16.6509 81.6584 16.6509V33.8349H87.2751C87.2751 43.9203 88.7069 67.6615 110.039 67.6615C118.222 67.6615 127.6 62.5342 127.6 62.5342V42.8457C127.6 42.8457 110.157 53.168 110.157 33.598H127.363V12.6574H111.53C111.53 12.6574 111.885 -0.346983 112.25 0.0083731H112.182ZM41.3418 50.5959V67.6615H0V0.0083731H24.3137V50.6044H41.3418V50.5959ZM246.593 42.6004C246.534 43.438 246.475 44.1487 246.356 44.9271V45.0456C246.238 45.7648 246.119 46.4162 245.941 47.1946C245.822 47.973 245.645 48.6245 245.467 49.3437V49.4621C245.289 50.0629 245.111 50.7144 244.865 51.3743C236.741 72.5519 205.675 70.5212 188.537 61.6373L194.332 43.7426C196.06 44.6987 197.856 45.5955 199.83 46.3062C204.964 48.3961 214.164 50.4859 218.823 47.2623C220.196 46.1878 221.094 44.6395 221.39 42.6681C216.553 42.6681 210.216 42.8457 205.319 42.135C200.245 41.602 195.103 39.8083 192.061 35.6879C190.206 33.5388 189.494 29.6637 189.909 26.2032C190.502 21.0167 192.714 12.7758 192.714 12.7758H209.14C207.946 15.3987 206.751 18.6815 206.633 21.9051C210.394 17.2516 218.696 20.2975 218.459 26.3217C218.459 30.1375 215.053 34.3764 211.411 33.065C219.713 36.0517 226.287 31.6943 223.898 21.3721C223.178 18.1485 220.967 15.1702 218.578 12.7843H245.636C245.636 12.7758 247.906 29.9598 246.593 42.6004ZM61.7076 33.8349C57.2854 33.8349 53.1682 32.5235 49.7626 30.256V67.6615H73.7205V30.256C70.2471 32.5235 66.1299 33.8349 61.7076 33.8349ZM61.7076 23.3942C55.2522 23.3942 49.9998 18.14 49.9998 11.7013C49.9998 5.25411 55.1929 0.0083731 61.7076 0.0083731C68.2224 0.0083731 73.4155 5.26257 73.4155 11.7013C73.4155 18.14 68.1631 23.3942 61.7076 23.3942Z" fill="#2C2C2C"/>
</svg>
