<svg width="260" height="73" viewBox="0 0 260 73" fill="none" xmlns="http://www.w3.org/2000/svg">
<path d="M173.762 0.68405H156.053C156.053 12.7555 147.573 18.2206 141.667 18.2206V36.3277H147.573C147.573 46.9548 149.078 71.9713 171.508 71.9713C180.113 71.9713 189.974 66.5686 189.974 66.5686V45.8225C189.974 45.8225 171.633 56.6993 171.633 36.078H189.725V14.0125H173.076C173.076 14.0125 173.45 0.309605 173.833 0.68405H173.762ZM118.105 0.68405H100.396C100.396 12.7555 91.9161 18.2206 86.0102 18.2206V36.3277H91.9161C91.9161 46.9548 93.4215 71.9713 115.852 71.9713C124.457 71.9713 134.318 66.5686 134.318 66.5686V45.8225C134.318 45.8225 115.976 56.6993 115.976 36.078H134.068V14.0125H117.419C117.419 14.0125 117.794 0.309605 118.177 0.68405H118.105ZM43.6175 53.989V71.9713H0.147064V0.68405H25.7127V53.9979H43.6175V53.989ZM259.438 45.564C259.375 46.4466 259.313 47.1955 259.188 48.0157V48.1405C259.064 48.8983 258.939 49.5848 258.752 50.405C258.627 51.2252 258.44 51.9117 258.253 52.6695V52.7943C258.066 53.4273 257.879 54.1138 257.621 54.8092C249.078 77.1244 216.413 74.9847 198.392 65.6236L204.485 46.7676C206.302 47.775 208.191 48.72 210.266 49.4689C215.664 51.671 225.338 53.8731 230.238 50.4764C231.681 49.3441 232.625 47.7126 232.937 45.6353C227.85 45.6353 221.187 45.8225 216.039 45.0736C210.703 44.512 205.296 42.6219 202.098 38.2801C200.147 36.0156 199.399 31.9324 199.835 28.286C200.459 22.8209 202.784 14.1373 202.784 14.1373H220.056C218.8 16.9011 217.544 20.3603 217.419 23.757C221.374 18.8536 230.104 22.0631 229.855 28.4108C229.855 32.4317 226.274 36.8983 222.443 35.5164C231.173 38.6635 238.086 34.0721 235.574 23.1953C234.816 19.7986 232.491 16.6604 229.979 14.1462H258.431C258.431 14.1373 260.819 32.2444 259.438 45.564ZM65.0321 36.3277C60.3822 36.3277 56.053 34.9458 52.472 32.5565V71.9713H77.6635V32.5565C74.0113 34.9458 69.682 36.3277 65.0321 36.3277ZM65.0321 25.3261C58.2443 25.3261 52.7214 19.7897 52.7214 13.0051C52.7214 6.21157 58.1819 0.68405 65.0321 0.68405C71.8823 0.68405 77.3428 6.22049 77.3428 13.0051C77.3428 19.7897 71.8199 25.3261 65.0321 25.3261Z" fill="white"/>
</svg>
