<svg width="99" height="84" viewBox="0 0 99 84" fill="none" xmlns="http://www.w3.org/2000/svg">
<path d="M18.0971 65.7008C18.053 66.44 18.0283 67.1026 18.0202 67.5777C18.0162 67.8145 18.0162 68.0091 18.0203 68.1447C18.0223 68.2101 18.0256 68.2728 18.0316 68.3224C18.0338 68.3402 18.0396 68.3876 18.0567 68.4377C18.0568 68.4379 18.0569 68.4383 18.0571 68.4388C18.0611 68.4513 18.0921 68.5476 18.1878 68.6332C18.2495 68.6885 18.3836 68.7781 18.5842 68.776C18.7781 68.774 18.9049 68.6872 18.9592 68.6407C18.9975 68.6079 19.0295 68.5695 19.0371 68.5604L19.0383 68.559C19.0537 68.5407 19.0715 68.5187 19.0904 68.4948C19.1288 68.4465 19.1795 68.381 19.2402 68.3016C19.362 68.1423 19.5297 67.9199 19.7308 67.6519C19.9124 67.4101 20.122 67.1301 20.3509 66.8243L20.4264 66.7234C20.6849 66.3781 20.9661 66.0025 21.2585 65.6131L21.2593 65.612C28.3839 56.0592 35.8167 50.1375 55.0661 38.793L55.0663 38.7928C75.8396 26.5349 83.115 19.809 85.7578 10.0127L85.7579 10.0126C86.3458 7.82977 87.7265 6.25982 88.8322 5.70836C89.3917 5.4293 89.7186 5.47717 89.8831 5.58563C90.0877 5.72058 90.3452 6.12369 90.3016 7.0853C90.0986 11.5649 87.4421 16.3824 82.1294 21.6315C76.819 26.8783 68.8927 32.5181 58.2413 38.6353L58.241 38.6355C40.1646 49.0312 32.1079 55.5597 24.3252 66.1141L24.3242 66.1156C23.524 67.2096 22.9093 68.0621 22.4732 68.7017C22.049 69.3238 21.7608 69.7903 21.6556 70.089C21.6282 70.1669 21.6015 70.2644 21.6017 70.3668C21.6019 70.4646 21.6283 70.6467 21.8107 70.7873C21.995 70.9294 22.211 70.9313 22.3258 70.9196C22.4444 70.9076 22.5522 70.8729 22.634 70.8417C22.9458 70.7227 23.4002 70.4442 23.9355 70.0966C25.9172 68.8154 28.2913 67.5188 30.3896 66.523C31.4387 66.0251 32.4121 65.6056 33.228 65.3017C34.0593 64.992 34.6768 64.8219 35.0351 64.7882C35.2985 64.7655 35.4885 64.7679 35.6172 64.7834C35.622 64.784 35.6267 64.7846 35.6312 64.7852C35.6208 64.8015 35.6083 64.8198 35.5932 64.8401C35.4331 65.0564 35.095 65.3638 34.5449 65.7468C34.0034 66.1236 33.2864 66.5534 32.4015 67.0185L32.4004 67.0191C25.4284 70.7031 22.5902 72.7045 17.6853 77.4621C14.7755 80.2798 12.797 81.0047 11.7986 81.0239C11.3113 81.0332 11.1341 80.8813 11.088 80.8119C11.0466 80.7497 11.0345 80.649 11.1669 80.5359C11.3221 80.4031 11.4412 80.219 11.5367 80.038C11.6373 79.8475 11.7336 79.6171 11.8263 79.3583C12.0119 78.84 12.1947 78.1736 12.3697 77.4111C12.7201 75.8841 13.0477 73.9357 13.3054 71.9386C13.5632 69.9409 13.7522 67.8856 13.8239 66.1437C13.8946 64.4239 13.8546 62.9484 13.6236 62.1498L13.6227 62.1467C13.4259 61.486 13.5008 61.1396 13.6885 60.9195C13.8958 60.6764 14.3502 60.4508 15.2965 60.2704L15.2996 60.2698C15.8507 60.1617 16.2714 60.1977 16.598 60.328C16.9239 60.4579 17.2214 60.7076 17.4698 61.1318C17.9807 62.0042 18.2177 63.5021 18.0971 65.7008ZM18.0971 65.7008C18.0972 65.7005 18.0972 65.7001 18.0972 65.6998L18.6335 65.7234M18.0971 65.7008C18.0971 65.7011 18.0971 65.7014 18.0971 65.7017L18.6335 65.7234M18.6335 65.7234C18.5919 66.4209 18.5677 67.0486 18.5585 67.5116L15.1797 59.8214C17.7185 59.3235 18.8765 61.2965 18.6335 65.7234ZM18.1602 68.0286C18.1602 68.0287 18.1616 68.027 18.1643 68.024C18.1616 68.0272 18.1603 68.0286 18.1602 68.0286Z" fill="#5EB0DE" stroke="black"/>
</svg>
