<svg width="409" height="147" viewBox="0 0 409 147" fill="none" xmlns="http://www.w3.org/2000/svg">
<path d="M315.378 21.9976C250.831 -7.40026 126.285 -3.38777 62.1926 21.4814C33.0035 32.8077 -20.9065 65.8435 11.5299 97.6246C17.2509 103.23 24.2208 107.801 31.4376 111.764C110.861 155.38 222.093 151.784 307.842 126.632C320.631 122.881 333.221 118.41 344.818 112.293C353.492 107.718 361.886 102.032 368.663 95.3738C388.499 75.883 383.494 56.0909 362.42 39.2981C337.985 19.8281 304.426 13.6101 272.745 10.1104C245.042 7.05018 217.356 6.30387 189.493 7.27494C137.238 9.0958 77.0106 12.1557 33.0098 38.2256C13.7914 49.6126 -6.94318 74.0888 9.319 94.1333C26.9412 115.854 68.8039 123.143 96.9621 127.9C172.924 140.733 293.299 135.491 362.799 103.723C370.294 100.297 377.884 97.1088 384.599 92.5816C389.905 89.0044 394.989 84.9186 399.407 80.4891C430.711 49.0982 361.499 28.7303 337.065 25.1435C260.197 13.8599 146.427 -2.4437 75.3626 25.618" stroke="#ABD7F0" stroke-width="2" stroke-miterlimit="1.5" stroke-linecap="round" stroke-linejoin="round"/>
</svg>
