<svg width="50" height="59" viewBox="0 0 50 59" fill="none" xmlns="http://www.w3.org/2000/svg">
<path d="M19 52.5808C18.3412 48.4472 17.0605 44.7416 15.3314 41.7775C13.3876 38.4454 10.8432 36.0013 7.94418 35C10.8432 33.9987 13.3876 31.5546 15.3314 28.2225C17.0605 25.2584 18.3412 21.5528 19 17.4192C19.6588 21.5528 20.9395 25.2584 22.6686 28.2225C24.6124 31.5546 27.1568 33.9987 30.0558 35C27.1568 36.0013 24.6124 38.4454 22.6686 41.7775C20.9395 44.7416 19.6588 48.4472 19 52.5808Z" fill="#FFBFDB" stroke="black"/>
<path d="M5 8.5001C5.55954 7.17006 6.55261 6.09279 7.79395 5.5C6.55261 4.90722 5.55954 3.82994 5 2.4999C4.44046 3.82994 3.44739 4.90722 2.20605 5.5C3.44739 6.09279 4.44046 7.17006 5 8.5001Z" fill="#FFBFDB" stroke="black"/>
<path d="M41.5 24.7093C42.4146 21.7949 44.5106 19.4756 47.1763 18.5C44.5106 17.5244 42.4146 15.2051 41.5 12.2907C40.5854 15.2051 38.4894 17.5244 35.8237 18.5C38.4894 19.4756 40.5854 21.7949 41.5 24.7093Z" fill="#FFBFDB" stroke="black"/>
</svg>
