<svg width="81" height="70" viewBox="0 0 81 70" fill="none" xmlns="http://www.w3.org/2000/svg">
<path fill-rule="evenodd" clip-rule="evenodd" d="M70.2852 44.0902C68.4446 50.1469 67.3825 58.1272 67.5905 64.0566C67.8275 70.6493 63.8465 68.9776 60.2713 65.1433C57.8289 62.5421 54.3866 60.046 49.6843 57.5935C48.3641 56.904 48.6837 56.37 51.2293 54.8828C57.5296 51.2305 57.1351 51.753 55.1051 49.7878C53.3889 48.1085 49.1632 45.8374 40.8206 42.1112C38.053 40.864 29.1799 36.732 27.1449 35.7704C17.6674 31.4049 10.4343 22.8488 8.39345 13.548C6.79671 6.28132 11.7797 4.96434 13.1947 10.8096C14.8834 17.9176 19.2046 24.3835 25.4626 29.171C27.8314 30.9833 30.242 32.1863 43.8511 38.4303C58.1355 44.962 57.9653 45.3355 61.0256 48.2264C62.0933 47.4404 66.4956 44.122 67.3654 43.4135C69.1706 41.9095 70.8247 42.3048 70.2852 44.0902Z" fill="#E3EF91"/>
<path fill-rule="evenodd" clip-rule="evenodd" d="M67.3654 43.4135C69.1706 41.9095 70.8247 42.3048 70.2852 44.0902C68.4446 50.1469 67.3825 58.1272 67.5905 64.0566C67.8275 70.6493 63.8465 68.9776 60.2713 65.1433C57.8289 62.5421 54.3866 60.046 49.6843 57.5935C48.3641 56.904 48.6837 56.37 51.2293 54.8828C55.1061 52.6354 56.448 51.9688 56.4337 51.3306C56.4248 50.9316 55.8859 50.5438 55.1051 49.7878C53.3889 48.1085 49.1632 45.8374 40.8206 42.1112C38.053 40.864 29.1799 36.732 27.1449 35.7704C17.6674 31.4049 10.4343 22.8488 8.39345 13.548C6.79671 6.28132 11.7797 4.96434 13.1947 10.8096C14.8834 17.9176 19.2046 24.3835 25.4626 29.171C27.8314 30.9833 30.242 32.1863 43.8511 38.4303C57.1383 44.506 57.9186 45.2534 60.4259 47.6548C60.6141 47.835 60.812 48.0246 61.0256 48.2264C62.0933 47.4404 66.4956 44.122 67.3654 43.4135ZM41.2258 41.1954C38.4648 39.9512 29.6001 35.8231 27.5675 34.8627L27.5587 34.8585L27.5587 34.8585C18.3319 30.6086 11.3326 22.2912 9.36699 13.3333L9.36692 13.333C8.99046 11.6198 9.02156 10.3402 9.23767 9.47973C9.45792 8.60278 9.83007 8.27871 10.0458 8.1893C10.2151 8.11913 10.5217 8.09781 10.9539 8.49212C11.4007 8.89971 11.9019 9.70713 12.2258 11.0443C13.9731 18.396 18.4354 25.054 24.8599 29.9691C27.341 31.8671 29.885 33.1242 43.4386 39.3428L43.4398 39.3433C50.5927 42.6141 54.0692 44.3178 56.139 45.5556C57.868 46.5897 58.5858 47.2768 59.734 48.3761C59.9234 48.5574 60.1245 48.7499 60.3438 48.957L60.9478 49.5275L61.6152 49.0362C62.6814 48.2513 67.1023 44.9195 67.9935 44.1935L68.0021 44.1865L68.002 44.1865C68.3827 43.8693 68.7269 43.6767 69.0012 43.5763C69.1828 43.5099 69.3116 43.4914 69.3912 43.4892C69.3883 43.5536 69.3746 43.6534 69.3315 43.7963C67.4603 49.9542 66.3821 58.045 66.5941 64.0903L66.5942 64.0912C66.6511 65.6759 66.4417 66.585 66.1797 67.0555C66.0583 67.2734 65.9379 67.3756 65.8419 67.4285C65.7452 67.4817 65.611 67.5188 65.41 67.5084C64.9717 67.4857 64.3285 67.2412 63.5137 66.6874C62.7205 66.1483 61.8575 65.3797 60.9979 64.4578L60.9955 64.4552C58.4633 61.7584 54.9377 59.2103 50.2017 56.7343C50.2372 56.7068 50.2757 56.6777 50.3173 56.647C50.6414 56.4088 51.1021 56.1178 51.7295 55.7512C52.2615 55.4428 52.7494 55.1622 53.1942 54.9063C54.0515 54.4131 54.7488 54.0119 55.2938 53.6816C55.7103 53.4292 56.0633 53.2031 56.3473 52.9951C56.622 52.7938 56.887 52.5707 57.0829 52.3134C57.2933 52.0371 57.4651 51.6643 57.4251 51.213C57.3883 50.7985 57.1845 50.4825 57.0229 50.2773C56.8588 50.0689 56.6502 49.8676 56.4592 49.6883C56.3902 49.6235 56.3216 49.56 56.2518 49.4953C56.1099 49.3636 55.9629 49.2274 55.7975 49.0673C54.8323 48.1236 53.2413 47.082 50.9163 45.8326C48.5709 44.5721 45.4035 43.0614 41.2258 41.1954Z" fill="black"/>
</svg>
