<svg width="1440" height="705" viewBox="0 0 1440 705" fill="none" xmlns="http://www.w3.org/2000/svg">
<path d="M893.938 325.17C895.025 307.752 896.595 290.341 898.647 272.937V272.92L898.664 272.779L898.69 272.562C864.966 277.559 829.341 283.36 791.672 290.102C767.057 296.554 741.556 302.161 715.353 306.881C710.12 323.808 706.382 341.72 704.369 361.007C772.822 346.854 834.819 334.751 893.938 325.17Z" fill="white"/>
<path d="M893.939 325.17C941.49 317.288 990.131 311.082 1039.49 306.6C1037.71 326.774 1036.15 350.931 1036.29 378.678C991.195 383.536 944.655 390.602 892.729 399.951C891.721 371.795 892.528 346.723 893.939 325.17Z" fill="white"/>
<path fill-rule="evenodd" clip-rule="evenodd" d="M64.8505 0H0.00268555V45.3518C23.4316 45.6425 46.8119 46.5476 70.043 48.0632C70.5614 70.9542 68.2863 94.4359 64.5423 118.649C43.1705 117.039 21.6166 116.074 0.00268555 115.759L0.00268555 179.804C7.77855 180.236 15.7099 180.69 23.7047 181.146C33.1509 181.696 42.7123 182.231 52.2737 182.752C50.7186 189.974 49.1346 197.251 47.5218 204.628L45.3619 214.511C42.6547 227.082 39.9188 239.837 37.3268 252.775C26.4233 252.189 16.2456 251.603 6.67265 251.052H6.53441H6.48833L0.00268555 250.661V316.521C8.83453 317.376 17.628 318.345 26.383 319.426C23.5319 343.175 21.9479 367.417 22.6679 392.053C15.18 390.831 7.62495 389.719 0.00268555 388.716V448.217C9.60251 449.345 19.0286 450.535 28.2809 451.788C24.7702 431.648 22.9559 411.731 22.5239 392.114C50.6262 396.7 78.1242 402.131 104.862 408.374C122.688 412.484 143.05 417.495 164.361 422.747L168.638 423.792C165.715 397.341 165.833 371.183 167.932 345.221C193.622 351.161 215.826 356.652 236.821 361.859C248.369 364.731 259.572 367.499 270.862 370.235C272.158 395.983 275.038 422.534 280.337 449.676C275.326 448.672 270.343 447.649 265.39 446.607C235.006 440.164 201.023 431.875 168.984 423.992C170.21 435.272 172.058 446.61 174.528 458.008V459.02C175.262 464.481 176.1 470.053 176.955 475.728C177.105 476.727 177.256 477.727 177.407 478.73L176.227 478.547C128.377 467.824 78.9411 458.885 28.3414 451.807C29.119 456.178 29.9541 460.558 30.9045 464.933C33.8997 484.037 37.0388 505.407 40.1492 527.425C26.9014 525.096 13.5192 522.966 0.00268555 521.036V609.337C1.45994 609.619 4.36005 610.093 8.08382 610.706C23.408 613.23 52.723 618.055 53.0629 620.785V620.801C56.4804 647.071 60.1427 673.336 64.0499 699.596L54.3156 697.441C35.714 693.306 17.6827 689.308 0.00268555 685.53V704.987H209.297C207.644 695.457 204.977 676.506 201.657 652.271C181.275 648.139 160.721 643.698 139.68 639.075L115.114 633.655C94.8682 629.15 74.075 624.547 52.9937 620.07L52.4465 616.064C48.6191 587.979 44.4115 557.127 40.178 527.425C66.8463 532.057 92.4202 537.251 117.476 542.727C135.907 546.753 155.552 551.309 175.651 555.971L177.546 556.411L188.947 559.045C185.204 531.954 181.29 504.272 177.428 478.73C203.232 484.37 225.724 489.626 246.748 494.539C263.221 498.411 278.802 502 294.325 505.449C299.278 520.695 305.672 537.701 312.18 555.003L313.18 557.659V557.669L313.197 557.715C316.866 567.481 320.558 577.307 323.985 586.932C309.586 584.622 295.704 582.116 282.025 579.459C252.341 573.678 220.474 566.371 189.063 559.103C193.336 590.165 197.569 621.228 201.76 652.292C232.474 658.635 263.897 664.122 295.877 668.726C312.596 671.091 329.459 673.048 346.466 674.595C344.715 652.469 337.469 625.951 327.614 597.329C326.433 593.922 325.224 590.473 323.957 587.01C368.999 594.201 417.324 599.06 470.315 598.713H473.858C482.066 623.983 489.006 650.617 490.475 675.324C442.819 679.478 394.006 679.287 346.492 674.76C347.433 684.141 346.908 693.543 344.923 702.885L344.551 705H489.124C490.824 695.089 491.305 685.137 490.564 675.197C539.791 670.826 583.051 661.02 627.794 650.603L628.197 650.519C630.349 656.432 632.538 662.438 634.763 668.538L639.216 680.76C642.096 688.671 645.037 696.751 648.04 705H1439.98V251.157C1430.87 250.654 1421.79 250.128 1412.66 249.597L1412.25 249.573C1395.86 248.601 1379.24 247.63 1361.91 246.753C1365.28 223.35 1371.12 200.049 1379.39 176.941C1401.03 177.961 1421.19 179.095 1439.58 180.128H1439.65L1439.98 180.148V115.88C1427.46 115.638 1413.97 115.457 1399.63 115.342C1397.59 123.309 1395.31 130.91 1392.89 138.358C1390.57 145.281 1388.11 152.191 1385.65 159.102V159.137C1383.53 165.059 1381.42 170.995 1379.4 176.931C1331.26 174.542 1282.89 173.485 1234.51 173.764C1237.19 165.19 1240.07 157.109 1242.95 149.325C1245.65 141.779 1248.24 134.52 1250.58 127.278C1251.71 123.8 1252.81 120.258 1253.89 116.65C1307.61 115.327 1357.19 115.017 1399.53 115.34C1405.43 92.0134 1408.59 68.5401 1409 45.036C1419.84 45.1375 1430.19 45.2757 1439.99 45.4463V0H1407.93C1409.05 16.147 1409.33 31.7597 1408.99 45.036C1367.34 44.6426 1318.39 44.8118 1264.88 45.937C1265.29 32.6691 1264.99 16.7872 1263.72 0H1116.14C1121.71 16.8514 1123.7 33.9394 1122.1 50.9917C1171.8 48.4862 1219.98 46.8802 1264.96 45.937C1264.45 69.6018 1260.75 93.2244 1253.87 116.65C1204.86 117.861 1152.44 119.917 1099.05 123.084C1110.21 99.712 1119.78 76.1457 1122.09 51.0763C1074.37 53.4409 1025.13 56.7078 976.17 60.9306C981.138 40.5799 978.821 19.9609 969.321 0L794.111 0C802.561 26.701 805.717 53.7395 803.537 80.738C774.939 85.0031 746.975 89.7477 720.018 94.9984C698.943 98.4418 677.407 101.17 655.565 103.164C662.454 75.1847 661.893 46.8863 653.895 18.9783C666.106 16.2189 678.403 13.2636 690.845 9.99672C697.618 8.43306 704.285 6.59727 710.852 4.79109C717.052 3.08502 723.158 1.40997 729.18 0H648.017C650.237 5.85703 652.112 12.5812 653.696 18.2606L653.895 18.9783C598.611 31.6807 539.452 39.8648 478.765 43.2058C483.46 27.854 487.08 12.6982 489.168 0H344.563C342.221 11.191 338.227 25.6615 333.27 40.9823C307.286 38.9044 281.572 36.0838 256.26 32.5352C241.554 30.4672 227.077 28.2244 212.831 25.8068C212.114 17.5302 210.996 8.19477 209.484 0.00422992H88.3797C96.7689 1.8372 105.268 3.72656 113.873 5.64413C145.483 12.6743 178.522 20.0287 212.831 25.8025C213.954 38.4021 214.271 50.9452 214.098 63.5447C166.995 56.5568 118.849 51.3791 70.1006 48.059C69.7838 32.1474 68.1567 15.4124 64.8505 0ZM272.993 284.555C275.412 258.919 279.271 234.36 283.994 211.013L279.001 210.086H278.96H278.929C275.761 209.501 272.593 208.917 269.425 208.346C245.608 204.025 220.466 199.83 194.229 196.099C193.269 200.548 192.309 204.992 191.349 209.431C190.447 213.615 189.487 217.787 188.469 221.945C185.186 237.101 181.964 252.26 179.026 267.441C137.443 260.604 94.5038 255.931 50.9202 253.499L37.3556 252.768C33.1221 274.504 29.119 296.732 26.383 319.426C77.1565 325.62 123.466 334.911 165.83 344.766L167.932 345.217C170.064 319.132 174.237 293.225 179.133 267.469C192.602 269.617 205.916 271.921 219.34 274.335C235.813 277.319 254.072 280.853 272.993 284.555ZM272.993 284.555C270.401 311.978 269.451 340.599 270.862 370.233C287.508 374.244 304.269 378.144 322.528 381.987C352.685 388.665 384.273 393.67 416.702 396.909C413.477 366.727 413.045 337.783 414.629 310.035C404.031 308.515 393.615 306.906 383.381 305.207C352.039 300.04 316.63 293.107 282.84 286.493L282.586 286.443L272.993 284.555ZM64.5423 118.649C112.321 122.281 158.285 128.66 206.178 136.161C202.866 156.152 198.575 176.142 194.226 196.077C147.818 189.576 100.324 185.101 52.3025 182.703C57.0257 160.699 61.3456 139.386 64.5423 118.649ZM1439.98 316.789C1411.33 313.546 1383.92 310.784 1357.44 308.501C1357.58 288.29 1358.88 268.375 1361.61 248.769C1361.61 248.274 1361.71 247.802 1361.8 247.324V247.31L1361.82 247.202C1361.85 247.071 1361.87 246.939 1361.9 246.805C1318.55 244.588 1274.95 243.713 1231.38 244.186L1217.87 244.398V243.975C1221.79 215.988 1227.95 193.533 1234.43 173.768H1228.04C1175.36 174.409 1122.83 176.765 1070.79 180.818C1076.19 169.021 1081.87 157.639 1087.47 146.427L1087.61 146.145C1090.81 139.81 1093.95 133.475 1097 127.252C1097.33 126.549 1097.66 125.844 1098.01 125.137C1098.34 124.432 1098.68 123.727 1099.01 123.022C1047.73 126.081 995.563 130.177 944.626 135.566C945.737 133.383 946.854 131.198 947.975 129.013L948.015 128.934C959.515 106.47 971.055 83.9203 976.161 60.8883C917.882 65.838 860.258 72.4841 803.595 80.7915C801.024 107.006 793.943 133.067 782.427 158.698C835.185 148.983 889.392 141.27 944.568 135.628C935.39 153.913 925.56 174.181 917.209 196.737C967.802 190.12 1019.07 184.806 1070.8 180.815C1059.4 205.075 1051.11 229.661 1045.97 254.427C996.287 259.257 947.131 265.309 898.69 272.559C901.703 247.141 907.907 221.838 917.266 196.793C865.945 203.465 810.708 211.898 751.237 222.414C737.701 248.908 724.526 276.262 715.31 306.833C669.679 315.135 621.641 319.832 572.997 320.747H566.546C561.25 344.403 558.635 368.185 558.713 391.983C589.894 386.801 621.403 379.61 652.449 372.525C669.905 368.541 687.213 364.591 704.234 361.051C701.697 386.419 702.332 411.84 706.137 437.171L686.87 441.212C648.848 451.307 608.356 458.992 566.37 464.082L566.201 463.329L566.028 462.751V462.174C561.074 437.031 558.914 413.746 558.828 391.983C527.879 397.211 495.284 399.718 462.551 399.387C447.194 399.172 431.899 398.343 416.818 396.909C419.294 420.174 423.413 444.169 429.576 468.846C375.375 466.284 325.898 458.782 280.452 449.671C282.583 460.642 285.089 471.698 287.969 482.837C289.553 489.707 291.799 497.338 294.42 505.446C307.956 508.458 321.491 511.33 335.545 514.075C375.49 521.889 411.691 526.906 448.439 527.985C440.836 507.698 434.356 489.735 430.872 474.688V474.208C430.584 473.127 430.339 472.054 430.086 470.981L429.993 470.599C429.855 470.015 429.716 469.43 429.576 468.845C439.166 469.31 448.929 469.62 458.836 469.746C495.015 470.175 531.151 468.276 566.319 464.095C570.895 481.182 575.906 498.299 581.378 515.766C612.081 509.477 642.084 502.179 672.044 494.89C687.104 491.224 702.151 487.566 717.26 484.033L716.793 482.448C714.069 473.216 711.367 464.054 709.052 454.878C707.919 448.834 706.94 442.931 706.114 437.167C777.306 422.189 838.016 409.801 892.706 399.944C893.224 414.64 894.3 430.172 895.932 446.54C931.559 440.379 968.084 435.541 1005.2 432.068C1016.16 431.074 1027.26 430.206 1038.49 429.464C1040.3 451.37 1043.33 474.894 1048.08 499.853C1100.87 495.868 1159.82 495.404 1233.86 500.107L1233.43 497.545C1229.46 474.64 1225.69 451.636 1222.49 428.563C1154.98 425.312 1095.11 425.705 1038.49 429.464C1037.02 411.416 1036.36 394.467 1036.27 378.671C1049.72 377.261 1063.05 375.968 1076.36 374.912C1122.49 371.262 1169.28 370.012 1215.95 371.183C1213.99 347.56 1213.07 324.022 1213.56 300.684C1159.97 299.65 1106.3 301.244 1053.35 305.441C1048.71 305.808 1044.08 306.203 1039.47 306.596L1039.53 305.849C1041.03 288.697 1042.53 271.516 1045.95 254.427C1102.62 248.866 1160.1 245.51 1217.85 244.389C1215.29 262.986 1213.96 281.781 1213.56 300.701C1261.82 301.686 1309.88 304.296 1357.41 308.514C1357.21 332.117 1358.56 356.099 1360.95 380.448C1313.17 375.595 1264.71 372.5 1215.98 371.189C1217.57 390.305 1219.75 409.46 1222.51 428.653C1271.61 431.215 1320.38 435.125 1368.59 440.366C1365.53 420.179 1362.83 400.19 1360.98 380.453C1385.88 382.874 1412.11 385.779 1439.95 389.195L1439.98 316.789ZM1439.98 448.654C1415.27 445.562 1391.5 442.8 1368.67 440.367C1371.2 457.317 1373.99 474.412 1377.02 491.653C1378.23 499.07 1379.53 506.531 1380.94 513.991C1332.54 508.073 1283.52 503.455 1234.09 500.156C1235.8 510.734 1237.58 521.283 1239.45 531.803C1242.35 548.199 1245.23 564.524 1248.09 580.778C1298.32 585.772 1347.72 592.586 1395.88 601.164C1392.01 576.433 1387.63 551.703 1383.3 527.208L1380.97 513.998C1399.81 516.211 1419.48 518.701 1439.98 521.471V448.654ZM1439.98 609.326C1424.93 606.429 1410.2 603.708 1395.77 601.164C1399.8 626.883 1403.31 652.703 1405.76 678.45C1358.03 668.669 1308.95 660.54 1258.89 654.124C1256.01 629.854 1252.09 605.401 1247.94 580.778C1188.36 574.78 1127.39 572.795 1066.71 574.88C1073.56 597.284 1081.94 620.541 1091.85 644.65C1074.61 645.031 1057.43 645.872 1040.38 647.17C1009.88 649.58 979.828 653.206 950.53 658.011C940.611 633.957 932.198 610.692 925.29 588.217C955.678 583.63 986.679 580.078 1018.07 577.589C1034.14 576.35 1050.33 575.449 1066.68 574.769C1058.65 548.528 1052.6 523.498 1048.08 499.791C1000 504.464 952.871 510.383 907.365 519.57C911.941 541.449 917.785 564.34 925.177 588.186C870.974 596.206 817.827 607.148 763.192 619.328C755.186 597.202 747.729 576.455 740.875 556.566L740.538 556.645C725.119 560.225 709.104 563.943 692.29 567.801C664.346 575.21 635.233 581.509 605.23 586.637C612.372 606.922 620.032 628.082 628.269 650.509C646.47 646.324 664.355 642.171 681.923 638.05C709.553 631.607 736.604 625.318 763.137 619.354C767.361 631.01 771.747 643.065 776.296 655.52C779.308 663.739 782.374 672.152 785.494 680.758L789.255 691.105C781.276 692.938 773.308 694.782 765.352 696.637L765.286 696.653L765.193 696.674C758.474 698.234 751.76 699.789 745.054 701.34L729.315 704.987H794.292L794.223 704.798C794.114 704.497 794.005 704.196 793.898 703.896V703.879C792.341 699.571 790.795 695.313 789.261 691.106C849.219 677.318 900.632 666.061 950.458 658.036C951.203 659.848 951.952 661.66 952.727 663.486C957.796 676.846 963.325 690.36 968.077 701.96L969.315 704.987H1116.07C1113.79 699.235 1111.06 692.501 1108.19 685.446C1104.15 675.577 1100.19 665.707 1096.31 655.837V655.795L1096.27 655.697C1094.8 652.017 1093.34 648.337 1091.87 644.657C1140.83 643.587 1194.94 646.191 1258.91 654.131C1261.05 671.176 1262.69 688.13 1263.84 704.994H1407.89C1407.34 696.159 1406.63 687.313 1405.79 678.457C1416.95 680.713 1428.32 683.054 1440 685.551L1439.98 609.326ZM88.3422 704.987C85.6869 704.404 83.0431 703.823 80.4108 703.242L64.0527 699.629C64.3407 701.542 64.6153 703.328 64.8764 704.987H88.3422ZM460.178 100.351C461.82 95.3688 463.474 90.3935 465.14 85.4247V85.4148C469.832 71.3715 474.52 57.3282 478.762 43.2496C430.286 45.7318 381.346 45.0029 333.267 41.0824C330.752 48.8063 328.035 57.0227 325.117 65.7316C323.543 70.4522 321.911 75.3279 320.221 80.3587L321.552 80.5758C339.983 83.5819 357.877 86.4977 375.228 89.1428C404.028 93.4926 432.009 97.363 460.141 100.404C453.033 121.928 445.551 145.179 438.731 170.091C497.136 175.989 559.257 179.03 626.388 176.116C638.945 151.17 649.687 127.613 655.562 103.207C586.539 109.47 523.358 107.12 460.178 100.351ZM298.423 151.028C305.565 125.237 313.168 101.573 320.224 80.3432L311.296 78.9332L310.331 78.7739C279.608 73.7262 247.583 68.4655 213.925 63.6448C213.292 87.7173 210.325 111.959 206.178 136.215C224.074 139.035 241.924 141.917 259.774 144.803C272.651 146.889 285.534 148.964 298.423 151.028ZM590.248 249.573C579.8 273.1 571.851 296.876 566.431 320.806C511.654 321.37 461.428 316.717 414.629 310.107C416.155 284.773 419.044 260.563 423.295 237.479C395.618 232.805 370.796 227.907 343.926 222.598C325.494 218.954 306.055 215.11 284.023 211.013C288.257 189.981 293.21 169.934 298.423 151.042C309.568 152.802 320.915 154.59 332.435 156.349C366.735 161.544 401.928 166.387 438.734 170.104C432.888 191.37 427.534 213.848 423.3 237.465L429.461 238.507C477.959 246.517 521.907 251.149 567.986 250.389C575.244 250.262 582.645 249.988 590.248 249.573ZM590.248 249.573C598.773 230.032 608.161 211.732 617.204 194.148C618.041 192.516 618.88 190.892 619.721 189.276C622.025 184.846 624.28 180.474 626.391 176.131C679.827 173.872 732.366 168.002 782.513 158.688C775.406 174.928 767.178 191.028 758.95 207.13V207.144C756.35 212.228 753.763 217.314 751.188 222.401C734.447 225.37 718.25 228.806 702.12 232.228C666.256 239.837 630.711 247.376 590.248 249.573ZM468.311 528.318C461.658 528.318 455.035 528.317 448.439 528.064L452.327 538.411C457.886 553.122 463.847 568.932 469.607 585.627C470.555 588.35 471.476 591.146 472.406 593.967V593.976L472.447 594.101V594.12C472.942 595.625 473.443 597.14 473.947 598.65C518.706 598.041 562.996 594.013 605.215 586.712C596.575 562.037 588.598 538.65 581.427 515.845C537.919 524.652 501.056 528.016 468.311 528.318ZM717.34 484.015C724.252 507.44 732.086 531.301 740.812 556.571C750.442 554.34 760.066 552.099 769.683 549.846H769.7C815.149 539.233 860.62 528.615 907.437 519.523C902.023 493.734 898.394 469.365 895.917 446.559C837.29 456.514 779.461 469.551 717.34 484.009V484.015Z" fill="white"/>
<path d="M212.831 25.803C227.077 28.2235 241.554 30.4663 256.261 32.5315C281.573 36.0802 307.288 38.9008 333.273 40.9788C338.238 25.662 342.224 11.1912 344.565 0H209.493C210.996 8.19492 212.114 17.5305 212.831 25.803Z" fill="#DFF183"/>
<path d="M478.765 43.2059C483.46 27.854 487.08 12.6982 489.168 0H648.017C650.237 5.85703 652.112 12.5812 653.696 18.2606L653.895 18.9783C598.611 31.6807 539.452 39.8648 478.765 43.2059Z" fill="#DFF183"/>
<path d="M653.895 18.9783C666.106 16.2189 678.404 13.2636 690.845 9.99672C697.619 8.43306 704.286 6.59727 710.852 4.79109C717.052 3.08502 723.158 1.40997 729.18 0H794.111C802.561 26.701 805.718 53.7395 803.537 80.738C774.939 85.0031 746.975 89.7477 720.019 94.9984C698.943 98.4418 677.408 101.17 655.566 103.164C662.454 75.1847 661.893 46.8863 653.895 18.9783Z" fill="#DFF183"/>
<path d="M969.321 0C978.818 19.9612 981.132 40.5802 976.161 60.9306C1025.12 56.7078 1074.37 53.4409 1122.08 51.0763C1119.78 76.1457 1110.21 99.712 1099.04 123.084C1152.43 119.917 1204.85 117.867 1253.87 116.65C1252.79 120.254 1251.69 123.797 1250.55 127.278C1248.22 134.514 1245.63 141.779 1242.92 149.325C1240.04 157.109 1237.16 165.19 1234.48 173.764C1282.86 173.485 1331.24 174.542 1379.37 176.931C1383.76 164.063 1388.56 151.231 1392.88 138.358C1395.3 130.91 1397.58 123.309 1399.62 115.342C1413.96 115.454 1427.45 115.638 1439.97 115.88V45.4463C1430.18 45.2757 1419.81 45.1375 1408.98 45.036C1409.32 31.7597 1409.04 16.147 1407.92 0H1263.72C1264.98 16.7872 1265.28 32.6691 1264.88 45.937C1318.39 44.809 1367.34 44.6426 1408.99 45.036C1408.58 68.5387 1405.41 92.0106 1399.51 115.336C1357.18 115.013 1307.59 115.323 1253.87 116.646C1260.75 93.2201 1264.45 69.5976 1264.96 45.9327C1219.98 46.876 1171.8 48.482 1122.1 50.9875C1123.7 33.9366 1121.71 16.85 1116.14 0L969.321 0Z" fill="#DFF183"/>
<path d="M1439.64 180.137L1439.98 180.157V251.159C1430.87 250.655 1421.79 250.129 1412.66 249.598L1412.25 249.574C1395.86 248.602 1379.25 247.631 1361.91 246.754C1365.28 223.351 1371.12 200.049 1379.39 176.941C1401.03 177.961 1421.19 179.095 1439.58 180.129L1439.64 180.137Z" fill="#DFF183"/>
<path fill-rule="evenodd" clip-rule="evenodd" d="M1439.98 316.789C1411.33 313.546 1383.92 310.784 1357.44 308.501C1357.58 288.29 1358.88 268.375 1361.61 248.769C1361.61 248.274 1361.71 247.802 1361.8 247.324V247.31L1361.82 247.202C1361.85 247.071 1361.87 246.939 1361.9 246.805C1318.55 244.588 1274.95 243.713 1231.38 244.186L1217.87 244.398V243.975C1221.79 215.988 1227.95 193.533 1234.43 173.768H1228.04C1175.36 174.409 1122.83 176.765 1070.79 180.818C1076.19 169.021 1081.87 157.639 1087.47 146.427L1087.61 146.145C1090.81 139.81 1093.95 133.475 1097 127.252C1097.33 126.549 1097.66 125.844 1098.01 125.137C1098.34 124.432 1098.68 123.727 1099.01 123.022C1047.73 126.081 995.563 130.177 944.626 135.566C957.179 110.906 970.545 86.1875 976.161 60.8884C917.882 65.838 860.258 72.4842 803.595 80.7916C801.024 107.006 793.943 133.067 782.427 158.698C835.185 148.983 889.392 141.27 944.568 135.628C935.39 153.913 925.561 174.181 917.209 196.737C967.802 190.12 1019.07 184.806 1070.8 180.815C1059.4 205.075 1051.11 229.661 1045.97 254.427C996.287 259.257 947.132 265.309 898.691 272.559C901.703 247.141 907.907 221.838 917.266 196.793C865.946 203.465 810.708 211.898 751.237 222.414C737.702 248.908 724.526 276.262 715.31 306.833C669.679 315.136 621.642 319.832 572.997 320.747H566.546C561.25 344.403 558.635 368.185 558.713 391.983C607.427 383.888 656.945 370.887 704.234 361.051C701.697 386.42 702.333 411.84 706.137 437.171L686.87 441.212C648.848 451.307 608.356 458.992 566.371 464.082L566.201 463.329L566.028 462.751V462.174C561.074 437.032 558.914 413.746 558.828 391.983C527.879 397.211 495.284 399.718 462.551 399.387C447.194 399.172 431.899 398.343 416.818 396.909C419.294 420.174 423.413 444.169 429.576 468.846C375.375 466.284 325.898 458.782 280.452 449.671C282.583 460.642 285.089 471.698 287.969 482.837C289.553 489.707 291.799 497.338 294.42 505.446C307.956 508.458 321.491 511.33 335.546 514.075C375.49 521.889 411.691 526.906 448.44 527.985C440.837 507.698 434.357 489.735 430.872 474.688V474.208C430.584 473.127 430.339 472.054 430.086 470.981L429.993 470.599C429.855 470.015 429.716 469.43 429.576 468.845C439.166 469.31 448.929 469.62 458.836 469.746C495.015 470.176 531.152 468.276 566.319 464.095C570.895 481.182 575.906 498.299 581.378 515.766C627.515 506.319 672.07 494.587 717.283 484.042L716.816 482.457C714.092 473.224 711.39 464.062 709.075 454.886C707.942 448.843 706.963 442.939 706.137 437.175C777.33 422.197 838.039 409.809 892.729 399.952C893.248 414.649 894.323 430.181 895.955 446.549C931.582 440.387 968.107 435.549 1005.22 432.077C1016.18 431.082 1027.28 430.214 1038.51 429.473C1040.33 451.378 1043.35 474.902 1048.1 499.861C1100.89 495.877 1159.84 495.413 1233.89 500.115L1233.46 497.553C1229.48 474.648 1225.71 451.645 1222.51 428.572C1155.01 425.32 1095.13 425.714 1038.51 429.473C1037.04 411.425 1036.38 394.476 1036.29 378.68C1049.74 377.27 1063.08 375.977 1076.38 374.921C1122.51 371.271 1169.31 370.021 1215.97 371.191C1214.02 347.569 1213.09 324.031 1213.58 300.693C1159.99 299.659 1106.32 301.253 1053.37 305.45C1048.74 305.816 1044.1 306.211 1039.49 306.605C1041.01 289.203 1042.5 271.778 1045.97 254.436C1102.64 248.875 1160.12 245.518 1217.88 244.398C1215.31 262.994 1213.99 281.789 1213.58 300.71C1261.84 301.694 1309.91 304.305 1357.44 308.522C1357.24 332.125 1358.59 356.107 1360.98 380.456C1313.19 375.604 1264.73 372.509 1216 371.197C1217.6 390.313 1219.77 409.468 1222.54 428.662C1271.64 431.224 1320.41 435.134 1368.61 440.375C1365.56 420.188 1362.85 400.199 1361.01 380.462C1385.9 382.883 1412.14 385.787 1439.98 389.204V316.789ZM893.939 325.17C895.025 307.752 896.595 290.341 898.647 272.937V272.92L898.665 272.779L898.691 272.562C864.966 277.559 829.342 283.36 791.672 290.102C767.057 296.554 741.556 302.161 715.353 306.881C710.12 323.808 706.382 341.72 704.369 361.007C772.823 346.854 834.819 334.751 893.939 325.17ZM893.939 325.17C941.489 317.288 990.131 311.082 1039.49 306.6C1037.71 326.774 1036.15 350.931 1036.29 378.678C991.195 383.536 944.655 390.602 892.729 399.951C891.721 371.795 892.527 346.723 893.939 325.17Z" fill="#DFF183"/>
<path d="M1368.67 440.368C1391.54 442.806 1415.31 445.568 1439.98 448.654V521.464C1419.45 518.715 1399.78 516.224 1380.97 513.991L1383.3 527.201C1387.62 551.696 1392.01 576.426 1395.88 601.157C1347.72 592.579 1298.32 585.765 1248.09 580.771C1245.23 564.517 1242.35 548.192 1239.45 531.796C1237.58 521.275 1235.8 510.726 1234.09 500.149C1283.52 503.448 1332.54 508.066 1380.94 513.984C1379.53 506.524 1378.23 499.063 1377.02 491.646C1373.99 474.411 1371.21 457.318 1368.67 440.368Z" fill="#DFF183"/>
<path d="M1439.98 609.326C1424.93 606.429 1410.2 603.708 1395.77 601.164C1399.8 626.883 1403.32 652.703 1405.76 678.45C1358.03 668.669 1308.95 660.54 1258.89 654.124C1256.01 629.854 1252.09 605.401 1247.94 580.778C1188.36 574.78 1127.39 572.796 1066.71 574.881C1073.56 597.284 1081.94 620.541 1091.85 644.65C1074.61 645.031 1057.43 645.872 1040.38 647.17C1009.88 649.58 979.829 653.206 950.53 658.011C940.611 633.957 932.198 610.693 925.29 588.218C955.678 583.63 986.68 580.078 1018.07 577.589C1034.14 576.35 1050.33 575.449 1066.68 574.769C1058.65 548.528 1052.6 523.498 1048.08 499.791C1000 504.464 952.871 510.383 907.365 519.57C911.942 541.449 917.785 564.34 925.178 588.186C870.974 596.206 817.828 607.148 763.192 619.329C755.186 597.202 747.73 576.455 740.876 556.566L740.539 556.645C725.119 560.225 709.104 563.943 692.291 567.801C664.347 575.21 635.233 581.509 605.23 586.637C612.372 606.922 620.033 628.082 628.27 650.509C646.471 646.324 664.355 642.171 681.923 638.05C709.553 631.607 736.605 625.318 763.138 619.354C767.361 631.01 771.748 643.065 776.296 655.52C779.308 663.739 782.375 672.152 785.495 680.758L789.256 691.105C774.496 694.489 759.797 697.942 745.049 701.34L729.315 704.987H794.293L794.224 704.798C794.114 704.497 794.006 704.196 793.898 703.896V703.879C792.341 699.571 790.796 695.314 789.262 691.106C849.219 677.318 900.632 666.061 950.458 658.037C951.204 659.848 951.953 661.66 952.727 663.486C957.796 676.846 963.326 690.36 968.078 701.96L969.316 704.987H1116.07C1113.79 699.235 1111.06 692.501 1108.19 685.447C1102.64 671.857 1097.28 658.25 1091.86 644.65C1140.82 643.58 1194.93 646.184 1258.89 654.124C1261.03 671.169 1262.67 688.123 1263.82 704.987H1407.88C1407.32 696.152 1406.62 687.306 1405.77 678.45C1416.94 680.706 1428.31 683.047 1439.99 685.544L1439.98 609.326Z" fill="#DFF183"/>
<path d="M639.227 680.748C642.107 688.659 645.049 696.739 648.052 704.988H489.145C490.844 695.077 491.325 685.125 490.585 675.185C539.813 670.814 583.073 661.008 627.817 650.59L628.22 650.506C630.372 656.419 632.561 662.426 634.786 668.526L639.227 680.748Z" fill="#DFF183"/>
<path d="M344.934 702.872C346.92 693.531 347.444 684.128 346.504 674.748C394.023 679.275 442.841 679.466 490.501 675.312C489.032 650.605 482.092 623.97 473.884 598.701H470.342C417.35 599.052 369.025 594.196 323.983 586.998C325.25 590.461 326.459 593.907 327.64 597.316C337.495 625.938 344.741 652.462 346.492 674.583C329.483 673.034 312.62 671.078 295.903 668.713C263.923 664.109 232.5 658.623 201.786 652.28C197.58 621.216 193.347 590.153 189.089 559.09C220.5 566.359 252.367 573.668 282.051 579.446C295.73 582.107 309.612 584.612 324.011 586.919C320.584 577.294 316.892 567.461 313.223 557.703L313.206 557.656V557.646L312.206 554.99C305.698 537.688 299.304 520.682 294.351 505.436C278.828 501.988 263.247 498.398 246.774 494.526C225.75 489.614 203.258 484.363 177.454 478.717C181.313 504.259 185.23 531.941 188.973 559.032L177.572 556.399L175.677 555.959C155.572 551.296 135.933 546.74 117.502 542.715C92.4462 537.238 66.8723 532.044 40.204 527.412C44.4375 557.119 48.6451 587.966 52.4726 616.052L53.0198 620.057C74.101 624.534 94.8942 629.138 115.14 633.643L139.706 639.062C160.747 643.686 181.301 648.126 201.683 652.258C204.977 676.506 207.647 695.457 209.297 704.987H344.563L344.934 702.872Z" fill="#DFF183"/>
<path d="M80.4113 703.242C83.0436 703.823 85.6874 704.405 88.3428 704.987H64.8765C64.6135 703.327 64.3389 701.541 64.0529 699.629L80.4113 703.242Z" fill="#DFF183"/>
<path d="M0.00268555 685.53C17.6827 689.313 35.714 693.31 54.3185 697.445L64.0527 699.6C60.113 673.346 56.4506 647.081 53.0657 620.805V620.789C52.628 617.393 7.46175 610.761 0.00268555 609.337V685.53Z" fill="#DFF183"/>
<path d="M40.1492 527.425C26.9014 525.096 13.5192 522.966 0.00268555 521.036V448.22C9.60251 449.348 19.0286 450.538 28.2809 451.791C24.7702 431.648 22.9559 411.731 22.5239 392.114C50.6262 396.7 78.1242 402.131 104.862 408.374C122.688 412.484 143.05 417.495 164.361 422.747L168.638 423.792C165.715 397.341 165.833 371.183 167.932 345.221C193.622 351.161 215.826 356.652 236.821 361.859C248.369 364.731 259.572 367.499 270.862 370.235C272.158 395.983 275.038 422.534 280.337 449.676C275.326 448.672 270.343 447.649 265.39 446.607C235.006 440.164 201.023 431.875 168.984 423.992C170.21 435.272 172.058 446.61 174.528 458.008V459.02C175.262 464.481 176.1 470.053 176.955 475.728C177.105 476.727 177.256 477.727 177.407 478.73L176.227 478.547C128.377 467.824 78.9411 458.885 28.3414 451.807C29.119 456.178 29.9541 460.558 30.9045 464.933C33.8997 484.044 37.0388 505.407 40.1492 527.425Z" fill="#DFF183"/>
<path d="M272.993 284.555L282.583 286.442L282.837 286.491C316.627 293.106 352.036 300.038 383.379 305.206C393.61 306.905 404.026 308.515 414.626 310.034C413.042 337.782 413.474 366.726 416.7 396.908C384.27 393.669 352.682 388.664 322.525 381.986C304.266 378.142 287.505 374.242 270.859 370.231C269.451 340.599 270.401 311.978 272.993 284.555Z" fill="#DFF183"/>
<path d="M272.993 284.555C275.412 258.919 279.271 234.36 283.994 211.013C279.136 210.121 274.292 209.213 269.422 208.334C245.605 204.012 220.463 199.817 194.226 196.087C193.266 200.535 192.306 204.979 191.346 209.418C190.444 213.603 189.484 217.774 188.466 221.933C185.183 237.089 181.961 252.247 179.023 267.428C137.44 260.596 94.5019 255.927 50.9202 253.499L37.3556 252.768C33.1221 274.504 29.119 296.732 26.383 319.425C17.6433 318.347 8.84989 317.379 0.00268555 316.521V388.712C7.62111 389.716 15.1762 390.828 22.6679 392.049C21.9479 367.413 23.5319 343.171 26.383 319.421C77.1565 325.615 123.466 334.907 165.83 344.761L167.932 345.213C170.064 319.128 174.237 293.221 179.133 267.465C192.602 269.613 205.916 271.916 219.34 274.33C235.813 277.319 254.072 280.853 272.993 284.555Z" fill="#DFF183"/>
<path d="M0.00288 250.662L6.48576 251.036H6.53184H6.67008C16.2432 251.587 26.4211 252.174 37.3248 252.759C39.9168 239.821 42.6528 227.066 45.36 214.494L47.52 204.612C49.1328 197.235 50.7168 189.958 52.272 182.736C42.7104 182.214 33.1488 181.679 23.7024 181.13C15.7075 180.673 7.78752 180.219 0 179.787L0.00288 250.662Z" fill="#DFF183"/>
<path d="M64.5435 118.651C43.1712 117.04 21.617 116.075 0.00268555 115.76L0.00268555 45.3518C23.4321 45.6425 46.8128 46.5476 70.0443 48.0632C70.5627 70.9546 68.2875 94.4367 64.5435 118.651Z" fill="#DFF183"/>
<path d="M52.3028 182.704C57.026 160.7 61.346 139.386 64.5428 118.649C112.322 122.282 158.287 128.66 206.181 136.162C202.869 156.153 198.578 176.144 194.229 196.078C147.82 189.578 100.325 185.102 52.3028 182.704Z" fill="#DFF183"/>
<path d="M64.8505 0C68.1568 15.4127 69.784 32.148 70.1008 48.0641C118.851 51.3843 166.997 56.562 214.101 63.5501C214.274 50.9503 213.957 38.407 212.834 25.8072C178.524 20.029 145.485 12.6745 113.885 5.64C105.271 3.7224 96.7696 1.833 88.3801 0H64.8505Z" fill="#DFF183"/>
<path d="M460.178 100.351C466.453 81.3231 473.02 62.3167 478.765 43.2468C430.288 45.729 381.349 45.0001 333.27 41.0796C330.755 48.8035 328.038 57.0199 325.12 65.7288C323.546 70.4494 321.914 75.3251 320.224 80.3559L321.555 80.573C339.986 83.5791 357.879 86.4949 375.231 89.14C404.031 93.4898 432.012 97.3602 460.143 100.401C453.036 121.925 445.554 145.177 438.734 170.088C497.139 175.986 559.26 179.027 626.391 176.113C638.948 151.168 649.69 127.61 655.565 103.205C586.539 109.47 523.358 107.12 460.178 100.351Z" fill="#DFF183"/>
<path d="M320.224 80.3432C313.168 101.573 305.565 125.237 298.423 151.028C267.654 146.123 236.985 141.061 206.178 136.223C210.325 111.972 213.292 87.7202 213.925 63.6533C247.583 68.474 279.608 73.7346 310.332 78.7823L311.296 78.9417L320.224 80.3432Z" fill="#DFF183"/>
<path d="M590.248 249.573C579.8 273.1 571.851 296.876 566.431 320.806C511.654 321.37 461.428 316.717 414.629 310.107C416.155 284.773 419.044 260.563 423.295 237.479C395.618 232.805 370.796 227.907 343.926 222.598C325.495 218.954 306.055 215.11 284.023 211.013C288.257 189.981 293.21 169.934 298.423 151.042C309.568 152.802 320.915 154.59 332.435 156.349C366.735 161.544 401.928 166.387 438.734 170.104C432.888 191.37 427.534 213.848 423.3 237.465L429.461 238.507C477.959 246.517 521.907 251.149 567.986 250.389C575.244 250.262 582.645 249.989 590.248 249.573Z" fill="#DFF183"/>
<path d="M590.248 249.573C598.773 230.032 608.161 211.732 617.204 194.148C618.041 192.516 618.881 190.892 619.721 189.276C622.025 184.846 624.28 180.474 626.391 176.131C679.827 173.872 732.366 168.002 782.513 158.688C773.159 180.062 761.864 201.192 751.18 222.405C697.238 231.972 648.933 246.387 590.248 249.573Z" fill="#DFF183"/>
<path d="M468.311 528.318C461.658 528.318 455.035 528.317 448.439 528.064L452.327 538.412C457.886 553.122 463.847 568.932 469.607 585.627C470.555 588.351 471.476 591.149 472.406 593.972L472.447 594.097V594.115C472.942 595.621 473.443 597.136 473.947 598.646C518.706 598.037 562.996 594.009 605.215 586.707C596.575 562.033 588.598 538.646 581.427 515.841C537.919 524.652 501.056 528.016 468.311 528.318Z" fill="#DFF183"/>
<path d="M740.812 556.565C732.086 531.295 724.252 507.434 717.341 484.009C779.461 469.551 837.29 456.515 895.926 446.547C898.403 469.354 902.032 493.722 907.446 519.512C850.711 530.53 795.952 543.789 740.812 556.565Z" fill="#DFF183"/>
</svg>
