<svg width="261" height="62" viewBox="0 0 261 62" fill="none" xmlns="http://www.w3.org/2000/svg">
<path d="M215.587 11.8858C171.653 -2.14443 79.5388 -2.0614 35.9938 9.63409C16.1624 14.9606 -13.0162 32.1794 9.08635 47.2925C12.9847 49.9582 20.5808 50.3916 25.4938 52.2809C82.9938 60.5001 152.344 66.5425 210.616 54.7445C219.306 52.985 228.617 51.8826 236.494 49.0001C242.385 46.8442 234.994 49.5226 241.494 47.0001C254.954 37.7896 261.955 28.1471 247.6 20.1557C230.956 10.8904 208.128 7.89376 186.58 6.18845C167.738 4.6973 148.911 4.30307 129.966 4.72269C94.4363 5.50951 47.8755 2.70608 17.9938 15.0001C4.94231 20.3699 -3.50939 36.1085 7.57787 45.6342C19.5924 55.9564 51.8398 52.4485 70.9938 54.7445C124.994 57.5 205.494 58.5001 252.494 42.5001C273.994 29.0001 246.958 15.1448 230.338 13.4088C178.053 7.94753 100.667 0.0526623 52.3862 13.2514" stroke="#ABD7F0" stroke-miterlimit="1.5" stroke-linecap="round" stroke-linejoin="round"/>
</svg>
