<svg width="176" height="85" viewBox="0 0 176 85" fill="none" xmlns="http://www.w3.org/2000/svg">
<path fill-rule="evenodd" clip-rule="evenodd" d="M167.412 64.0033C173.082 64.3856 173.788 54.4944 173.802 51.0401C173.843 40.8021 176.433 17.9433 173.868 9.33279C171.114 0.089535 146.307 1.80026 135.726 1.50303C103.922 0.609701 73.436 1.30764 39.5681 1.29488C31.1761 1.29165 22.4308 0.510263 14.1549 1.50464C5.82643 2.5052 3.16913 6.56037 2.30069 12.4707C1.65618 16.8562 1.24119 39.9687 1.04816 47.1091C0.95506 50.546 0.724838 59.2823 3.47594 61.9729C7.49827 65.9067 17.9829 65.2481 22.4774 65.2402C24.9966 65.2356 33.6631 65.0579 45.6266 65.1894C46.0198 65.1937 57.1995 84.1614 57.7283 83.999C58.2874 83.8271 71.8986 65.1003 72.8098 65.0898C107.194 64.6914 148.76 64.618 164.242 63.9794" fill="white"/>
<path d="M167.412 64.0033C173.082 64.3856 173.788 54.4944 173.802 51.0401C173.843 40.8021 176.433 17.9433 173.868 9.33279C171.114 0.089535 146.307 1.80026 135.726 1.50303C103.922 0.609701 73.436 1.30764 39.5681 1.29488C31.1761 1.29165 22.4308 0.510263 14.1549 1.50464C5.82643 2.5052 3.16913 6.56037 2.30069 12.4707C1.65618 16.8562 1.24119 39.9687 1.04816 47.1091C0.95506 50.546 0.724838 59.2823 3.47594 61.9729C7.49827 65.9067 17.9829 65.2481 22.4774 65.2402C24.9966 65.2356 33.6631 65.0579 45.6266 65.1894C46.0198 65.1937 57.1995 84.1614 57.7283 83.999C58.2874 83.8271 71.8986 65.1003 72.8098 65.0898C107.194 64.6914 148.76 64.618 164.242 63.9794" stroke="#373F47" stroke-miterlimit="1.5" stroke-linecap="round" stroke-linejoin="round"/>
<path d="M56.9555 25.954H55.0195L61.3775 11.5H66.1955L58.5175 28H53.3475L45.6695 11.5H50.5535L56.9555 25.954ZM67.7481 11.5H72.3021V28H67.7481V11.5ZM78.521 18.716H84.527C85.2604 18.716 85.8324 18.5473 86.243 18.21C86.6537 17.8727 86.859 17.4033 86.859 16.802C86.859 16.186 86.6537 15.7167 86.243 15.394C85.8324 15.0567 85.2604 14.888 84.527 14.888H77.883L79.929 12.71V28H75.375V11.5H85.165C86.4264 11.5 87.5264 11.7273 88.465 12.182C89.4037 12.622 90.137 13.238 90.665 14.03C91.193 14.8073 91.457 15.7313 91.457 16.802C91.457 17.8433 91.193 18.76 90.665 19.552C90.137 20.344 89.4037 20.96 88.465 21.4C87.5264 21.84 86.4264 22.06 85.165 22.06H78.521V18.716ZM80.985 20.278H86.111L92.029 28H86.749L80.985 20.278ZM96.9776 24.832V21.158H108.352V24.832H96.9776ZM105.756 11.5L113.258 28H108.396L102.104 13.436H103.424L97.1096 28H92.2476L99.7496 11.5H105.756ZM119.374 11.5V25.976L117.328 23.952H129.67V28H114.82V11.5H119.374ZM23.606 54.352C21.6553 54.352 19.9393 53.9927 18.458 53.274C16.9913 52.5553 15.8473 51.5507 15.026 50.26C14.2193 48.9693 13.816 47.466 13.816 45.75C13.816 44.034 14.2193 42.5307 15.026 41.24C15.8473 39.9493 16.9913 38.9447 18.458 38.226C19.9393 37.5073 21.6553 37.148 23.606 37.148C25.5713 37.148 27.2873 37.5073 28.754 38.226C30.2207 38.9447 31.3647 39.9493 32.186 41.24C33.0073 42.5307 33.418 44.034 33.418 45.75C33.418 47.466 33.0073 48.9693 32.186 50.26C31.3647 51.5507 30.2207 52.5553 28.754 53.274C27.2873 53.9927 25.5713 54.352 23.606 54.352ZM23.606 50.282C24.6767 50.282 25.6007 50.0987 26.378 49.732C27.1553 49.3653 27.7493 48.8447 28.16 48.17C28.5853 47.4953 28.798 46.6887 28.798 45.75C28.798 44.8113 28.5853 44.0047 28.16 43.33C27.7493 42.6553 27.1553 42.1347 26.378 41.768C25.6007 41.4013 24.6767 41.218 23.606 41.218C22.55 41.218 21.6333 41.4013 20.856 41.768C20.0787 42.1347 19.4773 42.6553 19.052 43.33C18.6267 44.0047 18.414 44.8113 18.414 45.75C18.414 46.6887 18.6267 47.4953 19.052 48.17C19.4773 48.8447 20.0787 49.3653 20.856 49.732C21.6333 50.0987 22.55 50.282 23.606 50.282ZM51.0586 50.81L49.6506 51.096V37.5H54.0726V54H48.3306L38.8046 40.426L40.1906 40.14V54H35.7686V37.5H41.6646L51.0586 50.81ZM67.0851 39.502H71.6611V54H67.0851V39.502ZM60.7931 37.5H77.9531V41.548H60.7931V37.5ZM79.919 37.5H84.473V54H79.919V37.5ZM87.5459 54V37.5H92.0779V50.37L90.8679 49.424L100.218 37.5H105.036L91.6599 54H87.5459ZM95.4219 46.124L98.7659 43.352L105.256 54H100.086L95.4219 46.124ZM111.858 39.502H116.434V54H111.858V39.502ZM105.566 37.5H122.726V41.548H105.566V37.5ZM133.069 54.352C131.118 54.352 129.402 53.9927 127.921 53.274C126.454 52.5553 125.31 51.5507 124.489 50.26C123.682 48.9693 123.279 47.466 123.279 45.75C123.279 44.034 123.682 42.5307 124.489 41.24C125.31 39.9493 126.454 38.9447 127.921 38.226C129.402 37.5073 131.118 37.148 133.069 37.148C135.034 37.148 136.75 37.5073 138.217 38.226C139.684 38.9447 140.828 39.9493 141.649 41.24C142.47 42.5307 142.881 44.034 142.881 45.75C142.881 47.466 142.47 48.9693 141.649 50.26C140.828 51.5507 139.684 52.5553 138.217 53.274C136.75 53.9927 135.034 54.352 133.069 54.352ZM133.069 50.282C134.14 50.282 135.064 50.0987 135.841 49.732C136.618 49.3653 137.212 48.8447 137.623 48.17C138.048 47.4953 138.261 46.6887 138.261 45.75C138.261 44.8113 138.048 44.0047 137.623 43.33C137.212 42.6553 136.618 42.1347 135.841 41.768C135.064 41.4013 134.14 41.218 133.069 41.218C132.013 41.218 131.096 41.4013 130.319 41.768C129.542 42.1347 128.94 42.6553 128.515 43.33C128.09 44.0047 127.877 44.8113 127.877 45.75C127.877 46.6887 128.09 47.4953 128.515 48.17C128.94 48.8447 129.542 49.3653 130.319 49.732C131.096 50.0987 132.013 50.282 133.069 50.282ZM145.231 54V37.5H149.763V50.37L148.553 49.424L157.903 37.5H162.721L149.345 54H145.231ZM153.107 46.124L156.451 43.352L162.941 54H157.771L153.107 46.124Z" fill="#373F47"/>
</svg>
