<svg width="23" height="56" viewBox="0 0 23 56" fill="none" xmlns="http://www.w3.org/2000/svg">
<path d="M21.5002 54.4999C14.3878 56.6208 9.27962 48.8603 7 43.9999C9.34965 33.1398 -6.26844 6.94335 3.30594 6.94234C5.51982 6.94234 4.44815 -4.43903 12.5 3.99999C12.529 7.41153 15 18.9894 15 21C15 48.8366 22.8679 52.9006 21.5002 54.4999Z" fill="white"/>
<path fill-rule="evenodd" clip-rule="evenodd" d="M16.3072 38.4716C15.3272 32.7296 15.0001 27.2764 15.0001 24H16.0001C16.0001 27.2236 16.323 32.6204 17.293 38.3034C18.2645 43.9954 19.877 49.9242 22.4306 54.2456L22.6417 54.603L22.3293 54.8763C21.4775 55.6217 19.8149 55.9644 17.5336 55.159C15.31 54.3739 12.4339 52.4843 8.94583 48.6837L4.31244 52.3904L3.68774 51.6096L9.05614 47.3148L9.37174 47.6655C12.9405 51.6308 15.7906 53.4831 17.8665 54.216C19.5731 54.8185 20.7118 54.6552 21.3331 54.3451C18.8251 49.9102 17.2562 44.0318 16.3072 38.4716Z" fill="black"/>
</svg>
