<svg width="100" height="116" viewBox="0 0 100 116" fill="none" xmlns="http://www.w3.org/2000/svg">
<path fill-rule="evenodd" clip-rule="evenodd" d="M32.6563 10.8773C17.823 15.7435 5.20563 27.1042 7.43264 44.6631C8.90544 56.0248 9.19786 57.5796 18.3538 54.2781C21.5552 53.1237 26.262 49.5836 28.5628 47.0904V47.0904C32.9715 42.3129 30.4303 36.4934 33.4956 30.7617C34.4614 28.9556 35.9976 27.3502 38.1832 25.8129C50.3144 17.3523 63.0997 30.747 64.1045 35.5641C65.2078 40.8534 61.378 44.5165 48.2029 50.7254C37.436 55.8163 34.6344 60.5537 36.2915 70.7007C36.8019 73.6978 36.9087 76.1358 36.6015 76.5903C35.2667 78.7246 41.5659 79.1942 47.808 77.4618C66.5245 72.2173 66.2784 72.4137 63.9502 66.4825C62.4907 62.7886 62.8135 62.1343 67.0883 60.0551C77.4141 55.0518 82.5215 48.4298 83.8595 38.327C87.4328 12.2378 65.1307 0.29178 32.6563 10.8773ZM51.0561 10.1715C63.7867 9.26452 78.2318 20.7063 78.3177 31.854C78.4015 42.1661 73.3866 49.5075 61.7082 56.0092C56.0471 59.1508 54.6296 61.9902 55.7762 67.7627V67.7627C56.1549 69.5784 55.0765 71.3681 53.2951 71.8795C52.6191 72.0735 52.034 72.2417 51.5087 72.3938C48.1529 73.3657 44.5271 71.2299 44.1168 67.7605C43.1487 59.5744 45.072 57.262 60.4355 49.0812C72.2735 42.7937 73.1488 33.2256 62.7467 24.374C46.0624 10.1803 14.4786 28.0648 24.8993 45.815C25.3622 46.6575 25.6951 47.4275 25.6045 47.5439C25.4687 47.7184 18.5865 50.5125 18.0352 50.6221C17.98 50.6331 16.3825 44.9009 15.638 42.9831C9.15961 26.5151 28.0996 11.8813 51.0561 10.1715ZM47.4796 88.7719C38.3629 94.6169 38.7521 106.367 49.0214 107.425C69.505 109.551 84.8889 96.3125 71.8107 87.8452C67.943 85.2694 52.6405 85.4346 47.4796 88.7719Z" fill="#B2A8FE"/>
<path d="M51.0561 10.1715C63.7867 9.26452 78.2318 20.7063 78.3177 31.854C78.4015 42.1661 73.3866 49.5075 61.7082 56.0092C56.0471 59.1508 54.6296 61.9902 55.7762 67.7627V67.7627C56.1549 69.5784 55.0765 71.3681 53.2951 71.8795C52.6191 72.0735 52.034 72.2417 51.5087 72.3938C48.1529 73.3657 44.5271 71.2299 44.1168 67.7605C43.1487 59.5744 45.072 57.262 60.4355 49.0812C72.2735 42.7937 73.1488 33.2256 62.7467 24.374C46.0624 10.1803 14.4786 28.0648 24.8993 45.815C25.3622 46.6575 25.6951 47.4275 25.6045 47.5439C25.4687 47.7184 18.5865 50.5125 18.0352 50.6221C17.98 50.6331 16.3825 44.9009 15.638 42.9831C9.15961 26.5151 28.0996 11.8813 51.0561 10.1715Z" fill="#B2A8FE"/>
<path fill-rule="evenodd" clip-rule="evenodd" d="M32.3354 9.92899L32.3372 9.9284C48.7075 4.59226 62.7161 4.86434 72.2443 9.97105C81.8712 15.1306 86.684 25.0914 84.8523 38.4689C84.1642 43.6612 82.4983 48.0129 79.6404 51.7161C76.7874 55.4131 72.7917 58.4051 67.534 60.9528C66.4666 61.472 65.7014 61.8763 65.1566 62.2446C64.6119 62.6129 64.3776 62.8868 64.2702 63.1066C64.174 63.3034 64.1254 63.5673 64.2102 64.0478C64.2992 64.5525 64.5183 65.2036 64.8819 66.1239L64.8827 66.126C64.918 66.2159 64.9531 66.305 64.9878 66.3933C65.2342 67.0195 65.4641 67.6039 65.642 68.1318C65.8448 68.7331 66.0045 69.3293 66.0419 69.9073C66.0806 70.5057 65.9888 71.097 65.683 71.6607C65.3839 72.2119 64.9204 72.6623 64.3395 73.0563C63.2106 73.8221 61.427 74.5108 58.8636 75.3197C56.4702 76.0749 53.2907 76.9654 49.1416 78.1274C48.7968 78.224 48.4452 78.3224 48.0869 78.4229L48.0845 78.4235C44.8755 79.3141 41.6221 79.6496 39.2951 79.4713C38.1661 79.3848 37.0989 79.1676 36.3791 78.7114C36.0031 78.4732 35.6197 78.1034 35.4752 77.5588C35.3329 77.0222 35.4754 76.5187 35.7183 76.1091C35.7183 76.1088 35.7184 76.1086 35.7184 76.1083C35.7304 76.0537 35.7447 75.9596 35.7552 75.8176C35.7762 75.5348 35.7773 75.1387 35.7524 74.6401C35.7027 73.6476 35.554 72.3291 35.3037 70.8593L35.3026 70.8526C34.4581 65.6814 34.7129 61.6825 36.7253 58.3023C38.7197 54.9524 42.3371 52.3903 47.7669 49.823L47.768 49.8224C54.3562 46.7177 58.4733 44.3072 60.8118 42.0761C61.9664 40.9746 62.646 39.9545 62.9905 38.9588C63.3318 37.9723 63.3694 36.9376 63.1236 35.759C62.9235 34.8002 62.0652 33.2155 60.5738 31.4594C59.1085 29.734 57.1204 27.9479 54.8061 26.564C50.1905 23.804 44.4081 22.6959 38.7641 26.6311C36.664 28.1085 35.2528 29.6059 34.3805 31.237C33.1199 33.5944 32.8807 35.952 32.6282 38.4417C32.5961 38.7586 32.5637 39.0777 32.529 39.3992C32.2261 42.2045 31.7357 45.1331 29.3028 47.7695C28.0953 49.0779 26.2889 50.6294 24.3869 51.9974C22.4935 53.3592 20.4296 54.5941 18.7019 55.2171C16.4144 56.0419 14.5771 56.6039 13.1056 56.759C11.5968 56.918 10.3024 56.6639 9.30668 55.6721C8.38611 54.7552 7.87781 53.3475 7.49486 51.6315C7.1052 49.8855 6.80507 47.6069 6.43895 44.7825L6.43859 44.7798C4.12546 26.5419 17.2845 14.8666 32.3354 9.92899ZM38.1831 25.813C35.9974 27.3503 34.4613 28.9557 33.4955 30.7617C32.137 33.302 31.8797 35.8595 31.6306 38.3358C31.3176 41.4471 31.0175 44.4303 28.5626 47.0904C26.2618 49.5836 21.5551 53.1238 18.3537 54.2781C9.19774 57.5796 8.90532 56.0248 7.43252 44.6631C5.2055 27.1043 17.8229 15.7435 32.6561 10.8773C65.1306 0.291811 87.4326 12.2378 83.8594 38.3271C82.5214 48.4299 77.414 55.0519 67.0882 60.0551C62.8133 62.1343 62.4906 62.7887 63.9501 66.4825L64.0556 66.7509C64.7715 68.5707 65.2526 69.7937 64.9627 70.7873C64.3687 72.8235 60.5373 73.8966 48.8545 77.1686L47.8079 77.4618C41.5658 79.1942 35.2665 78.7247 36.6014 76.5904C36.9086 76.1359 36.8018 73.6979 36.2914 70.7007C34.6343 60.5538 37.4359 55.8163 48.2028 50.7254C61.3779 44.5165 65.2077 40.8535 64.1044 35.5641C63.0996 30.747 50.3142 17.3523 38.1831 25.813ZM35.7096 76.1423C35.7095 76.1422 35.7102 76.1396 35.7119 76.135C35.7105 76.1401 35.7096 76.1425 35.7096 76.1423ZM39.9808 99.9481C39.7127 95.7275 42.1263 91.0134 46.9299 87.9327C48.3757 86.998 50.4438 86.3318 52.709 85.8784C54.9957 85.4206 57.5711 85.1629 60.0936 85.0934C62.6155 85.0239 65.1104 85.1419 67.2369 85.4461C69.3163 85.7436 71.189 86.238 72.3566 87.0132C75.7914 89.2385 77.5581 91.9159 77.649 94.7526C77.7389 97.56 76.1742 100.204 73.6599 102.366C68.6326 106.688 59.3704 109.502 48.926 108.418C46.1666 108.133 43.9869 107.119 42.4584 105.587C40.9303 104.054 40.1153 102.066 39.9808 99.9481ZM71.8106 87.8453C84.8888 96.3126 69.5048 109.551 49.0213 107.425C38.7519 106.367 38.3628 94.617 47.4795 88.772C52.6403 85.4346 67.9429 85.2694 71.8106 87.8453Z" fill="black"/>
</svg>
