<svg width="380" height="25" viewBox="0 0 380 25" fill="none" xmlns="http://www.w3.org/2000/svg">
<path fill-rule="evenodd" clip-rule="evenodd" d="M296.29 1.73305C282.603 1.89306 268.908 2.03332 255.22 1.76812C234.027 1.35767 212.708 2.0804 191.423 2.80197C182.376 3.10867 173.335 3.41516 164.313 3.63434C150.702 3.96512 137.063 3.76557 123.431 3.50798C121.746 3.47614 120.061 3.44341 118.376 3.41069C106.428 3.17862 94.4875 2.94672 82.5665 3.03207C71.8428 3.109 61.045 3.86409 50.2141 4.62149C47.4143 4.81728 44.6122 5.01323 41.8086 5.19766C28.1701 6.09484 14.5076 6.71823 0.962879 5.70924C0.6875 5.68873 0.480891 5.44886 0.501405 5.17348C0.521918 4.8981 0.761787 4.69149 1.03717 4.712C14.5078 5.71547 28.1115 5.09654 41.7429 4.19982C44.537 4.01602 47.3327 3.8205 50.1286 3.62496C60.9631 2.86724 71.8011 2.10927 82.5594 2.0321C94.4946 1.94664 106.449 2.17884 118.396 2.41089C120.081 2.44361 121.765 2.47633 123.449 2.50815C137.081 2.76574 150.701 2.96484 164.289 2.63464C173.29 2.41597 182.319 2.10989 191.36 1.80342C212.656 1.08148 234.018 0.357323 255.239 0.768309L255.23 1.26822L255.239 0.768309C268.91 1.03317 282.59 0.893141 296.278 0.733119C296.985 0.724861 297.691 0.71655 298.398 0.708238C311.378 0.555518 324.367 0.402708 337.349 0.578774L337.342 1.07873L337.349 0.578774C346.355 0.7011 355.38 1.3788 364.327 2.28618L364.277 2.78363L364.327 2.28619C365.004 2.35494 365.682 2.42122 366.361 2.48756C369.007 2.74628 371.663 3.00596 374.31 3.41705L374.233 3.91112L374.31 3.41705C374.627 3.46632 375.102 3.47154 375.663 3.46213C375.828 3.45936 376.001 3.45533 376.175 3.45124C376.57 3.44199 376.978 3.43246 377.342 3.43663C377.608 3.43967 377.865 3.44994 378.094 3.47435C378.316 3.49798 378.544 3.53802 378.735 3.61593C378.91 3.68727 379.195 3.85091 379.259 4.19913C379.318 4.52375 379.14 4.79224 378.996 4.95956C378.724 5.27511 378.303 5.47228 377.862 5.60668C377.407 5.74525 376.859 5.83801 376.261 5.89915C375.064 6.02157 373.599 6.02364 372.133 5.97441C370.664 5.92506 369.175 5.82344 367.928 5.73436L367.548 5.70707C366.469 5.62965 365.629 5.56929 365.178 5.56823C350.416 5.53428 335.674 5.78126 320.936 6.6113C317.624 6.7978 314.311 6.97491 310.998 7.14437C311.994 7.19909 312.989 7.2643 313.982 7.34314L313.943 7.84157L313.982 7.34314C316.264 7.52435 318.488 7.79988 320.743 8.1014L320.676 8.59674L320.743 8.10141C321.026 8.13928 321.463 8.15374 321.972 8.1609C322.139 8.16326 322.314 8.16483 322.49 8.16641C322.833 8.1695 323.181 8.17263 323.493 8.18175C323.942 8.19489 324.406 8.221 324.687 8.30617C324.76 8.32825 324.868 8.36731 324.965 8.44246C325.072 8.52474 325.219 8.69852 325.193 8.95564C325.172 9.16762 325.042 9.30301 324.977 9.36203C324.9 9.43197 324.809 9.48877 324.722 9.53569C321.903 11.0634 318.416 11.6351 314.933 11.8712C313.187 11.9895 311.428 12.0241 309.739 12.048C309.511 12.0512 309.284 12.0542 309.059 12.0572C307.613 12.0765 306.232 12.095 304.952 12.1591C299.647 12.4249 294.35 12.8465 289.044 13.2768L288.164 13.3483C283.154 13.7552 278.136 14.1627 273.109 14.4455C267.481 14.7625 261.851 15.1088 256.22 15.4724C256.433 15.4902 256.645 15.508 256.858 15.526C260.095 15.7997 263.313 16.0824 266.55 16.4859C267.053 16.5485 267.576 16.6024 268.105 16.657C268.89 16.7379 269.689 16.8202 270.459 16.9348C270.639 16.9616 270.92 16.9839 271.226 17.0082C271.42 17.0237 271.625 17.04 271.819 17.0587C272.037 17.0796 272.28 17.1068 272.431 17.1507C272.466 17.1609 272.545 17.1851 272.623 17.2366C272.661 17.2622 272.74 17.3207 272.797 17.4256C272.866 17.5531 272.882 17.7123 272.823 17.8618C272.773 17.9853 272.69 18.0566 272.649 18.0877C272.603 18.1227 272.558 18.1448 272.529 18.1579C272.471 18.1843 272.41 18.2019 272.361 18.2143C261.962 20.8494 250.846 21.0202 240.184 21.184C238.985 21.2024 237.791 21.2208 236.604 21.2425C227.905 21.402 219.214 21.5845 210.524 21.9032C195.038 22.4718 179.587 23.4718 164.138 24.7696C163.863 24.7927 163.621 24.5884 163.598 24.3132C163.575 24.0381 163.779 23.7962 164.055 23.7731C179.516 22.4743 194.983 21.4732 210.488 20.9039C219.187 20.5848 227.885 20.4022 236.586 20.2427C237.773 20.2209 238.966 20.2025 240.163 20.184C249.981 20.0325 260.066 19.8768 269.615 17.8289C269.092 17.7636 268.574 17.7105 268.049 17.6567C267.517 17.6023 266.98 17.5472 266.426 17.4782L266.488 16.982L266.426 17.4782C263.211 17.0774 260.011 16.7961 256.774 16.5225L256.816 16.0242L256.774 16.5225C254.251 16.309 251.726 16.112 249.2 15.9338C243.46 16.317 237.718 16.713 231.976 17.109C210.184 18.612 188.379 20.1159 166.565 20.9248C162.128 21.0894 157.69 21.2437 153.251 21.3981C139.376 21.8806 125.498 22.3632 111.66 23.1582C105.446 23.5153 99.2184 23.6344 92.9954 23.4083C91.0548 23.3377 89.1345 23.3118 87.1997 23.369C86.9652 23.3759 86.6131 23.4314 86.1913 23.5081C86.0775 23.5289 85.9592 23.551 85.8389 23.5735C85.5326 23.6309 85.2142 23.6905 84.9284 23.7342C84.7273 23.7649 84.5304 23.7897 84.353 23.8009C84.1833 23.8115 83.9972 23.8124 83.8326 23.7778C83.6973 23.7495 83.3793 23.6537 83.2768 23.3119C83.1854 23.0067 83.3479 22.7446 83.4409 22.6165C83.9517 21.9122 84.8409 21.4506 85.8204 21.1298C86.8154 20.8038 87.9876 20.5967 89.1592 20.4563C90.3338 20.3155 91.5277 20.2395 92.5704 20.1822C92.7828 20.1706 92.988 20.1597 93.185 20.1493C93.9664 20.108 94.6194 20.0734 95.0827 20.0222C96.2894 19.8886 97.4958 19.7548 98.7022 19.621C107.905 18.6003 117.101 17.5802 126.325 16.7052C129.634 16.3914 132.936 16.1091 136.234 15.8553C128.074 16.002 119.916 16.1138 111.76 16.2255C97.7165 16.4179 83.6803 16.6102 69.6496 16.9808L69.6364 16.481L69.6495 16.9808C67.5829 17.0352 65.5129 17.1133 63.4403 17.1915C57.1681 17.4282 50.8719 17.6658 44.5746 17.2511C43.3366 17.1696 42.0893 17.168 40.8236 17.1663C40.7398 17.1662 40.656 17.1661 40.572 17.166C39.2263 17.1638 37.861 17.1556 36.5027 17.0407C36.0004 16.9983 35.1073 17.031 34.2375 17.0628C33.9778 17.0724 33.7201 17.0818 33.4756 17.0891C32.975 17.1042 32.4996 17.1115 32.2314 17.077C32.1678 17.0689 32.068 17.0532 31.9739 17.0128C31.9302 16.994 31.8331 16.9476 31.7524 16.847C31.6489 16.7178 31.6045 16.5368 31.6621 16.3581C31.7066 16.2198 31.7955 16.137 31.8354 16.1031C31.8832 16.0625 31.9321 16.0332 31.9692 16.0131C32.0441 15.9725 32.1328 15.9368 32.2236 15.9045L32.2236 15.9045C40.8299 12.8463 50.4082 11.5407 60.0421 10.8027C64.5627 10.4564 69.1033 10.2346 73.565 10.0167C73.8589 10.0023 74.1525 9.98798 74.4457 9.97362C79.1929 9.74116 83.8426 9.50406 88.2921 9.11619C133.751 5.15365 180.102 4.85514 225.692 4.88172C247.567 4.89501 269.44 5.37897 291.278 6.53313C293.533 6.65223 295.793 6.71896 298.06 6.77007C305.665 6.41987 313.272 6.04126 320.88 5.61288C335.644 4.78139 350.406 4.53426 365.18 4.56823C365.669 4.56938 366.548 4.63258 367.606 4.70869L368 4.7369C369.246 4.82594 370.718 4.92632 372.167 4.97497C373.619 5.02373 375.031 5.0198 376.159 4.90434C376.724 4.84653 377.202 4.76238 377.57 4.65007C377.762 4.59179 377.907 4.53072 378.016 4.47181C378.007 4.47075 377.998 4.46972 377.988 4.4687C377.804 4.44907 377.582 4.43944 377.331 4.43657C376.984 4.4326 376.607 4.44145 376.221 4.45051C376.042 4.45471 375.861 4.45896 375.68 4.46199C375.13 4.47122 374.571 4.46961 374.156 4.4052C371.54 3.9989 368.92 3.74269 366.277 3.48423C365.595 3.41753 364.912 3.35069 364.226 3.28108C355.295 2.37534 346.302 1.70047 337.336 1.57868C324.366 1.40279 311.389 1.55546 298.406 1.70821L296.29 1.73305ZM378.381 4.55319C378.381 4.55329 378.379 4.55229 378.376 4.55007C378.38 4.55202 378.381 4.5531 378.381 4.55319ZM378.283 4.24831C378.285 4.24423 378.286 4.24213 378.286 4.24211C378.286 4.24209 378.285 4.24414 378.283 4.24831ZM286.4 7.28756C266.186 6.3099 245.941 5.89402 225.691 5.88172C180.101 5.85514 133.79 6.1541 88.3789 10.1124C83.9078 10.5022 79.2399 10.7401 74.4947 10.9724C74.2024 10.9867 73.9098 11.001 73.617 11.0153C69.1523 11.2334 64.6247 11.4546 60.1185 11.7998C51.4217 12.466 42.8337 13.5926 34.9928 16.0361C35.6081 16.0181 36.1967 16.0113 36.5869 16.0443L36.587 16.0443C37.8987 16.1552 39.2253 16.1638 40.5736 16.166C40.6598 16.1661 40.7461 16.1662 40.8325 16.1663C42.091 16.1679 43.3688 16.1696 44.6403 16.2532L44.6403 16.2532C50.8812 16.6642 57.1037 16.4295 63.3627 16.1935C65.4449 16.1149 67.531 16.0362 69.6232 15.9811C83.6515 15.6106 97.7062 15.418 111.761 15.2254C122.664 15.0759 133.567 14.9265 144.457 14.6941C161.085 14.3389 177.647 13.1535 194.223 11.967C205.095 11.1888 215.974 10.4102 226.882 9.865C240.478 9.18541 254.063 8.62748 267.644 8.06971C273.896 7.81291 280.148 7.55615 286.4 7.28756ZM32.4455 16.8923C32.4457 16.8923 32.4458 16.8922 32.446 16.8921ZM181.007 13.8995C195.074 13.6732 209.163 13.735 223.374 13.8612C231.991 13.9376 240.605 14.3259 249.201 14.9314C257.149 14.401 265.099 13.895 273.053 13.4471C278.067 13.165 283.074 12.7584 288.087 12.3513L288.964 12.2801C294.268 11.8498 299.58 11.4271 304.902 11.1604C306.202 11.0952 307.604 11.0765 309.048 11.0573C309.273 11.0543 309.499 11.0513 309.725 11.0481C311.412 11.0243 313.148 10.9898 314.866 10.8735C317.856 10.6707 320.746 10.2211 323.175 9.17462C322.956 9.17065 322.728 9.16861 322.496 9.16654C322.317 9.16494 322.137 9.16333 321.958 9.1608C321.458 9.15376 320.961 9.1396 320.61 9.09258C318.36 8.7917 316.158 8.51905 313.903 8.34C310.157 8.04276 306.383 7.94033 302.595 7.86252C302.047 7.85126 301.499 7.84052 300.95 7.82977C299.991 7.81098 299.031 7.79218 298.07 7.77058C287.937 8.23703 277.802 8.65333 267.668 9.06961C254.085 9.6275 240.505 10.1853 226.932 10.8638C216.073 11.4065 205.211 12.1837 194.342 12.9613C189.898 13.2793 185.453 13.5974 181.007 13.8995ZM241.504 15.4515C235.461 15.1225 229.413 14.9148 223.365 14.8612C190.782 14.5718 158.884 14.622 126.42 17.7007C117.204 18.5749 108.016 19.5941 98.8124 20.6149C97.6061 20.7487 96.3996 20.8826 95.1927 21.0161C94.6979 21.0708 94.0051 21.1074 93.22 21.1489C93.0268 21.1591 92.828 21.1696 92.6252 21.1807C91.5865 21.2378 90.4192 21.3124 89.2782 21.4492C88.1342 21.5863 87.0362 21.7838 86.1317 22.0801C85.539 22.2742 85.0627 22.5003 84.7128 22.7553C84.734 22.7522 84.7555 22.749 84.7774 22.7457C85.0456 22.7047 85.3373 22.6501 85.6367 22.594C85.7609 22.5707 85.8865 22.5472 86.0122 22.5243C86.423 22.4495 86.8482 22.379 87.1701 22.3694L87.1849 22.8692L87.1701 22.3694C89.1332 22.3114 91.0764 22.3378 93.0317 22.409C99.2181 22.6337 105.414 22.5155 111.603 22.1599C125.453 21.3641 139.347 20.881 153.224 20.3984C157.661 20.2441 162.096 20.0899 166.528 19.9255C188.331 19.117 210.102 17.6153 231.878 16.1133C235.087 15.892 238.295 15.6706 241.504 15.4515ZM84.0262 22.7962C84.0264 22.7961 84.0292 22.7967 84.0341 22.7983C84.0285 22.7971 84.026 22.7963 84.0262 22.7962ZM84.2326 23.2299C84.2291 23.2381 84.2264 23.2425 84.2259 23.2427C84.2254 23.2428 84.2272 23.2387 84.2326 23.2299Z" fill="#9D76C5"/>
</svg>
