<svg width="126" height="99" viewBox="0 0 126 99" fill="none" xmlns="http://www.w3.org/2000/svg">
<path fill-rule="evenodd" clip-rule="evenodd" d="M12.3375 26.6819C22.7472 25.569 28.5338 31.7175 25.6214 40.8066C24.5071 44.3301 22.5185 46.2885 19.0925 47.2314C17.6736 47.6246 17.5312 47.8332 17.7034 49.2832L17.7158 49.3885C17.8059 50.1559 17.8643 50.6529 17.6607 50.9882C17.2865 51.6043 16.0276 51.6747 12.4558 51.8747L12.4557 51.8747L12.1237 51.8933C10.1442 51.9984 8.30384 51.3067 8.8522 50.6497C8.97578 50.5116 9.11686 49.6257 9.17755 48.5051C9.40403 44.7172 10.5732 43.2454 14.1367 42.3076C18.4956 41.1674 19.8945 40.1675 19.9413 38.1731C19.984 36.3567 17.1307 30.4768 12.9226 32.5137C11.9424 32.9936 11.2763 33.6042 10.8533 34.4341C10.5098 35.1078 10.3366 35.7751 10.1703 36.4153C9.9026 37.4465 9.65315 38.4072 8.7402 39.2109C7.73791 40.0932 5.889 41.0108 4.55663 41.1679C2.0525 41.4632 2.09195 40.7271 2.43971 36.7429C3.02216 30.2412 7.58051 27.2014 12.3375 26.6819ZM13.3695 33.4145C12.5416 33.8201 12.0527 34.2943 11.7449 34.8981C11.4545 35.4678 11.3165 35.998 11.1567 36.6116C11.1017 36.8228 11.0442 37.0439 10.9769 37.2798C10.7253 38.1631 10.3536 39.1317 9.40603 39.9659C8.82016 40.4817 8.02507 40.9781 7.21172 41.3657C6.40318 41.751 5.49931 42.0657 4.68669 42.1615C4.05055 42.2365 3.42007 42.2704 2.87988 42.129C2.58931 42.053 2.30001 41.9208 2.04581 41.7003C1.7903 41.4787 1.61696 41.2084 1.50221 40.9233C1.28992 40.3959 1.25847 39.7609 1.27226 39.1217C1.28659 38.4572 1.35791 37.6277 1.44389 36.6426L1.44409 36.6403C1.75616 33.1569 3.14568 30.537 5.14677 28.7235C7.13448 26.9221 9.66999 25.9654 12.216 25.6873L12.2182 25.6871C17.6111 25.1105 22.0233 26.3937 24.6987 29.238C27.4013 32.111 28.1079 36.3341 26.5741 41.1221C25.9816 42.995 25.1352 44.518 23.9296 45.7046C22.7217 46.8934 21.2089 47.6898 19.3707 48.1959C19.019 48.2934 18.8131 48.3622 18.6829 48.4226C18.6697 48.4287 18.6583 48.4343 18.6485 48.4393C18.6478 48.448 18.6472 48.4578 18.6466 48.4687C18.6398 48.6071 18.6533 48.8189 18.696 49.1782L18.6962 49.1801C18.7017 49.2273 18.7075 49.2753 18.7133 49.3238C18.7702 49.8003 18.8341 50.335 18.7712 50.7791C18.7313 51.0615 18.6366 51.3654 18.4302 51.6451C18.2245 51.9239 17.9565 52.1124 17.6745 52.2438C17.159 52.484 16.4623 52.5902 15.6473 52.668C14.8665 52.7425 13.8427 52.7998 12.5342 52.873C12.4225 52.8792 12.3088 52.8856 12.193 52.8921L12.19 52.8923C11.0891 52.9508 9.99087 52.7928 9.19733 52.4924C8.82604 52.3518 8.37985 52.1283 8.0813 51.7606C7.91812 51.5596 7.76241 51.2684 7.75477 50.9036C7.74841 50.6 7.84657 50.3399 7.98309 50.1342C8.00196 50.0596 8.02557 49.9424 8.05047 49.7806C8.10263 49.4417 8.15038 48.9738 8.17942 48.4376L8.17972 48.432L8.17974 48.432C8.29713 46.4686 8.66496 44.9039 9.62182 43.7064C10.583 42.5035 12.0115 41.8291 13.8704 41.3398L13.8718 41.3395C16.0459 40.7708 17.3282 40.2712 18.069 39.7432C18.4205 39.4926 18.6208 39.2551 18.7413 39.0255C18.8618 38.7962 18.933 38.5167 18.942 38.1362C18.9478 37.8901 18.8393 37.3368 18.5344 36.615C18.2412 35.9206 17.8087 35.1724 17.2704 34.5432C16.7287 33.91 16.1222 33.4458 15.4892 33.2296C14.8868 33.0239 14.1915 33.0171 13.3695 33.4145ZM7.51302 59.2423C7.75831 57.5206 8.9348 55.8272 10.8166 55.016C11.4578 54.737 12.2483 54.6708 12.9983 54.6972C13.7717 54.7245 14.6073 54.8548 15.4015 55.0486C16.1956 55.2425 16.9772 55.507 17.6402 55.8173C18.2661 56.1102 18.9134 56.5016 19.309 57.0083C20.2597 58.2043 20.6661 59.4781 20.4599 60.6955C20.255 61.9054 19.4772 62.8683 18.4469 63.5189C16.4071 64.8068 13.1905 65.025 9.98848 63.6968C7.99571 62.8719 7.26269 60.9994 7.51302 59.2423ZM10.3603 62.7732C16.3022 65.2382 21.8166 61.7524 18.5269 57.6209C17.5591 56.3732 12.9958 55.1626 11.2241 55.9349C8.0981 57.2809 7.38079 61.5404 10.3603 62.7732Z" fill="black"/>
<path fill-rule="evenodd" clip-rule="evenodd" d="M12.3372 26.6819C7.58024 27.2014 3.02188 30.2413 2.43944 36.7429C2.09168 40.7272 2.05223 41.4633 4.55635 41.168C5.88873 41.0109 7.73764 40.0933 8.73992 39.211V39.211C10.2196 37.9083 9.95634 36.1931 10.853 34.4341C11.276 33.6042 11.9421 32.9936 12.9223 32.5137C17.1304 30.4769 19.9837 36.3567 19.941 38.1731C19.8942 40.1675 18.4954 41.1674 14.1364 42.3076C10.5729 43.2455 9.40376 44.7173 9.17728 48.5052C9.11659 49.6258 8.97551 50.5117 8.85193 50.6497C8.30357 51.3067 10.1439 51.9985 12.1234 51.8933C18.0623 51.56 17.9751 51.6102 17.7031 49.2832C17.5309 47.8332 17.6733 47.6246 19.0922 47.2314C22.5182 46.2885 24.5069 44.3301 25.6211 40.8067C28.5336 31.7176 22.7469 25.569 12.3372 26.6819ZM17.8601 27.9551C21.711 28.6854 25.1964 34.0005 24.4316 38.0181C23.7255 41.7348 21.7134 43.9597 17.7788 45.3294C15.8722 45.9897 15.2493 46.8935 15.1811 49.0654V49.0654C15.165 49.7532 14.6303 50.3097 13.9447 50.3537C13.8254 50.3613 13.7156 50.3685 13.6129 50.3753C12.536 50.4467 11.5914 49.5607 11.679 48.4843C11.9524 45.1255 12.5288 44.4683 17.8914 42.7314C21.8583 41.452 22.797 38.0825 20.3305 34.0348C16.3742 27.5438 5.71193 31.3564 7.55307 38.607C7.63101 38.9485 7.67544 39.2531 7.64025 39.2875C7.58747 39.339 5.34236 39.773 5.17059 39.7667C5.15341 39.766 5.08463 37.5713 4.99913 36.8196C4.23973 30.3575 10.9107 26.6649 17.8601 27.9551ZM11.2239 55.9349C8.09783 57.281 7.38052 61.5404 10.3601 62.7733C16.302 65.2383 21.8163 61.7525 18.5266 57.6209C17.5588 56.3732 12.9955 55.1626 11.2239 55.9349Z" fill="#D9FE59"/>
<path d="M17.8601 27.9551C21.711 28.6854 25.1964 34.0005 24.4316 38.0181C23.7255 41.7348 21.7134 43.9597 17.7788 45.3294C15.8722 45.9897 15.2493 46.8935 15.1811 49.0654V49.0654C15.165 49.7532 14.6303 50.3097 13.9447 50.3537C13.8254 50.3613 13.7156 50.3685 13.6129 50.3753C12.536 50.4467 11.5914 49.5607 11.679 48.4843C11.9524 45.1255 12.5288 44.4683 17.8914 42.7314C21.8583 41.452 22.797 38.0825 20.3305 34.0348C16.3742 27.5438 5.71193 31.3564 7.55307 38.607C7.63101 38.9485 7.67544 39.2531 7.64025 39.2875C7.58747 39.339 5.34236 39.773 5.17059 39.7667C5.15341 39.766 5.08463 37.5713 4.99913 36.8196C4.23973 30.3575 10.9107 26.6649 17.8601 27.9551Z" fill="#D9FE59"/>
<path fill-rule="evenodd" clip-rule="evenodd" d="M12.3375 26.6819C22.7472 25.569 28.5338 31.7175 25.6214 40.8066C24.5071 44.3301 22.5185 46.2885 19.0925 47.2314C17.6736 47.6246 17.5312 47.8332 17.7034 49.2832L17.7158 49.3885C17.8059 50.1559 17.8643 50.6529 17.6607 50.9882C17.2865 51.6043 16.0276 51.6747 12.4558 51.8747L12.4557 51.8747L12.1237 51.8933C10.1442 51.9984 8.30384 51.3067 8.8522 50.6497C8.97578 50.5116 9.11686 49.6257 9.17755 48.5051C9.40403 44.7172 10.5732 43.2454 14.1367 42.3076C18.4956 41.1674 19.8945 40.1675 19.9413 38.1731C19.984 36.3567 17.1307 30.4768 12.9226 32.5137C11.9424 32.9936 11.2763 33.6042 10.8533 34.4341C10.5098 35.1078 10.3366 35.7751 10.1703 36.4153C9.9026 37.4465 9.65315 38.4072 8.7402 39.2109C7.73791 40.0932 5.889 41.0108 4.55663 41.1679C2.0525 41.4632 2.09195 40.7271 2.43971 36.7429C3.02216 30.2412 7.58051 27.2014 12.3375 26.6819ZM13.3695 33.4145C12.5416 33.8201 12.0527 34.2943 11.7449 34.8981C11.4545 35.4678 11.3165 35.998 11.1567 36.6116C11.1017 36.8228 11.0442 37.0439 10.9769 37.2798C10.7253 38.1631 10.3536 39.1317 9.40603 39.9659C8.82016 40.4817 8.02507 40.9781 7.21172 41.3657C6.40318 41.751 5.49931 42.0657 4.68669 42.1615C4.05055 42.2365 3.42007 42.2704 2.87988 42.129C2.58931 42.053 2.30001 41.9208 2.04581 41.7003C1.7903 41.4787 1.61696 41.2084 1.50221 40.9233C1.28992 40.3959 1.25847 39.7609 1.27226 39.1217C1.28659 38.4572 1.35791 37.6277 1.44389 36.6426L1.44409 36.6403C1.75616 33.1569 3.14568 30.537 5.14677 28.7235C7.13448 26.9221 9.66999 25.9654 12.216 25.6873L12.2182 25.6871C17.6111 25.1105 22.0233 26.3937 24.6987 29.238C27.4013 32.111 28.1079 36.3341 26.5741 41.1221C25.9816 42.995 25.1352 44.518 23.9296 45.7046C22.7217 46.8934 21.2089 47.6898 19.3707 48.1959C19.019 48.2934 18.8131 48.3622 18.6829 48.4226C18.6697 48.4287 18.6583 48.4343 18.6485 48.4393C18.6478 48.448 18.6472 48.4578 18.6466 48.4687C18.6398 48.6071 18.6533 48.8189 18.696 49.1782L18.6962 49.1801C18.7017 49.2273 18.7075 49.2753 18.7133 49.3238C18.7702 49.8003 18.8341 50.335 18.7712 50.7791C18.7313 51.0615 18.6366 51.3654 18.4302 51.6451C18.2245 51.9239 17.9565 52.1124 17.6745 52.2438C17.159 52.484 16.4623 52.5902 15.6473 52.668C14.8665 52.7425 13.8427 52.7998 12.5342 52.873C12.4225 52.8792 12.3088 52.8856 12.193 52.8921L12.19 52.8923C11.0891 52.9508 9.99087 52.7928 9.19733 52.4924C8.82604 52.3518 8.37985 52.1283 8.0813 51.7606C7.91812 51.5596 7.76241 51.2684 7.75477 50.9036C7.74841 50.6 7.84657 50.3399 7.98309 50.1342C8.00196 50.0596 8.02557 49.9424 8.05047 49.7806C8.10263 49.4417 8.15038 48.9738 8.17942 48.4376L8.17972 48.432L8.17974 48.432C8.29713 46.4686 8.66496 44.9039 9.62182 43.7064C10.583 42.5035 12.0115 41.8291 13.8704 41.3398L13.8718 41.3395C16.0459 40.7708 17.3282 40.2712 18.069 39.7432C18.4205 39.4926 18.6208 39.2551 18.7413 39.0255C18.8618 38.7962 18.933 38.5167 18.942 38.1362C18.9478 37.8901 18.8393 37.3368 18.5344 36.615C18.2412 35.9206 17.8087 35.1724 17.2704 34.5432C16.7287 33.91 16.1222 33.4458 15.4892 33.2296C14.8868 33.0239 14.1915 33.0171 13.3695 33.4145ZM7.51302 59.2423C7.75831 57.5206 8.9348 55.8272 10.8166 55.016C11.4578 54.737 12.2483 54.6708 12.9983 54.6972C13.7717 54.7245 14.6073 54.8548 15.4015 55.0486C16.1956 55.2425 16.9772 55.507 17.6402 55.8173C18.2661 56.1102 18.9134 56.5016 19.309 57.0083C20.2597 58.2043 20.6661 59.4781 20.4599 60.6955C20.255 61.9054 19.4772 62.8683 18.4469 63.5189C16.4071 64.8068 13.1905 65.025 9.98848 63.6968C7.99571 62.8719 7.26269 60.9994 7.51302 59.2423ZM10.3603 62.7732C16.3022 65.2382 21.8166 61.7524 18.5269 57.6209C17.5591 56.3732 12.9958 55.1626 11.2241 55.9349C8.0981 57.2809 7.38079 61.5404 10.3603 62.7732Z" fill="black"/>
<path fill-rule="evenodd" clip-rule="evenodd" d="M78.1223 9.19071C70.3239 7.1625 61.4795 8.92176 57.0509 18.0512C54.3515 23.6511 53.8919 24.7002 58.0088 25.7361C60.1993 26.2873 63.6165 26.0331 65.6766 25.3347V25.3347C68.7181 24.3036 69.2274 21.651 71.5936 19.6138C72.71 18.6526 74.0922 18.1531 75.9002 18.028C83.6499 17.5246 84.9866 27.7598 83.9391 30.3805C82.7889 33.2582 80.0387 33.8958 72.5344 33.0047C66.3966 32.2846 63.7547 33.7439 61.3529 39.1288C60.6523 40.7256 59.9513 41.9335 59.6815 42.0622C58.4604 42.6982 60.9957 44.7832 64.1808 45.7889C73.7466 48.7802 73.5818 48.8024 74.4075 45.2536C74.9177 43.0406 75.2553 42.8201 77.71 43.0781C83.6333 43.7103 87.8329 42.022 91.495 37.542C101.002 26.0077 95.1745 13.6639 78.1223 9.19071ZM86.1638 14.2786C91.8558 17.5968 94.4963 27.3794 91.1198 32.7837C87.9983 37.7841 83.6179 39.8469 76.6605 39.5386C73.291 39.3843 71.8188 40.3361 70.5392 43.4598V43.4598C70.1425 44.4521 68.9973 44.9497 67.89 44.6125C67.6974 44.5538 67.5199 44.4999 67.354 44.4497C65.6135 43.9233 64.5987 42.0797 65.3179 40.5631C67.5623 35.8306 68.828 35.2108 78.2403 35.8203C85.1999 36.279 88.5016 31.9205 86.7876 24.5806C84.0373 12.8096 65.1292 12.121 64.1268 23.7601C64.0657 24.3032 63.9715 24.773 63.8974 24.8024C63.7862 24.8466 60.0038 24.1643 59.7357 24.0545C59.7089 24.0435 60.7844 20.8064 61.0549 19.6614C63.3415 9.80403 75.877 8.33081 86.1638 14.2786ZM60.5784 51.1493C54.9117 51.2799 51.4797 57.0644 55.5234 60.6044C63.5841 67.6736 74.18 65.8245 71.2102 57.8805C70.3539 55.4965 63.7951 51.0616 60.5784 51.1493Z" fill="#D9FE59"/>
<path d="M86.1638 14.2786C91.8558 17.5968 94.4963 27.3794 91.1198 32.7837C87.9983 37.7841 83.6179 39.8469 76.6605 39.5386C73.291 39.3843 71.8188 40.3361 70.5392 43.4598V43.4598C70.1425 44.4521 68.9973 44.9497 67.89 44.6125C67.6974 44.5538 67.5199 44.4999 67.354 44.4497C65.6135 43.9233 64.5987 42.0797 65.3179 40.5631C67.5623 35.8306 68.828 35.2108 78.2403 35.8203C85.1999 36.279 88.5016 31.9205 86.7876 24.5806C84.0373 12.8096 65.1292 12.121 64.1268 23.7601C64.0657 24.3032 63.9715 24.773 63.8974 24.8024C63.7862 24.8466 60.0038 24.1643 59.7357 24.0545C59.7089 24.0435 60.7844 20.8064 61.0549 19.6614C63.3415 9.80403 75.877 8.33081 86.1638 14.2786Z" fill="#D9FE59"/>
<path fill-rule="evenodd" clip-rule="evenodd" d="M78.1221 9.19112C95.1743 13.6643 101.002 26.0081 91.4948 37.5424C87.8327 42.0224 83.6331 43.7108 77.7098 43.0785C75.2551 42.8205 74.9175 43.0411 74.4073 45.254L74.37 45.4146C74.0985 46.5852 73.9226 47.3433 73.4198 47.7125C72.496 48.3908 70.4684 47.7564 64.7156 45.9566L64.7155 45.9566L64.1807 45.7893C60.9955 44.7836 58.4602 42.6986 59.6814 42.0626C59.9511 41.9339 60.6521 40.726 61.3527 39.1293C63.7545 33.7443 66.3965 32.285 72.5342 33.0051C80.0385 33.8962 82.7888 33.2586 83.9389 30.3809C84.9864 27.7602 83.6497 17.525 75.9 18.0284C74.092 18.1536 72.7098 18.653 71.5935 19.6142C70.6871 20.3945 70.0532 21.2651 69.4451 22.1002C68.4656 23.4455 67.5529 24.6989 65.6764 25.3351C63.6163 26.0336 60.1992 26.2877 58.0087 25.7365C53.8918 24.7006 54.3513 23.6515 57.0507 18.0516C61.4794 8.92216 70.3237 7.1629 78.1221 9.19112ZM76.1202 19.6021C74.5931 19.7084 73.5645 20.1128 72.7523 20.8121C71.986 21.4719 71.4817 22.1634 70.8981 22.9636C70.6973 23.2391 70.487 23.5274 70.2534 23.8318C69.3791 24.971 68.269 26.1644 66.3214 26.8247C65.1171 27.233 63.5927 27.4906 62.0981 27.579C60.6124 27.6668 59.0141 27.5961 57.6781 27.2599C56.6323 26.9967 55.6176 26.677 54.8401 26.1549C54.4219 25.874 54.036 25.5121 53.7532 25.0421C53.469 24.5697 53.3409 24.0744 53.3134 23.592C53.2625 22.6995 53.5554 21.7562 53.9221 20.8331C54.3033 19.8736 54.8636 18.7071 55.531 17.3225L55.5325 17.3193C57.9053 12.428 61.515 9.42524 65.6561 7.95521C69.7695 6.495 74.2929 6.58581 78.4666 7.67132L78.4703 7.67227C87.3045 9.9897 93.5852 14.4418 96.2789 20.1511C98.9998 25.9182 97.8378 32.4833 92.8303 38.5596C90.8833 40.9409 88.7239 42.6638 86.1782 43.6864C83.6279 44.7109 80.8072 44.9853 77.6291 44.6463C77.0206 44.5824 76.6581 44.5621 76.4198 44.5739C76.3956 44.5751 76.3745 44.5765 76.3563 44.5781C76.3505 44.5904 76.3442 44.6042 76.3375 44.6198C76.2521 44.8174 76.1591 45.1338 76.0327 45.6822L76.032 45.6851C76.0153 45.757 75.9984 45.8302 75.9814 45.9044C75.8143 46.6318 75.6268 47.448 75.2878 48.0581C75.0722 48.4461 74.7586 48.8334 74.2816 49.1199C73.806 49.4055 73.2808 49.5232 72.7642 49.5495C71.8198 49.5977 70.6615 49.3444 69.3315 48.9806C68.0573 48.632 66.4083 48.1161 64.3008 47.4567C64.1209 47.4004 63.9378 47.3431 63.7512 47.2848L63.7464 47.2833C61.9749 46.7239 60.3245 45.8509 59.2325 44.9488C58.7216 44.5266 58.137 43.9398 57.8636 43.2294C57.7141 42.8412 57.6252 42.3258 57.8099 41.79C57.9637 41.344 58.2592 41.0227 58.5859 40.8029C58.656 40.7053 58.7565 40.5484 58.8832 40.3274C59.1485 39.8642 59.4764 39.2106 59.8116 38.4466L59.8151 38.4386L59.8152 38.4387C61.0601 35.6474 62.4857 33.5836 64.6441 32.3995C66.8122 31.21 69.4338 31.0639 72.6355 31.4396L72.638 31.4398C76.3809 31.8843 78.6771 31.9073 80.1326 31.5719C80.8233 31.4127 81.2681 31.184 81.5825 30.9201C81.8966 30.6565 82.16 30.2912 82.3795 29.7422C82.5214 29.3871 82.6485 28.5177 82.5562 27.2879C82.4673 26.1046 82.1876 24.7617 81.6763 23.5299C81.1619 22.2906 80.4539 21.2592 79.57 20.5737C78.7291 19.9215 77.6338 19.5045 76.1202 19.6021ZM52.9285 53.7948C54.2451 51.4305 57.0182 49.6526 60.43 49.5727C61.5939 49.5417 62.8789 49.908 64.05 50.3856C65.2575 50.8781 66.5079 51.5571 67.6585 52.3044C68.8088 53.0516 69.9014 53.8945 70.7817 54.7346C71.6129 55.5278 72.4247 56.4769 72.7765 57.4465C73.6338 59.7452 73.5886 61.8385 72.6059 63.4911C71.6293 65.1336 69.8804 66.0808 67.9011 66.4252C63.9823 67.107 58.7811 65.5417 54.4372 61.7324C51.7329 59.3643 51.5848 56.2075 52.9285 53.7948ZM55.5232 60.6048C63.5839 67.674 74.1798 65.8249 71.21 57.8809C70.3537 55.4969 63.7949 51.062 60.5783 51.1497C54.9115 51.2803 51.4795 57.0648 55.5232 60.6048Z" fill="black"/>
<path fill-rule="evenodd" clip-rule="evenodd" d="M112.617 58.9413C108.44 56.607 102.964 56.4414 98.7199 61.4015C96.1269 64.4464 95.668 65.0233 97.8796 66.2344C99.0564 66.8787 101.095 67.2029 102.423 67.065V67.065C104.384 66.8613 105.164 65.3111 106.914 64.3976C107.74 63.9666 108.636 63.8552 109.713 64.0324C114.323 64.8122 113.239 71.2573 112.152 72.7126C110.957 74.3106 109.238 74.3144 105.025 72.7166C101.578 71.415 99.7719 71.9365 97.3915 74.8917C96.6924 75.7696 96.0639 76.4097 95.8832 76.4505C95.0555 76.668 96.1541 78.2985 97.828 79.3603C102.86 82.5315 102.76 82.5219 103.888 80.4681C104.588 79.1868 104.825 79.0993 106.209 79.6015C109.547 80.8193 112.303 80.3763 115.253 78.1512C122.895 72.4336 121.745 64.069 112.617 58.9413ZM116.379 63.1804C119.094 66.0078 118.853 72.3592 115.901 75.1895C113.171 77.8086 110.241 78.4551 106.241 77.2903C104.305 76.7231 103.273 77.0984 101.959 78.8286V78.8286C101.547 79.3796 100.789 79.5232 100.205 79.1616C100.103 79.0987 100.009 79.0408 99.9217 78.9869C99.0028 78.4208 98.7467 77.1512 99.4421 76.325C101.612 73.7465 102.463 73.5452 107.839 75.2386C111.813 76.4957 114.531 74.2943 114.868 69.5663C115.407 61.9838 104.509 58.9095 101.806 65.8848C101.672 66.2083 101.531 66.4823 101.483 66.4898C101.41 66.5012 99.3287 65.5534 99.1925 65.4486C99.1788 65.4381 100.395 63.6099 100.761 62.9478C103.888 57.2421 111.465 58.1005 116.379 63.1804ZM94.7521 82.1321C91.4246 81.4167 88.3709 84.4716 90.084 87.2034C93.4967 92.6565 100.011 93.0128 99.7252 87.7393C99.6599 86.1616 96.6434 82.5298 94.7521 82.1321Z" fill="#D9FE59"/>
<path d="M116.379 63.1804C119.094 66.0078 118.853 72.3592 115.901 75.1895C113.171 77.8086 110.241 78.4551 106.241 77.2903C104.305 76.7231 103.273 77.0984 101.959 78.8286V78.8286C101.547 79.3796 100.789 79.5232 100.205 79.1616C100.103 79.0987 100.009 79.0408 99.9217 78.9869C99.0028 78.4208 98.7467 77.1512 99.4421 76.325C101.612 73.7465 102.463 73.5452 107.839 75.2386C111.813 76.4957 114.531 74.2943 114.868 69.5663C115.407 61.9838 104.509 58.9095 101.806 65.8848C101.672 66.2083 101.531 66.4823 101.483 66.4898C101.41 66.5012 99.3287 65.5534 99.1925 65.4486C99.1788 65.4381 100.395 63.6099 100.761 62.9478C103.888 57.2421 111.465 58.1005 116.379 63.1804Z" fill="#D9FE59"/>
<path fill-rule="evenodd" clip-rule="evenodd" d="M112.618 58.9413C121.745 64.069 122.896 72.4336 115.253 78.1513C112.303 80.3764 109.547 80.8193 106.209 79.6015C104.825 79.0994 104.588 79.1868 103.888 80.4682L103.837 80.5611C103.465 81.2387 103.225 81.6775 102.865 81.8327C102.202 82.1177 101.136 81.4454 98.1096 79.5377L98.1095 79.5377L97.8282 79.3603C96.1543 78.2985 95.0557 76.668 95.8834 76.4505C96.0641 76.4097 96.6926 75.7696 97.3917 74.8917C99.7721 71.9365 101.578 71.415 105.025 72.7166C109.238 74.3144 110.957 74.3106 112.152 72.7126C113.24 71.2573 114.323 64.8122 109.714 64.0324C108.637 63.8553 107.74 63.9667 106.914 64.3976C106.244 64.7475 105.716 65.1908 105.209 65.6161C104.393 66.3011 103.633 66.9394 102.423 67.065C101.095 67.2029 99.0566 66.8788 97.8798 66.2344C95.6682 65.0234 96.1271 64.4464 98.7201 61.4016C102.964 56.4415 108.44 56.607 112.618 58.9413ZM109.555 65.0255C108.646 64.8761 107.973 64.9791 107.372 65.2927C106.805 65.5885 106.385 65.9405 105.899 66.3479C105.732 66.4881 105.557 66.6348 105.365 66.7881C104.648 67.3619 103.784 67.9358 102.528 68.0662C101.752 68.1468 100.816 68.0904 99.9286 67.9347C99.0464 67.7799 98.1275 67.5124 97.4098 67.1194C96.848 66.8117 96.3146 66.4738 95.9564 66.0455C95.7637 65.8151 95.6046 65.5397 95.5253 65.2127C95.4456 64.884 95.461 64.5632 95.5328 64.2644C95.6656 63.7116 96.008 63.176 96.3898 62.6631C96.7867 62.13 97.3257 61.4954 97.9668 60.7426L97.9683 60.7408C100.242 58.0833 102.893 56.754 105.575 56.4364C108.239 56.1209 110.859 56.8112 113.095 58.0605L113.097 58.0616C117.826 60.7181 120.677 64.3214 121.208 68.1899C121.745 72.0976 119.872 75.9483 115.847 78.9606C114.278 80.1432 112.706 80.8936 111.036 81.1615C109.362 81.43 107.668 81.202 105.877 80.5487C105.534 80.4243 105.326 80.361 105.185 80.3347C105.171 80.3321 105.158 80.33 105.147 80.3284C105.141 80.3351 105.135 80.3427 105.128 80.3513C105.043 80.4601 104.931 80.6405 104.757 80.958L104.756 80.9597C104.734 81.0014 104.71 81.0438 104.687 81.0867C104.457 81.508 104.199 81.9806 103.891 82.3061C103.694 82.513 103.441 82.7058 103.111 82.814C102.782 82.9219 102.454 82.9202 102.148 82.8638C101.589 82.7607 100.959 82.4433 100.25 82.0342C99.5708 81.6423 98.7034 81.0955 97.5947 80.3966C97.5001 80.337 97.4037 80.2762 97.3056 80.2144L97.3031 80.2128C96.3721 79.6222 95.5688 78.8569 95.0964 78.1521C94.8753 77.8223 94.6414 77.3815 94.6112 76.9089C94.5948 76.6505 94.6367 76.3229 94.8419 76.0213C95.0128 75.7702 95.2435 75.6152 95.474 75.5267C95.5327 75.4768 95.6198 75.3951 95.7339 75.2777C95.9729 75.0318 96.283 74.6782 96.6175 74.2581L96.621 74.2537L96.621 74.2537C97.8549 72.7219 99.0617 71.6602 100.536 71.2391C102.016 70.8162 103.571 71.0947 105.369 71.7737L105.371 71.7742C107.472 72.5712 108.806 72.9074 109.716 72.9066C110.148 72.9062 110.449 72.8288 110.68 72.7116C110.911 72.5945 111.131 72.4081 111.359 72.1033C111.506 71.9061 111.739 71.3924 111.909 70.6275C112.072 69.8917 112.154 69.0314 112.08 68.2065C112.005 67.3766 111.78 66.6467 111.39 66.1036C111.018 65.5869 110.456 65.1782 109.555 65.0255ZM89.811 82.6758C91.0089 81.4151 92.9493 80.7172 94.9529 81.1471C95.6371 81.2915 96.3196 81.6958 96.9154 82.1521C97.5297 82.6227 98.1351 83.2132 98.6699 83.8316C99.2045 84.4499 99.6881 85.1185 100.048 85.7556C100.389 86.3572 100.689 87.0514 100.718 87.6936C100.799 89.2192 100.392 90.4927 99.5181 91.3652C98.6497 92.2323 97.4577 92.566 96.2411 92.4988C93.8324 92.3658 91.0849 90.6789 89.2458 87.7404C88.1002 85.9131 88.5885 83.9623 89.811 82.6758ZM90.0842 87.2034C93.4969 92.6565 100.011 93.0129 99.7254 87.7393C99.6601 86.1616 96.6436 82.5298 94.7523 82.1321C91.4248 81.4167 88.3711 84.4716 90.0842 87.2034Z" fill="black"/>
</svg>
