<svg width="450" height="482" viewBox="0 0 450 482" fill="none" xmlns="http://www.w3.org/2000/svg">
<g filter="url(#filter0_f_2019_825)">
<path d="M589 376.5C589 479.501 501.919 563 394.5 563C287.081 563 200 479.501 200 376.5C200 273.499 287.081 190 394.5 190C501.919 190 589 273.499 589 376.5Z" fill="#E3EF91"/>
</g>
<g filter="url(#filter1_f_2019_825)">
<path d="M509.001 214C509.001 265.362 457.962 307 395.001 307C314.5 351.5 286.501 283.5 337.501 214C337.501 162.638 332.041 121 395.001 121C457.962 121 509.001 162.638 509.001 214Z" fill="#DCBDF4"/>
</g>
<defs>
<filter id="filter0_f_2019_825" x="0" y="-10" width="789" height="773" filterUnits="userSpaceOnUse" color-interpolation-filters="sRGB">
<feFlood flood-opacity="0" result="BackgroundImageFix"/>
<feBlend mode="normal" in="SourceGraphic" in2="BackgroundImageFix" result="shape"/>
<feGaussianBlur stdDeviation="100" result="effect1_foregroundBlur_2019_825"/>
</filter>
<filter id="filter1_f_2019_825" x="211.835" y="21" width="397.166" height="400.218" filterUnits="userSpaceOnUse" color-interpolation-filters="sRGB">
<feFlood flood-opacity="0" result="BackgroundImageFix"/>
<feBlend mode="normal" in="SourceGraphic" in2="BackgroundImageFix" result="shape"/>
<feGaussianBlur stdDeviation="50" result="effect1_foregroundBlur_2019_825"/>
</filter>
</defs>
</svg>
