<svg width="66" height="81" viewBox="0 0 66 81" fill="none" xmlns="http://www.w3.org/2000/svg">
<g id="stars">
<path id="star" d="M24.5 73.3143C23.6906 67.2064 21.9367 61.7361 19.5176 57.421C16.8431 52.6503 13.3142 49.2294 9.30478 48C13.3142 46.7706 16.8431 43.3497 19.5176 38.579C21.9367 34.2639 23.6906 28.7936 24.5 22.6857C25.3094 28.7936 27.0633 34.2639 29.4824 38.579C32.1569 43.3497 35.6858 46.7706 39.6952 48C35.6858 49.2294 32.1569 52.6503 29.4824 57.421C27.0633 61.7361 25.3094 67.2064 24.5 73.3143Z" fill="#D9FE59" stroke="black"/>
<path id="star_2" d="M6.5 12.0298C7.22654 9.95551 8.69263 8.29081 10.5513 7.5C8.69263 6.70919 7.22654 5.04449 6.5 2.97017C5.77346 5.04449 4.30737 6.70919 2.44872 7.5C4.30737 8.29081 5.77346 9.95551 6.5 12.0298Z" fill="#D9FE59" stroke="black"/>
<path id="star_3" d="M54.5 34.9938C55.6717 30.4149 58.8009 26.783 62.802 25.5C58.8009 24.217 55.6717 20.5851 54.5 16.0062C53.3283 20.5851 50.1991 24.217 46.198 25.5C50.1991 26.783 53.3283 30.4149 54.5 34.9938Z" fill="#D9FE59" stroke="black"/>
</g>
</svg>
