<svg width="27" height="36" viewBox="0 0 27 36" fill="none" xmlns="http://www.w3.org/2000/svg">
<path d="M0 18C7.45584 18 13.5 9.94112 13.5 0C13.5 9.94112 19.5442 18 27 18C19.5442 18 13.5 26.0589 13.5 36C13.5 26.0589 7.45584 18 0 18Z" fill="#B2A8FE"/>
<path fill-rule="evenodd" clip-rule="evenodd" d="M3.24775 18.5243C2.20746 18.1817 1.11965 18 0 18C1.11965 18 2.20746 17.8183 3.24775 17.4757C7.94594 15.9286 11.6748 11.1014 12.9893 4.92086C13.322 3.35683 13.5 1.70614 13.5 0C13.5 1.70614 13.678 3.35683 14.0107 4.92086C15.3252 11.1014 19.0541 15.9286 23.7523 17.4757C24.7925 17.8183 25.8804 18 27 18C25.8804 18 24.7925 18.1817 23.7523 18.5243C19.0541 20.0714 15.3252 24.8986 14.0107 31.0791C13.678 32.6432 13.5 34.2939 13.5 36C13.5 34.2939 13.322 32.6432 12.9893 31.0791C11.6748 24.8986 7.94594 20.0714 3.24775 18.5243ZM13.5 29.0406C14.2171 26.6463 15.2952 24.4839 16.6541 22.6721C18.2072 20.6012 20.1438 18.9713 22.3346 18C20.1438 17.0287 18.2072 15.3988 16.6541 13.3279C15.2952 11.5161 14.2171 9.35368 13.5 6.95944C12.7829 9.35368 11.7048 11.5161 10.3459 13.3279C8.79281 15.3988 6.85615 17.0287 4.66541 18C6.85615 18.9713 8.79281 20.6012 10.3459 22.6721C11.7048 24.4839 12.7829 26.6463 13.5 29.0406Z" fill="black"/>
</svg>
