<svg width="358" height="26" viewBox="0 0 358 26" fill="none" xmlns="http://www.w3.org/2000/svg">
<path fill-rule="evenodd" clip-rule="evenodd" d="M230.773 1.56974C226.67 1.58721 222.576 1.60464 218.495 1.61757C211.15 1.64085 203.807 1.66102 196.464 1.68119C152.325 1.80247 108.22 1.92364 64.0712 2.71722C54.5039 2.88908 45.0234 3.6877 35.5259 4.48776C34.5498 4.56998 33.5735 4.65223 32.5969 4.7338C22.1249 5.60856 11.6233 6.40656 0.99409 6.28089C0.717967 6.27763 0.496771 6.05114 0.500036 5.77502C0.5033 5.49889 0.729788 5.2777 1.00591 5.28096C11.5824 5.406 22.0413 4.61206 32.5136 3.73728C33.4906 3.65567 34.4677 3.57335 35.445 3.49102C44.9373 2.69134 54.451 1.88987 64.0532 1.71738C108.21 0.923657 152.324 0.802461 196.463 0.681194C203.805 0.661022 211.148 0.640849 218.492 0.617578C222.574 0.604645 226.669 0.587189 230.775 0.569688C272.652 0.391179 315.597 0.208117 357.055 4.77572C357.328 4.80588 357.526 5.05164 357.497 5.32546C357.468 5.59927 357.223 5.79807 356.949 5.77014C347.611 4.81785 338.196 4.93035 328.747 5.20637C327.056 5.25574 325.365 5.31037 323.672 5.36502C315.911 5.61561 308.132 5.86679 300.387 5.61518C254.373 4.12019 207.647 4.12898 161.753 7.70115C154.699 8.25018 147.342 8.64701 139.93 9.04689C128.469 9.66511 116.874 10.2906 106.055 11.497C105.121 11.6013 102.841 11.7459 99.8764 11.9339C96.6294 12.1399 92.5604 12.398 88.5361 12.7124C84.6719 13.0143 80.8371 13.3687 77.7702 13.78C76.236 13.9857 74.9026 14.2046 73.8574 14.4364C73.4329 14.5305 73.0675 14.6245 72.7614 14.7167C73.2365 14.7805 73.8444 14.8393 74.5635 14.8927C76.7579 15.0554 79.8872 15.1606 83.1565 15.2302C87.4397 15.3214 91.9878 15.3514 94.921 15.3708C96.4415 15.3808 97.5281 15.388 97.919 15.3993C101.841 15.5129 102.739 15.4824 105.007 15.4055C105.82 15.3779 106.809 15.3443 108.177 15.3093C113.025 15.185 117.834 14.9549 122.651 14.7245C126.727 14.5295 130.809 14.3342 134.923 14.2027C138.979 14.0732 143.039 13.9812 147.1 13.9182C149.527 13.7538 152.043 13.5792 154.635 13.3994C168.85 12.4131 185.333 11.2694 201.761 10.7774C225.31 10.072 248.825 10.7012 265.472 15.0729C265.58 15.1014 265.676 15.1299 265.754 15.1592C265.791 15.1735 265.838 15.1932 265.885 15.2196L265.887 15.2206C265.914 15.2362 266.03 15.3016 266.104 15.4368C266.152 15.5244 266.189 15.656 266.152 15.8063C266.117 15.9477 266.033 16.0366 265.977 16.0825C265.88 16.1617 265.776 16.1874 265.747 16.1947L265.746 16.1949C265.662 16.2155 265.569 16.2223 265.497 16.2256C265.193 16.2397 264.629 16.2134 263.998 16.1751C263.553 16.1481 263.064 16.1146 262.579 16.0814C261.65 16.0176 260.738 15.9551 260.182 15.9421C258.466 15.9024 256.748 15.8518 255.031 15.8013C253.925 15.7688 252.819 15.7363 251.715 15.7067C249.198 15.6395 246.678 15.558 244.156 15.4766C237.443 15.2598 230.723 15.0428 224.04 15.0927L224.036 14.5927L224.04 15.0927C212.475 15.1785 200.907 15.0705 189.34 14.9625C175.27 14.8312 161.202 14.6999 147.146 14.9175C143.805 15.1438 140.631 15.3511 137.661 15.5265C124.45 16.3073 111.143 17.154 98.0683 18.8884C95.34 19.2506 92.5872 19.5556 89.84 19.8599C87.5893 20.1093 85.3424 20.3583 83.1159 20.6379C81.838 20.7983 79.8827 21.0663 78.2693 21.3176C77.6509 21.414 77.0865 21.5073 76.6313 21.5907C76.838 21.6703 77.0714 21.7459 77.328 21.8174C78.1318 22.0412 79.1183 22.2116 80.1301 22.3409C82.0411 22.5849 83.9864 22.6753 84.8511 22.7155C84.9011 22.7178 84.9475 22.72 84.9901 22.722L84.9902 22.722C90.9121 23.0024 96.911 22.8154 102.927 22.5325C104.464 22.4602 106.003 22.3816 107.541 22.303C112.019 22.0743 116.498 21.8456 120.936 21.7721C130.063 21.621 139.406 21.3057 148.866 20.9864C182.255 19.8596 217.095 18.6838 249.03 24.5082C249.302 24.5577 249.482 24.8181 249.433 25.0898C249.383 25.3614 249.123 25.5415 248.851 25.4919C217.032 19.6888 182.341 20.8589 148.967 21.9845C139.491 22.3041 130.12 22.6202 120.952 22.7719C116.533 22.8452 112.08 23.0726 107.607 23.301C106.065 23.3798 104.52 23.4586 102.974 23.5313C96.9513 23.8146 90.9139 24.0036 84.9429 23.7208L84.9665 23.2214L84.943 23.7209C84.9429 23.7209 84.9429 23.7208 84.9429 23.7208C84.9 23.7188 84.853 23.7166 84.8021 23.7143C83.9371 23.6741 81.956 23.5821 80.0035 23.3328C78.9708 23.2009 77.9304 23.0232 77.0598 22.7807C76.6244 22.6595 76.2201 22.519 75.8755 22.3543C75.5364 22.1922 75.2228 21.9914 75.0003 21.7344M75.7558 21.0793C75.756 21.0795 75.7562 21.0797 75.7564 21.0799ZM115.061 16.0726C112.772 16.1678 110.485 16.2504 108.202 16.309C106.847 16.3437 105.861 16.3771 105.049 16.4047C102.768 16.4821 101.844 16.5134 97.89 16.3989L97.9045 15.8991L97.89 16.3989C97.4884 16.3873 96.4027 16.3802 94.8842 16.3703C91.9694 16.3514 87.46 16.322 83.1352 16.23C79.864 16.1603 76.7121 16.0547 74.4896 15.8899C73.3846 15.808 72.4836 15.7097 71.9097 15.5883C71.7644 15.5575 71.6305 15.5233 71.5145 15.4843C71.4064 15.4479 71.2798 15.3964 71.1728 15.3177C71.0764 15.2468 70.8717 15.0561 70.9121 14.7473C70.9467 14.4839 71.1421 14.3397 71.2242 14.2854C71.7145 13.9611 72.5815 13.695 73.641 13.4601C74.7257 13.2195 76.0906 12.9963 77.6373 12.7889C80.732 12.3739 84.5888 12.0178 88.4582 11.7155C92.5391 11.3966 96.6213 11.1381 99.8592 10.9331C102.785 10.7478 105.022 10.6062 105.945 10.5031L105.945 10.5031C116.779 9.29495 128.44 8.6654 139.931 8.045C147.339 7.64509 154.675 7.24899 161.675 6.70416C207.619 3.1281 254.386 3.12007 300.42 4.61571C308.129 4.86616 315.869 4.61632 323.628 4.36586C325.324 4.31113 327.02 4.25637 328.717 4.20679C331.872 4.11466 335.027 4.0405 338.182 4.01819C302.675 1.26353 266.363 1.41817 230.773 1.56974M163.356 13.8017C172.032 13.801 180.712 13.8819 189.388 13.9628C200.951 14.0705 212.506 14.1782 224.032 14.0927C230.737 14.0426 237.487 14.2607 244.207 14.4777C246.724 14.559 249.237 14.6401 251.742 14.707C252.852 14.7368 253.96 14.7694 255.067 14.8019C256.78 14.8524 258.491 14.9027 260.205 14.9424L260.193 15.4422L260.205 14.9424C260.319 14.945 260.448 14.9497 260.589 14.9561C244.502 11.6044 223.212 11.1353 201.791 11.7769C188.611 12.1717 175.406 12.9857 163.356 13.8017ZM265.345 15.5565L265.423 15.256L265.345 15.5565C71.777 15.1187 71.7782 15.118 71.7793 15.1172L71.7758 15.1195C71.7702 15.1245 71.7674 15.1251 71.7758 15.1195" fill="#9D76C5"/>
</svg>
